# This file uses centimeters as units for non-parametric coordinates.

mtllib coin 8.mtl
g default
v -0.319812 2.606279 0.017112
v -0.584489 2.464239 0.104621
v -0.794538 2.243007 0.174069
v -0.929397 1.964239 0.218657
v -0.975867 1.655222 0.234021
v -0.929397 1.346204 0.218657
v -0.794537 1.067436 0.174069
v -0.584489 0.846204 0.104621
v -0.319812 0.704165 0.017112
v -0.026415 0.655221 -0.079893
v 0.266982 0.704165 -0.176898
v 0.531659 0.846204 -0.264408
v 0.741707 1.067436 -0.333855
v 0.876567 1.346204 -0.378444
v 0.923037 1.655222 -0.393808
v 0.876567 1.964239 -0.378444
v 0.741707 2.243007 -0.333855
v 0.531659 2.464239 -0.264408
v 0.266982 2.606278 -0.176898
v -0.026415 2.655222 -0.079893
v -0.266982 2.606279 0.176898
v -0.531659 2.464239 0.264408
v -0.741708 2.243007 0.333855
v -0.876567 1.964239 0.378444
v -0.923037 1.655222 0.393808
v -0.876567 1.346204 0.378444
v -0.741708 1.067436 0.333855
v -0.531659 0.846204 0.264408
v -0.266982 0.704165 0.176898
v 0.026415 0.655221 0.079893
v 0.319812 0.704165 -0.017112
v 0.584488 0.846204 -0.104621
v 0.794537 1.067436 -0.174069
v 0.929397 1.346204 -0.218657
v 0.975866 1.655222 -0.234021
v 0.929397 1.964239 -0.218657
v 0.794537 2.243007 -0.174069
v 0.584488 2.464239 -0.104621
v 0.319811 2.606278 -0.017112
v 0.026415 2.655222 0.079893
v -0.026415 1.655222 -0.079893
v -0.251707 2.556764 0.171848
v -0.502604 2.422119 0.254801
v -0.701717 2.212405 0.320633
v -0.829555 1.948150 0.362900
v -0.873605 1.655222 0.377464
v -0.829555 1.362293 0.362900
v -0.701717 1.098038 0.320633
v -0.502604 0.888324 0.254801
v -0.251707 0.753680 0.171848
v 0.026415 0.707284 0.079893
v 0.304536 0.753680 -0.012061
v 0.555433 0.888324 -0.095015
v 0.754547 1.098038 -0.160847
v 0.882385 1.362293 -0.203114
v 0.926435 1.655222 -0.217678
v 0.882385 1.948150 -0.203114
v 0.754546 2.212405 -0.160847
v 0.555433 2.422119 -0.095015
v 0.304536 2.556763 -0.012061
v 0.026415 2.603159 0.079893
v -0.267273 2.556764 0.124768
v -0.518170 2.422119 0.207721
v 0.010849 1.655222 0.032813
v -0.717283 2.212405 0.273553
v -0.845121 1.948150 0.315820
v -0.889171 1.655222 0.330384
v -0.845121 1.362293 0.315820
v -0.717283 1.098038 0.273553
v -0.518170 0.888324 0.207721
v -0.267273 0.753680 0.124768
v 0.010849 0.707284 0.032813
v 0.288970 0.753680 -0.059141
v 0.539868 0.888324 -0.142095
v 0.738981 1.098038 -0.207927
v 0.866819 1.362293 -0.250194
v 0.910869 1.655222 -0.264758
v 0.866819 1.948150 -0.250194
v 0.738980 2.212405 -0.207927
v 0.539867 2.422119 -0.142095
v 0.288970 2.556763 -0.059141
v 0.010849 2.603159 0.032813
vt 0.186971 0.001813
vt 0.233093 0.001813
vt 0.233093 0.332712
vt 0.186971 0.332712
vt 0.269696 0.001813
vt 0.269696 0.332712
vt 0.135844 0.001813
vt 0.135844 0.332712
vt 0.084717 0.001813
vt 0.084717 0.332712
vt 0.038595 0.001813
vt 0.038595 0.332712
vt 0.001992 0.001813
vt 0.001992 0.332712
vt 0.514334 0.001813
vt 0.560456 0.001813
vt 0.560456 0.332712
vt 0.514334 0.332712
vt 0.611583 0.001813
vt 0.611583 0.332712
vt 0.477731 0.001813
vt 0.477731 0.332712
vt 0.662710 0.001813
vt 0.662710 0.332712
vt 0.708832 0.001813
vt 0.708832 0.332712
vt 0.745435 0.001813
vt 0.745435 0.332712
vt 0.099489 0.829715
vt 0.099489 0.873436
vt 0.001992 0.873436
vt 0.001992 0.829715
vt 0.099489 0.908134
vt 0.001992 0.908134
vt 0.099489 0.781250
vt 0.001992 0.781250
vt 0.099489 0.732785
vt 0.001992 0.732785
vt 0.099489 0.689065
vt 0.001992 0.689065
vt 0.099489 0.654367
vt 0.001992 0.654367
vt 0.204928 0.689065
vt 0.204928 0.732785
vt 0.107430 0.732785
vt 0.107430 0.689065
vt 0.204928 0.781250
vt 0.107430 0.781250
vt 0.204928 0.654367
vt 0.107430 0.654367
vt 0.204928 0.829715
vt 0.107430 0.829715
vt 0.204928 0.873436
vt 0.107430 0.873436
vt 0.204928 0.908134
vt 0.107430 0.908134
vt 0.966410 0.404905
vt 0.989911 0.451027
vt 0.832558 0.502154
vt 0.998008 0.502154
vt 0.929807 0.368302
vt 0.989910 0.553280
vt 0.883685 0.344801
vt 0.966410 0.599403
vt 0.832558 0.336704
vt 0.929807 0.636005
vt 0.781431 0.344801
vt 0.883685 0.659506
vt 0.735309 0.368302
vt 0.832558 0.667603
vt 0.698707 0.404905
vt 0.781431 0.659506
vt 0.675206 0.451027
vt 0.735309 0.636005
vt 0.667108 0.502154
vt 0.698707 0.599403
vt 0.675206 0.553280
vt 0.316262 0.542005
vt 0.293985 0.585726
vt 0.167102 0.493540
vt 0.259288 0.620423
vt 0.323938 0.493540
vt 0.215567 0.642700
vt 0.316262 0.445075
vt 0.167102 0.650376
vt 0.293985 0.401354
vt 0.118637 0.642700
vt 0.259288 0.366657
vt 0.074916 0.620423
vt 0.215567 0.344380
vt 0.040219 0.585726
vt 0.167102 0.336704
vt 0.017942 0.542005
vt 0.118637 0.344380
vt 0.010266 0.493540
vt 0.074916 0.366657
vt 0.017942 0.445075
vt 0.040219 0.401354
vt 0.652875 0.553281
vt 0.629375 0.599403
vt 0.622406 0.594340
vt 0.644683 0.550619
vt 0.592772 0.636006
vt 0.587709 0.629037
vt 0.660973 0.502154
vt 0.652359 0.502154
vt 0.546650 0.659506
vt 0.543988 0.651314
vt 0.652875 0.451027
vt 0.644683 0.453689
vt 0.495523 0.667604
vt 0.495523 0.658990
vt 0.629375 0.404905
vt 0.622406 0.409968
vt 0.444396 0.659506
vt 0.447058 0.651314
vt 0.592772 0.368302
vt 0.587709 0.375271
vt 0.398274 0.636006
vt 0.403337 0.629037
vt 0.546650 0.344802
vt 0.543988 0.352994
vt 0.361672 0.599403
vt 0.368640 0.594340
vt 0.495523 0.336704
vt 0.495523 0.345318
vt 0.338171 0.553281
vt 0.346363 0.550619
vt 0.444396 0.344802
vt 0.447058 0.352994
vt 0.330073 0.502154
vt 0.338687 0.502154
vt 0.398274 0.368302
vt 0.403337 0.375271
vt 0.338171 0.451027
vt 0.346363 0.453689
vt 0.361672 0.404905
vt 0.368640 0.409968
vt 0.471487 0.332712
vt 0.425365 0.332712
vt 0.425365 0.001813
vt 0.471487 0.001813
vt 0.374238 0.332712
vt 0.374238 0.001813
vt 0.323111 0.332712
vt 0.323111 0.001813
vt 0.276989 0.332712
vt 0.276989 0.001813
vt 0.752534 0.001813
vt 0.798656 0.001813
vt 0.798656 0.332712
vt 0.752534 0.332712
vt 0.849783 0.001813
vt 0.849783 0.332712
vt 0.900910 0.001813
vt 0.900910 0.332712
vt 0.947032 0.001813
vt 0.947032 0.332712
vt 0.310171 0.654367
vt 0.310171 0.698088
vt 0.212674 0.698088
vt 0.212674 0.654367
vt 0.310171 0.746553
vt 0.212674 0.746553
vt 0.310171 0.795018
vt 0.212674 0.795018
vt 0.310171 0.838739
vt 0.212674 0.838739
vt 0.317917 0.855967
vt 0.317917 0.812246
vt 0.415415 0.812246
vt 0.415415 0.855967
vt 0.317917 0.763781
vt 0.415415 0.763781
vt 0.317917 0.715316
vt 0.415415 0.715316
vt 0.317917 0.671595
vt 0.415415 0.671595
vn -0.293396 0.951057 0.097005
vn -0.558074 0.809017 0.184514
vn -0.558074 0.809017 0.184514
vn -0.293396 0.951057 0.097005
vn -0.768122 0.587785 0.253962
vn -0.768122 0.587785 0.253962
vn -0.902982 0.309017 0.298550
vn -0.902982 0.309017 0.298550
vn -0.949451 -0.000000 0.313914
vn -0.949451 -0.000000 0.313914
vn -0.902982 -0.309017 0.298550
vn -0.902982 -0.309017 0.298550
vn -0.768122 -0.587785 0.253962
vn -0.768122 -0.587785 0.253962
vn -0.558073 -0.809017 0.184514
vn -0.558073 -0.809017 0.184514
vn -0.293397 -0.951057 0.097005
vn -0.293397 -0.951057 0.097005
vn -0.000000 -1.000000 -0.000000
vn -0.000000 -1.000000 -0.000000
vn 0.293397 -0.951057 -0.097005
vn 0.293397 -0.951057 -0.097005
vn 0.558074 -0.809017 -0.184514
vn 0.558074 -0.809017 -0.184514
vn 0.768122 -0.587785 -0.253962
vn 0.768122 -0.587785 -0.253962
vn 0.902982 -0.309017 -0.298550
vn 0.902982 -0.309017 -0.298550
vn 0.949451 0.000000 -0.313914
vn 0.949451 0.000000 -0.313914
vn 0.902982 0.309017 -0.298550
vn 0.902982 0.309017 -0.298550
vn 0.768122 0.587785 -0.253962
vn 0.768122 0.587785 -0.253962
vn 0.558074 0.809017 -0.184514
vn 0.558074 0.809017 -0.184514
vn 0.293397 0.951057 -0.097005
vn 0.293397 0.951057 -0.097005
vn 0.000001 1.000000 -0.000000
vn 0.000001 1.000000 -0.000000
vn -0.313914 0.000000 -0.949451
vn -0.313914 0.000000 -0.949451
vn -0.313914 0.000000 -0.949451
vn -0.313914 0.000000 -0.949451
vn -0.313914 0.000000 -0.949451
vn -0.313914 0.000000 -0.949451
vn -0.313914 0.000000 -0.949451
vn -0.313914 0.000000 -0.949451
vn -0.313914 0.000000 -0.949451
vn -0.313914 0.000000 -0.949451
vn -0.313914 0.000000 -0.949451
vn -0.313914 0.000000 -0.949451
vn -0.313914 0.000000 -0.949451
vn -0.313914 0.000000 -0.949451
vn -0.313914 0.000000 -0.949451
vn -0.313914 0.000000 -0.949451
vn -0.313914 0.000000 -0.949451
vn -0.313914 0.000000 -0.949451
vn -0.313914 0.000000 -0.949451
vn -0.313914 0.000000 -0.949451
vn -0.313914 0.000000 -0.949451
vn 0.313914 -0.000000 0.949451
vn 0.313914 -0.000000 0.949451
vn 0.313914 -0.000000 0.949451
vn 0.313914 -0.000000 0.949451
vn 0.313914 -0.000000 0.949451
vn 0.313914 -0.000000 0.949451
vn 0.313914 -0.000000 0.949451
vn 0.313914 -0.000000 0.949451
vn 0.313914 -0.000000 0.949451
vn 0.313914 -0.000000 0.949451
vn 0.313914 -0.000000 0.949451
vn 0.313914 -0.000000 0.949451
vn 0.313914 -0.000000 0.949451
vn 0.313914 -0.000000 0.949451
vn 0.313914 -0.000000 0.949451
vn 0.313914 -0.000000 0.949451
vn 0.313914 -0.000000 0.949451
vn 0.313914 -0.000000 0.949451
vn 0.313914 -0.000000 0.949451
vn 0.313914 -0.000000 0.949451
vn 0.313914 -0.000000 0.949451
vn 0.313914 -0.000000 0.949451
vn 0.313914 -0.000000 0.949451
vn 0.313914 -0.000000 0.949451
vn 0.313914 -0.000000 0.949451
vn 0.313914 -0.000000 0.949451
vn 0.313914 -0.000000 0.949451
vn 0.313914 -0.000000 0.949451
vn 0.313914 -0.000000 0.949451
vn 0.313914 -0.000000 0.949451
vn 0.313914 -0.000000 0.949451
vn 0.313914 -0.000000 0.949451
vn 0.313914 -0.000000 0.949451
vn 0.313914 -0.000000 0.949451
vn 0.313914 -0.000000 0.949451
vn 0.313914 -0.000000 0.949451
vn 0.313914 -0.000000 0.949451
vn 0.313914 -0.000000 0.949451
vn 0.313914 -0.000000 0.949451
vn 0.313914 -0.000000 0.949451
vn 0.313914 -0.000000 0.949451
vn 0.313914 -0.000000 0.949451
vn 0.313914 -0.000000 0.949451
vn 0.313914 -0.000000 0.949451
vn 0.313914 -0.000000 0.949451
vn 0.313914 -0.000000 0.949451
vn 0.313914 -0.000000 0.949451
vn 0.313914 -0.000000 0.949451
vn 0.313914 -0.000000 0.949451
vn 0.313914 -0.000000 0.949451
vn 0.313914 -0.000000 0.949451
vn 0.313914 -0.000000 0.949451
vn 0.313914 -0.000000 0.949451
vn 0.313914 -0.000000 0.949451
vn 0.313914 -0.000000 0.949451
vn 0.313914 -0.000000 0.949451
vn 0.313914 -0.000000 0.949451
vn 0.313914 -0.000000 0.949451
vn 0.313914 -0.000000 0.949451
vn 0.313914 -0.000000 0.949451
vn 0.313914 -0.000000 0.949451
vn 0.293396 -0.951057 -0.097005
vn 0.558074 -0.809017 -0.184514
vn 0.558074 -0.809017 -0.184514
vn 0.293396 -0.951057 -0.097005
vn 0.768122 -0.587785 -0.253962
vn 0.768122 -0.587785 -0.253962
vn 0.902982 -0.309017 -0.298550
vn 0.902982 -0.309017 -0.298550
vn 0.949451 0.000000 -0.313914
vn 0.949451 0.000000 -0.313914
vn 0.902982 0.309017 -0.298550
vn 0.902982 0.309017 -0.298550
vn 0.768122 0.587785 -0.253962
vn 0.768122 0.587785 -0.253962
vn 0.558073 0.809017 -0.184514
vn 0.558073 0.809017 -0.184514
vn 0.293397 0.951057 -0.097005
vn 0.293397 0.951057 -0.097005
vn 0.000000 1.000000 -0.000000
vn 0.000000 1.000000 -0.000000
vn -0.293397 0.951057 0.097005
vn -0.293397 0.951057 0.097005
vn -0.558074 0.809017 0.184514
vn -0.558074 0.809017 0.184514
vn -0.768122 0.587785 0.253962
vn -0.768122 0.587785 0.253962
vn -0.902982 0.309017 0.298550
vn -0.902982 0.309017 0.298550
vn -0.949451 0.000000 0.313914
vn -0.949451 0.000000 0.313914
vn -0.902982 -0.309017 0.298550
vn -0.902982 -0.309017 0.298550
vn -0.768122 -0.587785 0.253962
vn -0.768122 -0.587785 0.253962
vn -0.558073 -0.809017 0.184514
vn -0.558073 -0.809017 0.184514
vn -0.293397 -0.951057 0.097005
vn -0.293397 -0.951057 0.097005
vn -0.000001 -1.000000 0.000000
vn -0.000001 -1.000000 0.000000
s 1
g pCylinder1
usemtl initialShadingGroup
f 1/1/1 2/2/2 22/3/3 21/4/4
f 2/2/2 3/5/5 23/6/6 22/3/3
f 3/139/5 4/140/7 24/141/8 23/142/6
f 4/140/7 5/143/9 25/144/10 24/141/8
f 5/143/9 6/145/11 26/146/12 25/144/10
f 6/145/11 7/147/13 27/148/14 26/146/12
f 7/21/13 8/15/15 28/18/16 27/22/14
f 8/15/15 9/16/17 29/17/18 28/18/16
f 9/16/17 10/19/19 30/20/20 29/17/18
f 10/19/19 11/23/21 31/24/22 30/20/20
f 11/23/21 12/25/23 32/26/24 31/24/22
f 12/25/23 13/27/25 33/28/26 32/26/24
f 13/149/25 14/150/27 34/151/28 33/152/26
f 14/150/27 15/153/29 35/154/30 34/151/28
f 15/153/29 16/155/31 36/156/32 35/154/30
f 16/155/31 17/157/33 37/158/34 36/156/32
f 17/13/33 18/11/35 38/12/36 37/14/34
f 18/11/35 19/9/37 39/10/38 38/12/36
f 19/9/37 20/7/39 40/8/40 39/10/38
f 20/7/39 1/1/1 21/4/4 40/8/40
s 2
f 2/57/41 1/58/42 41/59/43
f 3/61/44 2/57/41 41/59/43
f 4/63/45 3/61/44 41/59/43
f 5/65/46 4/63/45 41/59/43
f 6/67/47 5/65/46 41/59/43
f 7/69/48 6/67/47 41/59/43
f 8/71/49 7/69/48 41/59/43
f 9/73/50 8/71/49 41/59/43
f 10/75/51 9/73/50 41/59/43
f 11/77/52 10/75/51 41/59/43
f 12/76/53 11/77/52 41/59/43
f 13/74/54 12/76/53 41/59/43
f 14/72/55 13/74/54 41/59/43
f 15/70/56 14/72/55 41/59/43
f 16/68/57 15/70/56 41/59/43
f 17/66/58 16/68/57 41/59/43
f 18/64/59 17/66/58 41/59/43
f 19/62/60 18/64/59 41/59/43
f 20/60/61 19/62/60 41/59/43
f 1/58/42 20/60/61 41/59/43
s 3
f 62/78/62 63/79/63 64/80/64
f 63/79/63 65/81/65 64/80/64
f 65/81/65 66/83/66 64/80/64
f 66/83/66 67/85/67 64/80/64
f 67/85/67 68/87/68 64/80/64
f 68/87/68 69/89/69 64/80/64
f 69/89/69 70/91/70 64/80/64
f 70/91/70 71/93/71 64/80/64
f 71/93/71 72/95/72 64/80/64
f 72/95/72 73/97/73 64/80/64
f 73/97/73 74/98/74 64/80/64
f 74/98/74 75/96/75 64/80/64
f 75/96/75 76/94/76 64/80/64
f 76/94/76 77/92/77 64/80/64
f 77/92/77 78/90/78 64/80/64
f 78/90/78 79/88/79 64/80/64
f 79/88/79 80/86/80 64/80/64
f 80/86/80 81/84/81 64/80/64
f 81/84/81 82/82/82 64/80/64
f 82/82/82 62/78/62 64/80/64
s 4
f 21/99/83 22/100/84 43/101/85 42/102/86
f 22/100/84 23/103/87 44/104/88 43/101/85
f 23/103/87 24/107/89 45/108/90 44/104/88
f 24/107/89 25/111/91 46/112/92 45/108/90
f 25/111/91 26/115/93 47/116/94 46/112/92
f 26/115/93 27/119/95 48/120/96 47/116/94
f 27/119/95 28/123/97 49/124/98 48/120/96
f 28/123/97 29/127/99 50/128/100 49/124/98
f 29/127/99 30/131/101 51/132/102 50/128/100
f 30/131/101 31/135/103 52/136/104 51/132/102
f 31/135/103 32/137/105 53/138/106 52/136/104
f 32/137/105 33/133/107 54/134/108 53/138/106
f 33/133/107 34/129/109 55/130/110 54/134/108
f 34/129/109 35/125/111 56/126/112 55/130/110
f 35/125/111 36/121/113 57/122/114 56/126/112
f 36/121/113 37/117/115 58/118/116 57/122/114
f 37/117/115 38/113/117 59/114/118 58/118/116
f 38/113/117 39/109/119 60/110/120 59/114/118
f 39/109/119 40/105/121 61/106/122 60/110/120
f 40/105/121 21/99/83 42/102/86 61/106/122
s 5
f 42/29/123 43/30/124 63/31/125 62/32/126
f 43/30/124 44/33/127 65/34/128 63/31/125
f 44/159/127 45/160/129 66/161/130 65/162/128
f 45/160/129 46/163/131 67/164/132 66/161/130
f 46/163/131 47/165/133 68/166/134 67/164/132
f 47/165/133 48/167/135 69/168/136 68/166/134
f 48/49/135 49/43/137 70/46/138 69/50/136
f 49/43/137 50/44/139 71/45/140 70/46/138
f 50/44/139 51/47/141 72/48/142 71/45/140
f 51/47/141 52/51/143 73/52/144 72/48/142
f 52/51/143 53/53/145 74/54/146 73/52/144
f 53/53/145 54/55/147 75/56/148 74/54/146
f 54/169/147 55/170/149 76/171/150 75/172/148
f 55/170/149 56/173/151 77/174/152 76/171/150
f 56/173/151 57/175/153 78/176/154 77/174/152
f 57/175/153 58/177/155 79/178/156 78/176/154
f 58/41/155 59/39/157 80/40/158 79/42/156
f 59/39/157 60/37/159 81/38/160 80/40/158
f 60/37/159 61/35/161 82/36/162 81/38/160
f 61/35/161 42/29/123 62/32/126 82/36/162
