# This file uses centimeters as units for non-parametric coordinates.

mtllib door 21.mtl
g default
v 32.872359 0.008206 1.056561
v 12.357506 0.008206 -59.960047
v 12.357506 64.639755 -59.960047
v 12.385717 89.150368 -59.876140
v 12.569099 93.546181 -59.330717
v 12.728489 95.856247 -58.856648
v 12.934228 97.989624 -58.244719
v 13.290861 100.670456 -57.184003
v 13.758437 103.386208 -55.793310
v 14.331753 106.079002 -54.088119
v 15.005601 108.690941 -52.083917
v 15.774775 111.164131 -49.796183
v 16.634075 113.440689 -47.240402
v 17.578289 115.462723 -44.432058
v 18.602215 117.172348 -41.386627
v 19.419339 118.214714 -38.956283
v 20.276177 119.024361 -36.407822
v 21.170532 119.576866 -33.747771
v 22.100208 119.847801 -30.982672
v 23.063010 119.812752 -28.119042
v 24.056740 119.447296 -25.163428
v 25.290088 118.589432 -21.495121
v 26.428723 117.396027 -18.108521
v 27.272837 116.210678 -15.597903
v 28.058732 114.829422 -13.260440
v 28.787477 113.260628 -11.092960
v 29.460138 111.512657 -9.092290
v 30.077778 109.593887 -7.255262
v 30.774087 106.968002 -5.184259
v 31.388175 104.104668 -3.357798
v 31.922127 101.020256 -1.769681
v 32.378026 97.731094 -0.413719
v 32.582976 95.745399 0.195856
v 32.770596 92.989151 0.753890
v 32.925750 88.718903 1.215357
v 32.960657 77.232277 1.319178
v 32.872359 65.932381 1.056561
v 36.139647 0.008206 -0.041958
v 15.624793 0.008206 -61.058567
v 15.624793 64.639755 -61.058567
v 15.653005 89.150368 -60.974659
v 15.836387 93.546181 -60.429236
v 15.995777 95.856247 -59.955167
v 16.201516 97.989624 -59.343238
v 16.558148 100.670456 -58.282523
v 17.025724 103.386208 -56.891829
v 17.599040 106.079002 -55.186639
v 18.272886 108.690941 -53.182433
v 19.042062 111.164131 -50.894702
v 19.901362 113.440689 -48.338922
v 20.845575 115.462723 -45.530576
v 21.869502 117.172348 -42.485147
v 22.686627 118.214714 -40.054802
v 23.543465 119.024361 -37.506342
v 24.437820 119.576866 -34.846290
v 25.367495 119.847801 -32.081191
v 26.330297 119.812752 -29.217561
v 27.324028 119.447296 -26.261948
v 28.557375 118.589432 -22.593641
v 29.696010 117.396027 -19.207040
v 30.540124 116.210678 -16.696423
v 31.326020 114.829422 -14.358959
v 32.054765 113.260628 -12.191479
v 32.727425 111.512657 -10.190809
v 33.345066 109.593887 -8.353781
v 34.041373 106.968002 -6.282780
v 34.655461 104.104668 -4.456318
v 35.189413 101.020256 -2.868201
v 35.645314 97.731094 -1.512238
v 35.850263 95.745399 -0.902663
v 36.037883 92.989151 -0.344629
v 36.193037 88.718903 0.116837
v 36.227945 77.232277 0.220658
v 36.139647 65.932381 -0.041958
v 32.872359 0.008206 1.056561
v 12.357506 0.008206 -59.960047
v 12.357506 64.639755 -59.960047
v 12.385717 89.150368 -59.876140
v 12.569099 93.546181 -59.330717
v 12.728489 95.856247 -58.856648
v 12.934228 97.989624 -58.244719
v 13.290861 100.670456 -57.184003
v 13.758437 103.386208 -55.793310
v 14.331753 106.079002 -54.088119
v 15.005601 108.690941 -52.083917
v 15.774775 111.164131 -49.796183
v 16.634075 113.440689 -47.240402
v 17.578289 115.462723 -44.432058
v 18.602215 117.172348 -41.386627
v 19.419339 118.214714 -38.956283
v 20.276177 119.024361 -36.407822
v 21.170532 119.576866 -33.747771
v 22.100208 119.847801 -30.982672
v 23.063010 119.812752 -28.119042
v 24.056740 119.447296 -25.163428
v 25.290088 118.589432 -21.495121
v 26.428723 117.396027 -18.108521
v 27.272837 116.210678 -15.597903
v 28.058732 114.829422 -13.260440
v 28.787477 113.260628 -11.092960
v 29.460138 111.512657 -9.092290
v 30.077778 109.593887 -7.255262
v 30.774087 106.968002 -5.184259
v 31.388175 104.104668 -3.357798
v 31.922127 101.020256 -1.769681
v 32.378026 97.731094 -0.413719
v 32.582976 95.745399 0.195856
v 32.770596 92.989151 0.753890
v 32.925750 88.718903 1.215357
v 32.960657 77.232277 1.319178
v 32.872359 65.932381 1.056561
v 36.139647 0.008206 -0.041958
v 15.624793 0.008206 -61.058567
v 15.624793 64.639755 -61.058567
v 15.653005 89.150368 -60.974659
v 15.836387 93.546181 -60.429236
v 15.995777 95.856247 -59.955167
v 16.201516 97.989624 -59.343238
v 16.558148 100.670456 -58.282523
v 17.025724 103.386208 -56.891829
v 17.599040 106.079002 -55.186639
v 18.272886 108.690941 -53.182433
v 19.042062 111.164131 -50.894702
v 19.901362 113.440689 -48.338922
v 20.845575 115.462723 -45.530576
v 21.869502 117.172348 -42.485147
v 22.686627 118.214714 -40.054802
v 23.543465 119.024361 -37.506342
v 24.437820 119.576866 -34.846290
v 25.367495 119.847801 -32.081191
v 26.330297 119.812752 -29.217561
v 27.324028 119.447296 -26.261948
v 28.557375 118.589432 -22.593641
v 29.696010 117.396027 -19.207040
v 30.540124 116.210678 -16.696423
v 31.326020 114.829422 -14.358959
v 32.054765 113.260628 -12.191479
v 32.727425 111.512657 -10.190809
v 33.345066 109.593887 -8.353781
v 34.041373 106.968002 -6.282780
v 34.655461 104.104668 -4.456318
v 35.189413 101.020256 -2.868201
v 35.645314 97.731094 -1.512238
v 35.850263 95.745399 -0.902663
v 36.037883 92.989151 -0.344629
v 36.193037 88.718903 0.116837
v 36.227945 77.232277 0.220658
v 36.139647 65.932381 -0.041958
vt 0.730902 0.510870
vt 0.732908 0.592687
vt 0.732115 0.675857
vt 0.728590 0.706776
vt 0.724327 0.726733
vt 0.719671 0.741110
vt 0.709313 0.764925
vt 0.697181 0.787258
vt 0.683229 0.807991
vt 0.667409 0.827003
vt 0.653376 0.840896
vt 0.638094 0.853553
vt 0.621536 0.864912
vt 0.603681 0.874913
vt 0.584503 0.883495
vt 0.558633 0.892136
vt 0.530611 0.898348
vt 0.508034 0.900994
vt 0.486159 0.901248
vt 0.465037 0.899286
vt 0.444717 0.895285
vt 0.425250 0.889423
vt 0.406685 0.881876
vt 0.383421 0.869497
vt 0.361969 0.854856
vt 0.342445 0.838373
vt 0.324970 0.820466
vt 0.309660 0.801554
vt 0.296634 0.782056
vt 0.286011 0.762393
vt 0.277908 0.742982
vt 0.273234 0.727535
vt 0.269612 0.710809
vt 0.265446 0.678981
vt 0.264805 0.501510
vt 0.264805 0.033541
vt 0.730902 0.033541
vt 0.264805 0.033541
vt 0.264805 0.501510
vt 0.265446 0.678981
vt 0.269612 0.710809
vt 0.273234 0.727535
vt 0.277908 0.742982
vt 0.286011 0.762393
vt 0.296634 0.782056
vt 0.309660 0.801554
vt 0.324970 0.820466
vt 0.342445 0.838373
vt 0.361969 0.854856
vt 0.383421 0.869497
vt 0.406685 0.881876
vt 0.425250 0.889423
vt 0.444717 0.895285
vt 0.465037 0.899286
vt 0.486159 0.901248
vt 0.508034 0.900994
vt 0.530611 0.898348
vt 0.558633 0.892136
vt 0.584503 0.883495
vt 0.603681 0.874913
vt 0.621536 0.864912
vt 0.638094 0.853553
vt 0.653376 0.840896
vt 0.667409 0.827003
vt 0.683229 0.807991
vt 0.697181 0.787258
vt 0.709313 0.764925
vt 0.719671 0.741110
vt 0.724327 0.726733
vt 0.728590 0.706776
vt 0.732115 0.675857
vt 0.732908 0.592687
vt 0.730902 0.510870
vt 0.730902 0.033541
vt 0.255234 0.018128
vt 0.255234 0.018128
vt 0.735657 0.018128
vt 0.735657 0.018128
vt 0.382648 0.471476
vt 0.402483 0.471476
vt 0.402483 0.099572
vt 0.382648 0.099572
vt 0.382648 0.612516
vt 0.402483 0.612516
vt 0.382648 0.637811
vt 0.402483 0.637811
vt 0.382648 0.651103
vt 0.402483 0.651103
vt 0.382648 0.663379
vt 0.402483 0.663379
vt 0.382648 0.678805
vt 0.402483 0.678805
vt 0.382648 0.694432
vt 0.402483 0.694432
vt 0.382648 0.709927
vt 0.402483 0.709927
vt 0.382648 0.724957
vt 0.402483 0.724957
vt 0.382648 0.739188
vt 0.402483 0.739188
vt 0.382648 0.752288
vt 0.402483 0.752288
vt 0.382648 0.763923
vt 0.402483 0.763923
vt 0.382648 0.773761
vt 0.402483 0.773761
vt 0.382648 0.779759
vt 0.402483 0.779759
vt 0.382648 0.784418
vt 0.402483 0.784418
vt 0.382648 0.787597
vt 0.402483 0.787597
vt 0.382648 0.789156
vt 0.402483 0.789156
vt 0.382648 0.788954
vt 0.402483 0.788954
vt 0.382648 0.786851
vt 0.402483 0.786851
vt 0.382648 0.781915
vt 0.402483 0.781915
vt 0.382648 0.775048
vt 0.402483 0.775048
vt 0.382648 0.768227
vt 0.402483 0.768227
vt 0.382648 0.760279
vt 0.402483 0.760279
vt 0.382648 0.751252
vt 0.402483 0.751252
vt 0.382648 0.741194
vt 0.402483 0.741194
vt 0.382648 0.730153
vt 0.402483 0.730153
vt 0.382648 0.715043
vt 0.402483 0.715043
vt 0.382648 0.698567
vt 0.402483 0.698567
vt 0.382648 0.680818
vt 0.402483 0.680818
vt 0.382648 0.661892
vt 0.402483 0.661892
vt 0.382648 0.650465
vt 0.402483 0.650465
vt 0.382648 0.634605
vt 0.402483 0.634605
vt 0.382648 0.610033
vt 0.402483 0.610033
vt 0.382648 0.543937
vt 0.402483 0.543937
vt 0.382648 0.478915
vt 0.402483 0.478915
vt 0.382648 0.099572
vt 0.402483 0.099572
vn -0.947860 0.000000 0.318687
vn -0.947860 0.000000 0.318687
vn -0.947860 0.000000 0.318687
vn -0.947860 0.000000 0.318687
vn -0.947860 0.000000 0.318687
vn -0.947860 0.000000 0.318687
vn -0.947860 0.000000 0.318687
vn -0.947860 0.000000 0.318687
vn -0.947860 0.000000 0.318687
vn -0.947860 0.000000 0.318687
vn -0.947860 0.000000 0.318687
vn -0.947860 0.000000 0.318687
vn -0.947860 0.000000 0.318687
vn -0.947860 0.000000 0.318687
vn -0.947860 0.000000 0.318687
vn -0.947860 0.000000 0.318687
vn -0.947860 0.000000 0.318687
vn -0.947860 0.000000 0.318687
vn -0.947860 0.000000 0.318687
vn -0.947860 0.000000 0.318687
vn -0.947860 0.000000 0.318687
vn -0.947860 0.000000 0.318687
vn -0.947860 0.000000 0.318687
vn -0.947860 0.000000 0.318687
vn -0.947860 0.000000 0.318687
vn -0.947860 0.000000 0.318687
vn -0.947860 0.000000 0.318687
vn -0.947860 0.000000 0.318687
vn -0.947860 0.000000 0.318687
vn -0.947860 0.000000 0.318687
vn -0.947860 0.000000 0.318687
vn -0.947860 0.000000 0.318687
vn -0.947860 0.000000 0.318687
vn -0.947860 0.000000 0.318687
vn -0.947860 0.000000 0.318687
vn -0.947860 0.000000 0.318687
vn -0.947860 0.000000 0.318687
vn 0.947860 0.000000 -0.318687
vn 0.947860 0.000000 -0.318687
vn 0.947860 0.000000 -0.318687
vn 0.947860 0.000000 -0.318687
vn 0.947860 0.000000 -0.318687
vn 0.947860 0.000000 -0.318687
vn 0.947860 0.000000 -0.318687
vn 0.947860 0.000000 -0.318687
vn 0.947860 0.000000 -0.318687
vn 0.947860 0.000000 -0.318687
vn 0.947860 0.000000 -0.318687
vn 0.947860 0.000000 -0.318687
vn 0.947860 0.000000 -0.318687
vn 0.947860 0.000000 -0.318687
vn 0.947860 0.000000 -0.318687
vn 0.947860 0.000000 -0.318687
vn 0.947860 0.000000 -0.318687
vn 0.947860 0.000000 -0.318687
vn 0.947860 0.000000 -0.318687
vn 0.947860 0.000000 -0.318687
vn 0.947860 0.000000 -0.318687
vn 0.947860 0.000000 -0.318687
vn 0.947860 0.000000 -0.318687
vn 0.947860 0.000000 -0.318687
vn 0.947860 0.000000 -0.318687
vn 0.947860 0.000000 -0.318687
vn 0.947860 0.000000 -0.318687
vn 0.947860 0.000000 -0.318687
vn 0.947860 0.000000 -0.318687
vn 0.947860 0.000000 -0.318687
vn 0.947860 0.000000 -0.318687
vn 0.947860 0.000000 -0.318687
vn 0.947860 0.000000 -0.318687
vn 0.947860 0.000000 -0.318687
vn 0.947860 0.000000 -0.318687
vn 0.947860 0.000000 -0.318687
vn 0.947860 0.000000 -0.318687
vn 0.000000 -1.000000 0.000000
vn 0.000000 -1.000000 0.000000
vn 0.000000 -1.000000 0.000000
vn 0.000000 -1.000000 0.000000
vn -0.318687 0.000000 -0.947860
vn -0.318687 0.000000 -0.947860
vn -0.318687 0.000000 -0.947860
vn -0.318687 0.000000 -0.947860
vn -0.318685 0.003612 -0.947854
vn -0.318685 0.003612 -0.947854
vn -0.318685 0.003612 -0.947854
vn -0.318685 0.003612 -0.947854
vn -0.315992 0.129796 -0.939842
vn -0.315992 0.129796 -0.939842
vn -0.315992 0.129796 -0.939842
vn -0.315992 0.129796 -0.939842
vn -0.311470 0.211605 -0.926396
vn -0.311470 0.211605 -0.926396
vn -0.311470 0.211605 -0.926396
vn -0.311470 0.211605 -0.926396
vn -0.305027 0.289641 -0.907230
vn -0.305027 0.289641 -0.907230
vn -0.305027 0.289641 -0.907230
vn -0.305027 0.289641 -0.907230
vn -0.294092 0.385217 -0.874710
vn -0.294092 0.385217 -0.874710
vn -0.294092 0.385217 -0.874710
vn -0.294092 0.385217 -0.874710
vn -0.280385 0.475321 -0.833939
vn -0.280385 0.475321 -0.833939
vn -0.280385 0.475321 -0.833939
vn -0.280385 0.475321 -0.833939
vn -0.264991 0.555512 -0.788154
vn -0.264991 0.555512 -0.788154
vn -0.264991 0.555512 -0.788154
vn -0.264991 0.555512 -0.788154
vn -0.247698 0.629202 -0.736716
vn -0.247698 0.629202 -0.736716
vn -0.247698 0.629202 -0.736716
vn -0.247698 0.629202 -0.736716
vn -0.228078 0.698429 -0.678364
vn -0.228078 0.698429 -0.678364
vn -0.228078 0.698429 -0.678364
vn -0.228078 0.698429 -0.678364
vn -0.205591 0.764083 -0.611481
vn -0.205591 0.764083 -0.611481
vn -0.205591 0.764083 -0.611481
vn -0.205591 0.764083 -0.611481
vn -0.179645 0.825977 -0.534312
vn -0.179645 0.825977 -0.534312
vn -0.179645 0.825977 -0.534312
vn -0.179645 0.825977 -0.534312
vn -0.149701 0.882803 -0.445250
vn -0.149701 0.882803 -0.445250
vn -0.149701 0.882803 -0.445250
vn -0.149701 0.882803 -0.445250
vn -0.120018 0.926376 -0.356965
vn -0.120018 0.926376 -0.356965
vn -0.120018 0.926376 -0.356965
vn -0.120018 0.926376 -0.356965
vn -0.091892 0.957526 -0.273312
vn -0.091892 0.957526 -0.273312
vn -0.091892 0.957526 -0.273312
vn -0.091892 0.957526 -0.273312
vn -0.061560 0.981166 -0.183095
vn -0.061560 0.981166 -0.183095
vn -0.061560 0.981166 -0.183095
vn -0.061560 0.981166 -0.183095
vn -0.029471 0.995715 -0.087656
vn -0.029471 0.995715 -0.087656
vn -0.029471 0.995715 -0.087656
vn -0.029471 0.995715 -0.087656
vn 0.003697 0.999933 0.010996
vn 0.003697 0.999933 0.010996
vn 0.003697 0.999933 0.010996
vn 0.003697 0.999933 0.010996
vn 0.037097 0.993202 0.110335
vn 0.037097 0.993202 0.110335
vn 0.037097 0.993202 0.110335
vn 0.037097 0.993202 0.110335
vn 0.068968 0.976302 0.205128
vn 0.068968 0.976302 0.205128
vn 0.068968 0.976302 0.205128
vn 0.068968 0.976302 0.205128
vn 0.100964 0.948488 0.300294
vn 0.100964 0.948488 0.300294
vn 0.100964 0.948488 0.300294
vn 0.100964 0.948488 0.300294
vn 0.130177 0.912768 0.387181
vn 0.130177 0.912768 0.387181
vn 0.130177 0.912768 0.387181
vn 0.130177 0.912768 0.387181
vn 0.155735 0.872465 0.463197
vn 0.155735 0.872465 0.463197
vn 0.155735 0.872465 0.463197
vn 0.155735 0.872465 0.463197
vn 0.180287 0.824600 0.536220
vn 0.180287 0.824600 0.536220
vn 0.180287 0.824600 0.536220
vn 0.180287 0.824600 0.536220
vn 0.203265 0.770187 0.604562
vn 0.203265 0.770187 0.604562
vn 0.203265 0.770187 0.604562
vn 0.203265 0.770187 0.604562
vn 0.224215 0.710638 0.666874
vn 0.224215 0.710638 0.666874
vn 0.224215 0.710638 0.666874
vn 0.224215 0.710638 0.666874
vn 0.244975 0.639610 0.728620
vn 0.244975 0.639610 0.728620
vn 0.244975 0.639610 0.728620
vn 0.244975 0.639610 0.728620
vn 0.264392 0.558315 0.786372
vn 0.264392 0.558315 0.786372
vn 0.264392 0.558315 0.786372
vn 0.264392 0.558315 0.786372
vn 0.280039 0.477329 0.832908
vn 0.280039 0.477329 0.832908
vn 0.280039 0.477329 0.832908
vn 0.280039 0.477329 0.832908
vn 0.292243 0.398840 0.869207
vn 0.292243 0.398840 0.869207
vn 0.292243 0.398840 0.869207
vn 0.292243 0.398840 0.869207
vn 0.303183 0.308114 0.901746
vn 0.303183 0.308114 0.901746
vn 0.303183 0.308114 0.901746
vn 0.303183 0.308114 0.901746
vn 0.311657 0.208885 0.926950
vn 0.311657 0.208885 0.926950
vn 0.311657 0.208885 0.926950
vn 0.311657 0.208885 0.926950
vn 0.316636 0.113278 0.941759
vn 0.316636 0.113278 0.941759
vn 0.316636 0.113278 0.941759
vn 0.316636 0.113278 0.941759
vn 0.318672 0.009534 0.947817
vn 0.318672 0.009534 0.947817
vn 0.318672 0.009534 0.947817
vn 0.318672 0.009534 0.947817
vn 0.318591 -0.024511 0.947575
vn 0.318591 -0.024511 0.947575
vn 0.318591 -0.024511 0.947575
vn 0.318591 -0.024511 0.947575
vn 0.318687 0.000000 0.947860
vn 0.318687 0.000000 0.947860
vn 0.318687 0.000000 0.947860
vn 0.318687 0.000000 0.947860
s off
g door_10:Mesh
usemtl initialShadingGroup
f 111/1/1 110/2/2 109/3/3 108/4/4 107/5/5 106/6/6 105/7/7 104/8/8 103/9/9 102/10/10 101/11/11 100/12/12 99/13/13 98/14/14 97/15/15 96/16/16 95/17/17 94/18/18 93/19/19 92/20/20 91/21/21 90/22/22 89/23/23 88/24/24 87/25/25 86/26/26 85/27/27 84/28/28 83/29/29 82/30/30 81/31/31 80/32/32 79/33/33 78/34/34 77/35/35 76/36/36 75/37/37
f 113/38/38 114/39/39 115/40/40 116/41/41 117/42/42 118/43/43 119/44/44 120/45/45 121/46/46 122/47/47 123/48/48 124/49/49 125/50/50 126/51/51 127/52/52 128/53/53 129/54/54 130/55/55 131/56/56 132/57/57 133/58/58 134/59/59 135/60/60 136/61/61 137/62/62 138/63/63 139/64/64 140/65/65 141/66/66 142/67/67 143/68/68 144/69/69 145/70/70 146/71/71 147/72/72 148/73/73 112/74/74
f 2/75/75 39/76/76 38/77/77 1/78/78
f 3/79/79 40/80/80 39/81/81 2/82/82
f 4/83/83 41/84/84 40/80/85 3/79/86
f 5/85/87 42/86/88 41/84/89 4/83/90
f 6/87/91 43/88/92 42/86/93 5/85/94
f 7/89/95 44/90/96 43/88/97 6/87/98
f 8/91/99 45/92/100 44/90/101 7/89/102
f 9/93/103 46/94/104 45/92/105 8/91/106
f 10/95/107 47/96/108 46/94/109 9/93/110
f 11/97/111 48/98/112 47/96/113 10/95/114
f 12/99/115 49/100/116 48/98/117 11/97/118
f 13/101/119 50/102/120 49/100/121 12/99/122
f 14/103/123 51/104/124 50/102/125 13/101/126
f 15/105/127 52/106/128 51/104/129 14/103/130
f 16/107/131 53/108/132 52/106/133 15/105/134
f 17/109/135 54/110/136 53/108/137 16/107/138
f 18/111/139 55/112/140 54/110/141 17/109/142
f 19/113/143 56/114/144 55/112/145 18/111/146
f 20/115/147 57/116/148 56/114/149 19/113/150
f 21/117/151 58/118/152 57/116/153 20/115/154
f 22/119/155 59/120/156 58/118/157 21/117/158
f 23/121/159 60/122/160 59/120/161 22/119/162
f 24/123/163 61/124/164 60/122/165 23/121/166
f 25/125/167 62/126/168 61/124/169 24/123/170
f 26/127/171 63/128/172 62/126/173 25/125/174
f 27/129/175 64/130/176 63/128/177 26/127/178
f 28/131/179 65/132/180 64/130/181 27/129/182
f 29/133/183 66/134/184 65/132/185 28/131/186
f 30/135/187 67/136/188 66/134/189 29/133/190
f 31/137/191 68/138/192 67/136/193 30/135/194
f 32/139/195 69/140/196 68/138/197 31/137/198
f 33/141/199 70/142/200 69/140/201 32/139/202
f 34/143/203 71/144/204 70/142/205 33/141/206
f 35/145/207 72/146/208 71/144/209 34/143/210
f 36/147/211 73/148/212 72/146/213 35/145/214
f 37/149/215 74/150/216 73/148/217 36/147/218
f 1/151/219 38/152/220 74/150/221 37/149/222
