# This file uses centimeters as units for non-parametric coordinates.

mtllib door 6.mtl
g default
v 35.759728 0.008206 0.648265
v -25.951230 0.008206 -17.672304
v -25.951230 64.639755 -17.672304
v -25.866368 89.150368 -17.647110
v -25.314737 93.546181 -17.483346
v -24.835274 95.856247 -17.341003
v -24.216382 97.989624 -17.157266
v -23.143595 100.670456 -16.838782
v -21.737076 103.386208 -16.421219
v -20.012481 106.079002 -15.909227
v -17.985471 108.690941 -15.307454
v -15.671704 111.164131 -14.620548
v -13.086839 113.440689 -13.853162
v -10.246536 115.462723 -13.009941
v -7.166451 117.172348 -12.095533
v -4.708450 118.214714 -11.365809
v -2.130988 119.024361 -10.600620
v 0.559334 119.576866 -9.801925
v 3.355899 119.847801 -8.971689
v 6.252116 119.812752 -8.111868
v 9.241364 119.447296 -7.224430
v 12.951415 118.589432 -6.123000
v 16.376554 117.396027 -5.106156
v 18.915742 116.210678 -4.352329
v 21.279804 114.829422 -3.650493
v 23.471949 113.260628 -2.999695
v 25.495386 111.512657 -2.398983
v 27.353319 109.593887 -1.847404
v 29.447890 106.968002 -1.225576
v 31.295136 104.104668 -0.677170
v 32.901325 101.020256 -0.200329
v 34.272718 97.731094 0.206805
v 34.889230 95.745399 0.389833
v 35.453613 92.989151 0.557387
v 35.920332 88.718903 0.695944
v 36.025335 77.232277 0.727116
v 35.759728 65.932381 0.648265
v 36.740749 0.008206 -2.656203
v -24.970209 0.008206 -20.976772
v -24.970209 64.639755 -20.976772
v -24.885347 89.150368 -20.951579
v -24.333717 93.546181 -20.787814
v -23.854253 95.856247 -20.645472
v -23.235361 97.989624 -20.461735
v -22.162575 100.670456 -20.143250
v -20.756055 103.386208 -19.725688
v -19.031460 106.079002 -19.213695
v -17.004449 108.690941 -18.611919
v -14.690684 111.164131 -17.925016
v -12.105818 113.440689 -17.157631
v -9.265515 115.462723 -16.314408
v -6.185430 117.172348 -15.400001
v -3.727429 118.214714 -14.670277
v -1.149967 119.024361 -13.905089
v 1.540354 119.576866 -13.106393
v 4.336920 119.847801 -12.276158
v 7.233137 119.812752 -11.416337
v 10.222385 119.447296 -10.528899
v 13.932436 118.589432 -9.427468
v 17.357575 117.396027 -8.410623
v 19.896762 116.210678 -7.656797
v 22.260825 114.829422 -6.954960
v 24.452970 113.260628 -6.304163
v 26.476407 111.512657 -5.703451
v 28.334340 109.593887 -5.151873
v 30.428909 106.968002 -4.530043
v 32.276155 104.104668 -3.981638
v 33.882344 101.020256 -3.504797
v 35.253739 97.731094 -3.097664
v 35.870251 95.745399 -2.914635
v 36.434634 92.989151 -2.747082
v 36.901353 88.718903 -2.608525
v 37.006355 77.232277 -2.577352
v 36.740749 65.932381 -2.656203
v 35.759728 0.008206 0.648265
v -25.951230 0.008206 -17.672304
v -25.951230 64.639755 -17.672304
v -25.866368 89.150368 -17.647110
v -25.314737 93.546181 -17.483346
v -24.835274 95.856247 -17.341003
v -24.216382 97.989624 -17.157266
v -23.143595 100.670456 -16.838782
v -21.737076 103.386208 -16.421219
v -20.012481 106.079002 -15.909227
v -17.985471 108.690941 -15.307454
v -15.671704 111.164131 -14.620548
v -13.086839 113.440689 -13.853162
v -10.246536 115.462723 -13.009941
v -7.166451 117.172348 -12.095533
v -4.708450 118.214714 -11.365809
v -2.130988 119.024361 -10.600620
v 0.559334 119.576866 -9.801925
v 3.355899 119.847801 -8.971689
v 6.252116 119.812752 -8.111868
v 9.241364 119.447296 -7.224430
v 12.951415 118.589432 -6.123000
v 16.376554 117.396027 -5.106156
v 18.915742 116.210678 -4.352329
v 21.279804 114.829422 -3.650493
v 23.471949 113.260628 -2.999695
v 25.495386 111.512657 -2.398983
v 27.353319 109.593887 -1.847404
v 29.447890 106.968002 -1.225576
v 31.295136 104.104668 -0.677170
v 32.901325 101.020256 -0.200329
v 34.272718 97.731094 0.206805
v 34.889230 95.745399 0.389833
v 35.453613 92.989151 0.557387
v 35.920332 88.718903 0.695944
v 36.025335 77.232277 0.727116
v 35.759728 65.932381 0.648265
v 36.740749 0.008206 -2.656203
v -24.970209 0.008206 -20.976772
v -24.970209 64.639755 -20.976772
v -24.885347 89.150368 -20.951579
v -24.333717 93.546181 -20.787814
v -23.854253 95.856247 -20.645472
v -23.235361 97.989624 -20.461735
v -22.162575 100.670456 -20.143250
v -20.756055 103.386208 -19.725688
v -19.031460 106.079002 -19.213695
v -17.004449 108.690941 -18.611919
v -14.690684 111.164131 -17.925016
v -12.105818 113.440689 -17.157631
v -9.265515 115.462723 -16.314408
v -6.185430 117.172348 -15.400001
v -3.727429 118.214714 -14.670277
v -1.149967 119.024361 -13.905089
v 1.540354 119.576866 -13.106393
v 4.336920 119.847801 -12.276158
v 7.233137 119.812752 -11.416337
v 10.222385 119.447296 -10.528899
v 13.932436 118.589432 -9.427468
v 17.357575 117.396027 -8.410623
v 19.896762 116.210678 -7.656797
v 22.260825 114.829422 -6.954960
v 24.452970 113.260628 -6.304163
v 26.476407 111.512657 -5.703451
v 28.334340 109.593887 -5.151873
v 30.428909 106.968002 -4.530043
v 32.276155 104.104668 -3.981638
v 33.882344 101.020256 -3.504797
v 35.253739 97.731094 -3.097664
v 35.870251 95.745399 -2.914635
v 36.434634 92.989151 -2.747082
v 36.901353 88.718903 -2.608525
v 37.006355 77.232277 -2.577352
v 36.740749 65.932381 -2.656203
vt 0.730902 0.510870
vt 0.732908 0.592687
vt 0.732115 0.675857
vt 0.728590 0.706776
vt 0.724327 0.726733
vt 0.719671 0.741110
vt 0.709313 0.764925
vt 0.697181 0.787258
vt 0.683229 0.807991
vt 0.667409 0.827003
vt 0.653376 0.840896
vt 0.638094 0.853553
vt 0.621536 0.864912
vt 0.603681 0.874913
vt 0.584503 0.883495
vt 0.558633 0.892136
vt 0.530611 0.898348
vt 0.508034 0.900994
vt 0.486159 0.901248
vt 0.465037 0.899286
vt 0.444717 0.895285
vt 0.425250 0.889423
vt 0.406685 0.881876
vt 0.383421 0.869497
vt 0.361969 0.854856
vt 0.342445 0.838373
vt 0.324970 0.820466
vt 0.309660 0.801554
vt 0.296634 0.782056
vt 0.286011 0.762393
vt 0.277908 0.742982
vt 0.273234 0.727535
vt 0.269612 0.710809
vt 0.265446 0.678981
vt 0.264805 0.501510
vt 0.264805 0.033541
vt 0.730902 0.033541
vt 0.264805 0.033541
vt 0.264805 0.501510
vt 0.265446 0.678981
vt 0.269612 0.710809
vt 0.273234 0.727535
vt 0.277908 0.742982
vt 0.286011 0.762393
vt 0.296634 0.782056
vt 0.309660 0.801554
vt 0.324970 0.820466
vt 0.342445 0.838373
vt 0.361969 0.854856
vt 0.383421 0.869497
vt 0.406685 0.881876
vt 0.425250 0.889423
vt 0.444717 0.895285
vt 0.465037 0.899286
vt 0.486159 0.901248
vt 0.508034 0.900994
vt 0.530611 0.898348
vt 0.558633 0.892136
vt 0.584503 0.883495
vt 0.603681 0.874913
vt 0.621536 0.864912
vt 0.638094 0.853553
vt 0.653376 0.840896
vt 0.667409 0.827003
vt 0.683229 0.807991
vt 0.697181 0.787258
vt 0.709313 0.764925
vt 0.719671 0.741110
vt 0.724327 0.726733
vt 0.728590 0.706776
vt 0.732115 0.675857
vt 0.732908 0.592687
vt 0.730902 0.510870
vt 0.730902 0.033541
vt 0.255234 0.018128
vt 0.255234 0.018128
vt 0.735657 0.018128
vt 0.735657 0.018128
vt 0.382648 0.471476
vt 0.402483 0.471476
vt 0.402483 0.099572
vt 0.382648 0.099572
vt 0.382648 0.612516
vt 0.402483 0.612516
vt 0.382648 0.637811
vt 0.402483 0.637811
vt 0.382648 0.651103
vt 0.402483 0.651103
vt 0.382648 0.663379
vt 0.402483 0.663379
vt 0.382648 0.678805
vt 0.402483 0.678805
vt 0.382648 0.694432
vt 0.402483 0.694432
vt 0.382648 0.709927
vt 0.402483 0.709927
vt 0.382648 0.724957
vt 0.402483 0.724957
vt 0.382648 0.739188
vt 0.402483 0.739188
vt 0.382648 0.752288
vt 0.402483 0.752288
vt 0.382648 0.763923
vt 0.402483 0.763923
vt 0.382648 0.773761
vt 0.402483 0.773761
vt 0.382648 0.779759
vt 0.402483 0.779759
vt 0.382648 0.784418
vt 0.402483 0.784418
vt 0.382648 0.787597
vt 0.402483 0.787597
vt 0.382648 0.789156
vt 0.402483 0.789156
vt 0.382648 0.788954
vt 0.402483 0.788954
vt 0.382648 0.786851
vt 0.402483 0.786851
vt 0.382648 0.781915
vt 0.402483 0.781915
vt 0.382648 0.775048
vt 0.402483 0.775048
vt 0.382648 0.768227
vt 0.402483 0.768227
vt 0.382648 0.760279
vt 0.402483 0.760279
vt 0.382648 0.751252
vt 0.402483 0.751252
vt 0.382648 0.741194
vt 0.402483 0.741194
vt 0.382648 0.730153
vt 0.402483 0.730153
vt 0.382648 0.715043
vt 0.402483 0.715043
vt 0.382648 0.698567
vt 0.402483 0.698567
vt 0.382648 0.680818
vt 0.402483 0.680818
vt 0.382648 0.661892
vt 0.402483 0.661892
vt 0.382648 0.650465
vt 0.402483 0.650465
vt 0.382648 0.634605
vt 0.402483 0.634605
vt 0.382648 0.610033
vt 0.402483 0.610033
vt 0.382648 0.543937
vt 0.402483 0.543937
vt 0.382648 0.478915
vt 0.402483 0.478915
vt 0.382648 0.099572
vt 0.402483 0.099572
vn -0.284600 0.000000 0.958646
vn -0.284600 0.000000 0.958646
vn -0.284600 0.000000 0.958646
vn -0.284600 0.000000 0.958646
vn -0.284600 0.000000 0.958646
vn -0.284600 0.000000 0.958646
vn -0.284600 0.000000 0.958646
vn -0.284600 0.000000 0.958646
vn -0.284600 0.000000 0.958646
vn -0.284600 0.000000 0.958646
vn -0.284600 0.000000 0.958646
vn -0.284600 0.000000 0.958646
vn -0.284600 0.000000 0.958646
vn -0.284600 0.000000 0.958646
vn -0.284600 0.000000 0.958646
vn -0.284600 0.000000 0.958646
vn -0.284600 0.000000 0.958646
vn -0.284600 0.000000 0.958646
vn -0.284600 0.000000 0.958646
vn -0.284600 0.000000 0.958646
vn -0.284600 0.000000 0.958646
vn -0.284600 0.000000 0.958646
vn -0.284600 0.000000 0.958646
vn -0.284600 0.000000 0.958646
vn -0.284600 0.000000 0.958646
vn -0.284600 0.000000 0.958646
vn -0.284600 0.000000 0.958646
vn -0.284600 0.000000 0.958646
vn -0.284600 0.000000 0.958646
vn -0.284600 0.000000 0.958646
vn -0.284600 0.000000 0.958646
vn -0.284600 0.000000 0.958646
vn -0.284600 0.000000 0.958646
vn -0.284600 0.000000 0.958646
vn -0.284600 0.000000 0.958646
vn -0.284600 0.000000 0.958646
vn -0.284600 0.000000 0.958646
vn 0.284600 0.000000 -0.958646
vn 0.284600 0.000000 -0.958646
vn 0.284600 0.000000 -0.958646
vn 0.284600 0.000000 -0.958646
vn 0.284600 0.000000 -0.958646
vn 0.284600 0.000000 -0.958646
vn 0.284600 0.000000 -0.958646
vn 0.284600 0.000000 -0.958646
vn 0.284600 0.000000 -0.958646
vn 0.284600 0.000000 -0.958646
vn 0.284600 0.000000 -0.958646
vn 0.284600 0.000000 -0.958646
vn 0.284600 0.000000 -0.958646
vn 0.284600 0.000000 -0.958646
vn 0.284600 0.000000 -0.958646
vn 0.284600 0.000000 -0.958646
vn 0.284600 0.000000 -0.958646
vn 0.284600 0.000000 -0.958646
vn 0.284600 0.000000 -0.958646
vn 0.284600 0.000000 -0.958646
vn 0.284600 0.000000 -0.958646
vn 0.284600 0.000000 -0.958646
vn 0.284600 0.000000 -0.958646
vn 0.284600 0.000000 -0.958646
vn 0.284600 0.000000 -0.958646
vn 0.284600 0.000000 -0.958646
vn 0.284600 0.000000 -0.958646
vn 0.284600 0.000000 -0.958646
vn 0.284600 0.000000 -0.958646
vn 0.284600 0.000000 -0.958646
vn 0.284600 0.000000 -0.958646
vn 0.284600 0.000000 -0.958646
vn 0.284600 0.000000 -0.958646
vn 0.284600 0.000000 -0.958646
vn 0.284600 0.000000 -0.958646
vn 0.284600 0.000000 -0.958646
vn 0.284600 0.000000 -0.958646
vn 0.000000 -1.000000 0.000000
vn 0.000000 -1.000000 0.000000
vn 0.000000 -1.000000 0.000000
vn 0.000000 -1.000000 0.000000
vn -0.958646 0.000000 -0.284600
vn -0.958646 0.000000 -0.284600
vn -0.958646 0.000000 -0.284600
vn -0.958646 0.000000 -0.284600
vn -0.958640 0.003612 -0.284598
vn -0.958640 0.003612 -0.284598
vn -0.958640 0.003612 -0.284598
vn -0.958640 0.003612 -0.284598
vn -0.950537 0.129796 -0.282192
vn -0.950537 0.129796 -0.282192
vn -0.950537 0.129796 -0.282192
vn -0.950537 0.129796 -0.282192
vn -0.936938 0.211605 -0.278156
vn -0.936938 0.211605 -0.278156
vn -0.936938 0.211605 -0.278156
vn -0.936938 0.211605 -0.278156
vn -0.917554 0.289641 -0.272401
vn -0.917554 0.289641 -0.272401
vn -0.917554 0.289641 -0.272401
vn -0.917554 0.289641 -0.272401
vn -0.884664 0.385217 -0.262637
vn -0.884664 0.385217 -0.262637
vn -0.884664 0.385217 -0.262637
vn -0.884664 0.385217 -0.262637
vn -0.843429 0.475321 -0.250395
vn -0.843429 0.475321 -0.250395
vn -0.843429 0.475321 -0.250395
vn -0.843429 0.475321 -0.250395
vn -0.797123 0.555512 -0.236648
vn -0.797123 0.555512 -0.236648
vn -0.797123 0.555512 -0.236648
vn -0.797123 0.555512 -0.236648
vn -0.745100 0.629202 -0.221203
vn -0.745100 0.629202 -0.221203
vn -0.745100 0.629202 -0.221203
vn -0.745100 0.629202 -0.221203
vn -0.686083 0.698429 -0.203683
vn -0.686083 0.698429 -0.203683
vn -0.686083 0.698429 -0.203683
vn -0.686083 0.698429 -0.203683
vn -0.618440 0.764083 -0.183601
vn -0.618440 0.764083 -0.183601
vn -0.618440 0.764083 -0.183601
vn -0.618440 0.764083 -0.183601
vn -0.540393 0.825977 -0.160430
vn -0.540393 0.825977 -0.160430
vn -0.540393 0.825977 -0.160430
vn -0.540393 0.825977 -0.160430
vn -0.450317 0.882803 -0.133689
vn -0.450317 0.882803 -0.133689
vn -0.450317 0.882803 -0.133689
vn -0.450317 0.882803 -0.133689
vn -0.361027 0.926376 -0.107180
vn -0.361027 0.926376 -0.107180
vn -0.361027 0.926376 -0.107180
vn -0.361027 0.926376 -0.107180
vn -0.276422 0.957526 -0.082063
vn -0.276422 0.957526 -0.082063
vn -0.276422 0.957526 -0.082063
vn -0.276422 0.957526 -0.082063
vn -0.185178 0.981166 -0.054975
vn -0.185178 0.981166 -0.054975
vn -0.185178 0.981166 -0.054975
vn -0.185178 0.981166 -0.054975
vn -0.088654 0.995715 -0.026319
vn -0.088654 0.995715 -0.026319
vn -0.088654 0.995715 -0.026319
vn -0.088654 0.995715 -0.026319
vn 0.011121 0.999933 0.003301
vn 0.011121 0.999933 0.003301
vn 0.011121 0.999933 0.003301
vn 0.011121 0.999933 0.003301
vn 0.111590 0.993202 0.033128
vn 0.111590 0.993202 0.033128
vn 0.111590 0.993202 0.033128
vn 0.111590 0.993202 0.033128
vn 0.207463 0.976302 0.061590
vn 0.207463 0.976302 0.061590
vn 0.207463 0.976302 0.061590
vn 0.207463 0.976302 0.061590
vn 0.303711 0.948488 0.090165
vn 0.303711 0.948488 0.090165
vn 0.303711 0.948488 0.090165
vn 0.303711 0.948488 0.090165
vn 0.391586 0.912768 0.116253
vn 0.391586 0.912768 0.116253
vn 0.391586 0.912768 0.116253
vn 0.391586 0.912768 0.116253
vn 0.468468 0.872465 0.139077
vn 0.468468 0.872465 0.139077
vn 0.468468 0.872465 0.139077
vn 0.468468 0.872465 0.139077
vn 0.542322 0.824600 0.161003
vn 0.542322 0.824600 0.161003
vn 0.542322 0.824600 0.161003
vn 0.542322 0.824600 0.161003
vn 0.611442 0.770187 0.181523
vn 0.611442 0.770187 0.181523
vn 0.611442 0.770187 0.181523
vn 0.611442 0.770187 0.181523
vn 0.674463 0.710638 0.200232
vn 0.674463 0.710638 0.200232
vn 0.674463 0.710638 0.200232
vn 0.674463 0.710638 0.200232
vn 0.736911 0.639610 0.218772
vn 0.736911 0.639610 0.218772
vn 0.736911 0.639610 0.218772
vn 0.736911 0.639610 0.218772
vn 0.795321 0.558315 0.236112
vn 0.795321 0.558315 0.236112
vn 0.795321 0.558315 0.236112
vn 0.795321 0.558315 0.236112
vn 0.842386 0.477329 0.250085
vn 0.842386 0.477329 0.250085
vn 0.842386 0.477329 0.250085
vn 0.842386 0.477329 0.250085
vn 0.879099 0.398840 0.260984
vn 0.879099 0.398840 0.260984
vn 0.879099 0.398840 0.260984
vn 0.879099 0.398840 0.260984
vn 0.912008 0.308114 0.270754
vn 0.912008 0.308114 0.270754
vn 0.912008 0.308114 0.270754
vn 0.912008 0.308114 0.270754
vn 0.937499 0.208885 0.278322
vn 0.937499 0.208885 0.278322
vn 0.937499 0.208885 0.278322
vn 0.937499 0.208885 0.278322
vn 0.952476 0.113278 0.282769
vn 0.952476 0.113278 0.282769
vn 0.952476 0.113278 0.282769
vn 0.952476 0.113278 0.282769
vn 0.958603 0.009534 0.284588
vn 0.958603 0.009534 0.284588
vn 0.958603 0.009534 0.284588
vn 0.958603 0.009534 0.284588
vn 0.958358 -0.024511 0.284515
vn 0.958358 -0.024511 0.284515
vn 0.958358 -0.024511 0.284515
vn 0.958358 -0.024511 0.284515
vn 0.958646 0.000000 0.284600
vn 0.958646 0.000000 0.284600
vn 0.958646 0.000000 0.284600
vn 0.958646 0.000000 0.284600
s off
g door_10:Mesh
usemtl initialShadingGroup
f 111/1/1 110/2/2 109/3/3 108/4/4 107/5/5 106/6/6 105/7/7 104/8/8 103/9/9 102/10/10 101/11/11 100/12/12 99/13/13 98/14/14 97/15/15 96/16/16 95/17/17 94/18/18 93/19/19 92/20/20 91/21/21 90/22/22 89/23/23 88/24/24 87/25/25 86/26/26 85/27/27 84/28/28 83/29/29 82/30/30 81/31/31 80/32/32 79/33/33 78/34/34 77/35/35 76/36/36 75/37/37
f 113/38/38 114/39/39 115/40/40 116/41/41 117/42/42 118/43/43 119/44/44 120/45/45 121/46/46 122/47/47 123/48/48 124/49/49 125/50/50 126/51/51 127/52/52 128/53/53 129/54/54 130/55/55 131/56/56 132/57/57 133/58/58 134/59/59 135/60/60 136/61/61 137/62/62 138/63/63 139/64/64 140/65/65 141/66/66 142/67/67 143/68/68 144/69/69 145/70/70 146/71/71 147/72/72 148/73/73 112/74/74
f 2/75/75 39/76/76 38/77/77 1/78/78
f 3/79/79 40/80/80 39/81/81 2/82/82
f 4/83/83 41/84/84 40/80/85 3/79/86
f 5/85/87 42/86/88 41/84/89 4/83/90
f 6/87/91 43/88/92 42/86/93 5/85/94
f 7/89/95 44/90/96 43/88/97 6/87/98
f 8/91/99 45/92/100 44/90/101 7/89/102
f 9/93/103 46/94/104 45/92/105 8/91/106
f 10/95/107 47/96/108 46/94/109 9/93/110
f 11/97/111 48/98/112 47/96/113 10/95/114
f 12/99/115 49/100/116 48/98/117 11/97/118
f 13/101/119 50/102/120 49/100/121 12/99/122
f 14/103/123 51/104/124 50/102/125 13/101/126
f 15/105/127 52/106/128 51/104/129 14/103/130
f 16/107/131 53/108/132 52/106/133 15/105/134
f 17/109/135 54/110/136 53/108/137 16/107/138
f 18/111/139 55/112/140 54/110/141 17/109/142
f 19/113/143 56/114/144 55/112/145 18/111/146
f 20/115/147 57/116/148 56/114/149 19/113/150
f 21/117/151 58/118/152 57/116/153 20/115/154
f 22/119/155 59/120/156 58/118/157 21/117/158
f 23/121/159 60/122/160 59/120/161 22/119/162
f 24/123/163 61/124/164 60/122/165 23/121/166
f 25/125/167 62/126/168 61/124/169 24/123/170
f 26/127/171 63/128/172 62/126/173 25/125/174
f 27/129/175 64/130/176 63/128/177 26/127/178
f 28/131/179 65/132/180 64/130/181 27/129/182
f 29/133/183 66/134/184 65/132/185 28/131/186
f 30/135/187 67/136/188 66/134/189 29/133/190
f 31/137/191 68/138/192 67/136/193 30/135/194
f 32/139/195 69/140/196 68/138/197 31/137/198
f 33/141/199 70/142/200 69/140/201 32/139/202
f 34/143/203 71/144/204 70/142/205 33/141/206
f 35/145/207 72/146/208 71/144/209 34/143/210
f 36/147/211 73/148/212 72/146/213 35/145/214
f 37/149/215 74/150/216 73/148/217 36/147/218
f 1/151/219 38/152/220 74/150/221 37/149/222
