# This file uses centimeters as units for non-parametric coordinates.

mtllib door 12.mtl
g default
v 33.619262 0.008206 1.545956
v -14.248371 0.008206 -41.495599
v -14.248371 64.639755 -41.495599
v -14.182545 89.150368 -41.436410
v -13.754658 93.546181 -41.051666
v -13.382751 95.856247 -40.717254
v -12.902693 97.989624 -40.285593
v -12.070559 100.670456 -39.537357
v -10.979557 103.386208 -38.556353
v -9.641831 106.079002 -37.353500
v -8.069531 108.690941 -35.939721
v -6.274802 111.164131 -34.325936
v -4.269786 113.440689 -32.523071
v -2.066635 115.462723 -30.542044
v 0.322509 117.172348 -28.393775
v 2.229118 118.214714 -26.679392
v 4.228390 119.024361 -24.881690
v 6.315205 119.576866 -23.005270
v 8.484430 119.847801 -21.054750
v 10.730952 119.812752 -19.034725
v 13.049637 119.447296 -16.949814
v 15.927429 118.589432 -14.362163
v 18.584223 117.396027 -11.973232
v 20.553807 116.210678 -10.202224
v 22.387551 114.829422 -8.553360
v 24.087942 113.260628 -7.024405
v 25.657471 111.512657 -5.613117
v 27.098623 109.593887 -4.317264
v 28.723329 106.968002 -2.856364
v 30.156191 104.104668 -1.567965
v 31.402071 101.020256 -0.447696
v 32.465826 97.731094 0.508809
v 32.944039 95.745399 0.938808
v 33.381816 92.989151 1.332449
v 33.743839 88.718903 1.657971
v 33.825287 77.232277 1.731206
v 33.619262 65.932381 1.545956
v 35.924030 0.008206 -1.017237
v -11.943602 0.008206 -44.058792
v -11.943602 64.639755 -44.058792
v -11.877777 89.150368 -43.999603
v -11.449890 93.546181 -43.614859
v -11.077982 95.856247 -43.280447
v -10.597925 97.989624 -42.848786
v -9.765791 100.670456 -42.100550
v -8.674789 103.386208 -41.119546
v -7.337064 106.079002 -39.916693
v -5.764764 108.690941 -38.502910
v -3.970034 111.164131 -36.889128
v -1.965018 113.440689 -35.086264
v 0.238132 115.462723 -33.105235
v 2.627277 117.172348 -30.956967
v 4.533886 118.214714 -29.242585
v 6.533159 119.024361 -27.444883
v 8.619973 119.576866 -25.568463
v 10.789198 119.847801 -23.617943
v 13.035720 119.812752 -21.597917
v 15.354405 119.447296 -19.513007
v 18.232197 118.589432 -16.925356
v 20.888991 117.396027 -14.536424
v 22.858575 116.210678 -12.765417
v 24.692319 114.829422 -11.116552
v 26.392711 113.260628 -9.587597
v 27.962240 111.512657 -8.176310
v 29.403391 109.593887 -6.880457
v 31.028095 106.968002 -5.419557
v 32.460957 104.104668 -4.131158
v 33.706837 101.020256 -3.010888
v 34.770594 97.731094 -2.054384
v 35.248807 95.745399 -1.624385
v 35.686585 92.989151 -1.230743
v 36.048607 88.718903 -0.905222
v 36.130055 77.232277 -0.831986
v 35.924030 65.932381 -1.017237
v 33.619262 0.008206 1.545956
v -14.248371 0.008206 -41.495599
v -14.248371 64.639755 -41.495599
v -14.182545 89.150368 -41.436410
v -13.754658 93.546181 -41.051666
v -13.382751 95.856247 -40.717254
v -12.902693 97.989624 -40.285593
v -12.070559 100.670456 -39.537357
v -10.979557 103.386208 -38.556353
v -9.641831 106.079002 -37.353500
v -8.069531 108.690941 -35.939721
v -6.274802 111.164131 -34.325936
v -4.269786 113.440689 -32.523071
v -2.066635 115.462723 -30.542044
v 0.322509 117.172348 -28.393775
v 2.229118 118.214714 -26.679392
v 4.228390 119.024361 -24.881690
v 6.315205 119.576866 -23.005270
v 8.484430 119.847801 -21.054750
v 10.730952 119.812752 -19.034725
v 13.049637 119.447296 -16.949814
v 15.927429 118.589432 -14.362163
v 18.584223 117.396027 -11.973232
v 20.553807 116.210678 -10.202224
v 22.387551 114.829422 -8.553360
v 24.087942 113.260628 -7.024405
v 25.657471 111.512657 -5.613117
v 27.098623 109.593887 -4.317264
v 28.723329 106.968002 -2.856364
v 30.156191 104.104668 -1.567965
v 31.402071 101.020256 -0.447696
v 32.465826 97.731094 0.508809
v 32.944039 95.745399 0.938808
v 33.381816 92.989151 1.332449
v 33.743839 88.718903 1.657971
v 33.825287 77.232277 1.731206
v 33.619262 65.932381 1.545956
v 35.924030 0.008206 -1.017237
v -11.943602 0.008206 -44.058792
v -11.943602 64.639755 -44.058792
v -11.877777 89.150368 -43.999603
v -11.449890 93.546181 -43.614859
v -11.077982 95.856247 -43.280447
v -10.597925 97.989624 -42.848786
v -9.765791 100.670456 -42.100550
v -8.674789 103.386208 -41.119546
v -7.337064 106.079002 -39.916693
v -5.764764 108.690941 -38.502910
v -3.970034 111.164131 -36.889128
v -1.965018 113.440689 -35.086264
v 0.238132 115.462723 -33.105235
v 2.627277 117.172348 -30.956967
v 4.533886 118.214714 -29.242585
v 6.533159 119.024361 -27.444883
v 8.619973 119.576866 -25.568463
v 10.789198 119.847801 -23.617943
v 13.035720 119.812752 -21.597917
v 15.354405 119.447296 -19.513007
v 18.232197 118.589432 -16.925356
v 20.888991 117.396027 -14.536424
v 22.858575 116.210678 -12.765417
v 24.692319 114.829422 -11.116552
v 26.392711 113.260628 -9.587597
v 27.962240 111.512657 -8.176310
v 29.403391 109.593887 -6.880457
v 31.028095 106.968002 -5.419557
v 32.460957 104.104668 -4.131158
v 33.706837 101.020256 -3.010888
v 34.770594 97.731094 -2.054384
v 35.248807 95.745399 -1.624385
v 35.686585 92.989151 -1.230743
v 36.048607 88.718903 -0.905222
v 36.130055 77.232277 -0.831986
v 35.924030 65.932381 -1.017237
vt 0.730902 0.510870
vt 0.732908 0.592687
vt 0.732115 0.675857
vt 0.728590 0.706776
vt 0.724327 0.726733
vt 0.719671 0.741110
vt 0.709313 0.764925
vt 0.697181 0.787258
vt 0.683229 0.807991
vt 0.667409 0.827003
vt 0.653376 0.840896
vt 0.638094 0.853553
vt 0.621536 0.864912
vt 0.603681 0.874913
vt 0.584503 0.883495
vt 0.558633 0.892136
vt 0.530611 0.898348
vt 0.508034 0.900994
vt 0.486159 0.901248
vt 0.465037 0.899286
vt 0.444717 0.895285
vt 0.425250 0.889423
vt 0.406685 0.881876
vt 0.383421 0.869497
vt 0.361969 0.854856
vt 0.342445 0.838373
vt 0.324970 0.820466
vt 0.309660 0.801554
vt 0.296634 0.782056
vt 0.286011 0.762393
vt 0.277908 0.742982
vt 0.273234 0.727535
vt 0.269612 0.710809
vt 0.265446 0.678981
vt 0.264805 0.501510
vt 0.264805 0.033541
vt 0.730902 0.033541
vt 0.264805 0.033541
vt 0.264805 0.501510
vt 0.265446 0.678981
vt 0.269612 0.710809
vt 0.273234 0.727535
vt 0.277908 0.742982
vt 0.286011 0.762393
vt 0.296634 0.782056
vt 0.309660 0.801554
vt 0.324970 0.820466
vt 0.342445 0.838373
vt 0.361969 0.854856
vt 0.383421 0.869497
vt 0.406685 0.881876
vt 0.425250 0.889423
vt 0.444717 0.895285
vt 0.465037 0.899286
vt 0.486159 0.901248
vt 0.508034 0.900994
vt 0.530611 0.898348
vt 0.558633 0.892136
vt 0.584503 0.883495
vt 0.603681 0.874913
vt 0.621536 0.864912
vt 0.638094 0.853553
vt 0.653376 0.840896
vt 0.667409 0.827003
vt 0.683229 0.807991
vt 0.697181 0.787258
vt 0.709313 0.764925
vt 0.719671 0.741110
vt 0.724327 0.726733
vt 0.728590 0.706776
vt 0.732115 0.675857
vt 0.732908 0.592687
vt 0.730902 0.510870
vt 0.730902 0.033541
vt 0.255234 0.018128
vt 0.255234 0.018128
vt 0.735657 0.018128
vt 0.735657 0.018128
vt 0.382648 0.471476
vt 0.402483 0.471476
vt 0.402483 0.099572
vt 0.382648 0.099572
vt 0.382648 0.612516
vt 0.402483 0.612516
vt 0.382648 0.637811
vt 0.402483 0.637811
vt 0.382648 0.651103
vt 0.402483 0.651103
vt 0.382648 0.663379
vt 0.402483 0.663379
vt 0.382648 0.678805
vt 0.402483 0.678805
vt 0.382648 0.694432
vt 0.402483 0.694432
vt 0.382648 0.709927
vt 0.402483 0.709927
vt 0.382648 0.724957
vt 0.402483 0.724957
vt 0.382648 0.739188
vt 0.402483 0.739188
vt 0.382648 0.752288
vt 0.402483 0.752288
vt 0.382648 0.763923
vt 0.402483 0.763923
vt 0.382648 0.773761
vt 0.402483 0.773761
vt 0.382648 0.779759
vt 0.402483 0.779759
vt 0.382648 0.784418
vt 0.402483 0.784418
vt 0.382648 0.787597
vt 0.402483 0.787597
vt 0.382648 0.789156
vt 0.402483 0.789156
vt 0.382648 0.788954
vt 0.402483 0.788954
vt 0.382648 0.786851
vt 0.402483 0.786851
vt 0.382648 0.781915
vt 0.402483 0.781915
vt 0.382648 0.775048
vt 0.402483 0.775048
vt 0.382648 0.768227
vt 0.402483 0.768227
vt 0.382648 0.760279
vt 0.402483 0.760279
vt 0.382648 0.751252
vt 0.402483 0.751252
vt 0.382648 0.741194
vt 0.402483 0.741194
vt 0.382648 0.730153
vt 0.402483 0.730153
vt 0.382648 0.715043
vt 0.402483 0.715043
vt 0.382648 0.698567
vt 0.402483 0.698567
vt 0.382648 0.680818
vt 0.402483 0.680818
vt 0.382648 0.661892
vt 0.402483 0.661892
vt 0.382648 0.650465
vt 0.402483 0.650465
vt 0.382648 0.634605
vt 0.402483 0.634605
vt 0.382648 0.610033
vt 0.402483 0.610033
vt 0.382648 0.543937
vt 0.402483 0.543937
vt 0.382648 0.478915
vt 0.402483 0.478915
vt 0.382648 0.099572
vt 0.402483 0.099572
vn -0.668628 0.000000 0.743598
vn -0.668628 0.000000 0.743598
vn -0.668628 0.000000 0.743598
vn -0.668628 0.000000 0.743598
vn -0.668628 0.000000 0.743598
vn -0.668628 0.000000 0.743598
vn -0.668628 0.000000 0.743598
vn -0.668628 0.000000 0.743598
vn -0.668628 0.000000 0.743598
vn -0.668628 0.000000 0.743598
vn -0.668628 0.000000 0.743598
vn -0.668628 0.000000 0.743598
vn -0.668628 0.000000 0.743598
vn -0.668628 0.000000 0.743598
vn -0.668628 0.000000 0.743598
vn -0.668628 0.000000 0.743598
vn -0.668628 0.000000 0.743598
vn -0.668628 0.000000 0.743598
vn -0.668628 0.000000 0.743598
vn -0.668628 0.000000 0.743598
vn -0.668628 0.000000 0.743598
vn -0.668628 0.000000 0.743598
vn -0.668628 0.000000 0.743598
vn -0.668628 0.000000 0.743598
vn -0.668628 0.000000 0.743598
vn -0.668628 0.000000 0.743598
vn -0.668628 0.000000 0.743598
vn -0.668628 0.000000 0.743598
vn -0.668628 0.000000 0.743598
vn -0.668628 0.000000 0.743598
vn -0.668628 0.000000 0.743598
vn -0.668628 0.000000 0.743598
vn -0.668628 0.000000 0.743598
vn -0.668628 0.000000 0.743598
vn -0.668628 0.000000 0.743598
vn -0.668628 0.000000 0.743598
vn -0.668628 0.000000 0.743598
vn 0.668628 0.000000 -0.743598
vn 0.668628 0.000000 -0.743598
vn 0.668628 0.000000 -0.743598
vn 0.668628 0.000000 -0.743598
vn 0.668628 0.000000 -0.743598
vn 0.668628 0.000000 -0.743598
vn 0.668628 0.000000 -0.743598
vn 0.668628 0.000000 -0.743598
vn 0.668628 0.000000 -0.743598
vn 0.668628 0.000000 -0.743598
vn 0.668628 0.000000 -0.743598
vn 0.668628 0.000000 -0.743598
vn 0.668628 0.000000 -0.743598
vn 0.668628 0.000000 -0.743598
vn 0.668628 0.000000 -0.743598
vn 0.668628 0.000000 -0.743598
vn 0.668628 0.000000 -0.743598
vn 0.668628 0.000000 -0.743598
vn 0.668628 0.000000 -0.743598
vn 0.668628 0.000000 -0.743598
vn 0.668628 0.000000 -0.743598
vn 0.668628 0.000000 -0.743598
vn 0.668628 0.000000 -0.743598
vn 0.668628 0.000000 -0.743598
vn 0.668628 0.000000 -0.743598
vn 0.668628 0.000000 -0.743598
vn 0.668628 0.000000 -0.743598
vn 0.668628 0.000000 -0.743598
vn 0.668628 0.000000 -0.743598
vn 0.668628 0.000000 -0.743598
vn 0.668628 0.000000 -0.743598
vn 0.668628 0.000000 -0.743598
vn 0.668628 0.000000 -0.743598
vn 0.668628 0.000000 -0.743598
vn 0.668628 0.000000 -0.743598
vn 0.668628 0.000000 -0.743598
vn 0.668628 0.000000 -0.743598
vn 0.000000 -1.000000 0.000000
vn 0.000000 -1.000000 0.000000
vn 0.000000 -1.000000 0.000000
vn 0.000000 -1.000000 0.000000
vn -0.743598 0.000000 -0.668628
vn -0.743598 0.000000 -0.668628
vn -0.743598 0.000000 -0.668628
vn -0.743598 0.000000 -0.668628
vn -0.743593 0.003612 -0.668623
vn -0.743593 0.003612 -0.668623
vn -0.743593 0.003612 -0.668623
vn -0.743593 0.003612 -0.668623
vn -0.737308 0.129796 -0.662971
vn -0.737308 0.129796 -0.662971
vn -0.737308 0.129796 -0.662971
vn -0.737308 0.129796 -0.662971
vn -0.726759 0.211605 -0.653487
vn -0.726759 0.211605 -0.653487
vn -0.726759 0.211605 -0.653487
vn -0.726759 0.211605 -0.653487
vn -0.711724 0.289641 -0.639967
vn -0.711724 0.289641 -0.639967
vn -0.711724 0.289641 -0.639967
vn -0.711724 0.289641 -0.639967
vn -0.686211 0.385217 -0.617027
vn -0.686211 0.385217 -0.617027
vn -0.686211 0.385217 -0.617027
vn -0.686211 0.385217 -0.617027
vn -0.654226 0.475321 -0.588267
vn -0.654226 0.475321 -0.588267
vn -0.654226 0.475321 -0.588267
vn -0.654226 0.475321 -0.588267
vn -0.618308 0.555512 -0.555969
vn -0.618308 0.555512 -0.555969
vn -0.618308 0.555512 -0.555969
vn -0.618308 0.555512 -0.555969
vn -0.577956 0.629202 -0.519685
vn -0.577956 0.629202 -0.519685
vn -0.577956 0.629202 -0.519685
vn -0.577956 0.629202 -0.519685
vn -0.532178 0.698429 -0.478523
vn -0.532178 0.698429 -0.478523
vn -0.532178 0.698429 -0.478523
vn -0.532178 0.698429 -0.478523
vn -0.479708 0.764083 -0.431343
vn -0.479708 0.764083 -0.431343
vn -0.479708 0.764083 -0.431343
vn -0.479708 0.764083 -0.431343
vn -0.419169 0.825977 -0.376908
vn -0.419169 0.825977 -0.376908
vn -0.419169 0.825977 -0.376908
vn -0.419169 0.825977 -0.376908
vn -0.349300 0.882803 -0.314083
vn -0.349300 0.882803 -0.314083
vn -0.349300 0.882803 -0.314083
vn -0.349300 0.882803 -0.314083
vn -0.280039 0.926376 -0.251805
vn -0.280039 0.926376 -0.251805
vn -0.280039 0.926376 -0.251805
vn -0.280039 0.926376 -0.251805
vn -0.214413 0.957526 -0.192796
vn -0.214413 0.957526 -0.192796
vn -0.214413 0.957526 -0.192796
vn -0.214413 0.957526 -0.192796
vn -0.143638 0.981166 -0.129156
vn -0.143638 0.981166 -0.129156
vn -0.143638 0.981166 -0.129156
vn -0.143638 0.981166 -0.129156
vn -0.068766 0.995715 -0.061833
vn -0.068766 0.995715 -0.061833
vn -0.068766 0.995715 -0.061833
vn -0.068766 0.995715 -0.061833
vn 0.008627 0.999933 0.007756
vn 0.008627 0.999933 0.007756
vn 0.008627 0.999933 0.007756
vn 0.008627 0.999933 0.007756
vn 0.086558 0.993202 0.077831
vn 0.086558 0.993202 0.077831
vn 0.086558 0.993202 0.077831
vn 0.086558 0.993202 0.077831
vn 0.160924 0.976302 0.144699
vn 0.160924 0.976302 0.144699
vn 0.160924 0.976302 0.144699
vn 0.160924 0.976302 0.144699
vn 0.235581 0.948488 0.211829
vn 0.235581 0.948488 0.211829
vn 0.235581 0.948488 0.211829
vn 0.235581 0.948488 0.211829
vn 0.303744 0.912768 0.273120
vn 0.303744 0.912768 0.273120
vn 0.303744 0.912768 0.273120
vn 0.303744 0.912768 0.273120
vn 0.363379 0.872465 0.326742
vn 0.363379 0.872465 0.326742
vn 0.363379 0.872465 0.326742
vn 0.363379 0.872465 0.326742
vn 0.420666 0.824600 0.378254
vn 0.420666 0.824600 0.378254
vn 0.420666 0.824600 0.378254
vn 0.420666 0.824600 0.378254
vn 0.474280 0.770187 0.426462
vn 0.474280 0.770187 0.426462
vn 0.474280 0.770187 0.426462
vn 0.474280 0.770187 0.426462
vn 0.523164 0.710638 0.470418
vn 0.523164 0.710638 0.470418
vn 0.523164 0.710638 0.470418
vn 0.523164 0.710638 0.470418
vn 0.571603 0.639610 0.513974
vn 0.571603 0.639610 0.513974
vn 0.571603 0.639610 0.513974
vn 0.571603 0.639610 0.513974
vn 0.616910 0.558315 0.554712
vn 0.616910 0.558315 0.554712
vn 0.616910 0.558315 0.554712
vn 0.616910 0.558315 0.554712
vn 0.653418 0.477329 0.587539
vn 0.653418 0.477329 0.587539
vn 0.653418 0.477329 0.587539
vn 0.653418 0.477329 0.587539
vn 0.681895 0.398840 0.613145
vn 0.681895 0.398840 0.613145
vn 0.681895 0.398840 0.613145
vn 0.681895 0.398840 0.613145
vn 0.707421 0.308114 0.636098
vn 0.707421 0.308114 0.636098
vn 0.707421 0.308114 0.636098
vn 0.707421 0.308114 0.636098
vn 0.727194 0.208885 0.653878
vn 0.727194 0.208885 0.653878
vn 0.727194 0.208885 0.653878
vn 0.727194 0.208885 0.653878
vn 0.738811 0.113278 0.664324
vn 0.738811 0.113278 0.664324
vn 0.738811 0.113278 0.664324
vn 0.738811 0.113278 0.664324
vn 0.743564 0.009534 0.668597
vn 0.743564 0.009534 0.668597
vn 0.743564 0.009534 0.668597
vn 0.743564 0.009534 0.668597
vn 0.743374 -0.024511 0.668426
vn 0.743374 -0.024511 0.668426
vn 0.743374 -0.024511 0.668426
vn 0.743374 -0.024511 0.668426
vn 0.743598 0.000000 0.668628
vn 0.743598 0.000000 0.668628
vn 0.743598 0.000000 0.668628
vn 0.743598 0.000000 0.668628
s off
g door_10:Mesh
usemtl initialShadingGroup
f 111/1/1 110/2/2 109/3/3 108/4/4 107/5/5 106/6/6 105/7/7 104/8/8 103/9/9 102/10/10 101/11/11 100/12/12 99/13/13 98/14/14 97/15/15 96/16/16 95/17/17 94/18/18 93/19/19 92/20/20 91/21/21 90/22/22 89/23/23 88/24/24 87/25/25 86/26/26 85/27/27 84/28/28 83/29/29 82/30/30 81/31/31 80/32/32 79/33/33 78/34/34 77/35/35 76/36/36 75/37/37
f 113/38/38 114/39/39 115/40/40 116/41/41 117/42/42 118/43/43 119/44/44 120/45/45 121/46/46 122/47/47 123/48/48 124/49/49 125/50/50 126/51/51 127/52/52 128/53/53 129/54/54 130/55/55 131/56/56 132/57/57 133/58/58 134/59/59 135/60/60 136/61/61 137/62/62 138/63/63 139/64/64 140/65/65 141/66/66 142/67/67 143/68/68 144/69/69 145/70/70 146/71/71 147/72/72 148/73/73 112/74/74
f 2/75/75 39/76/76 38/77/77 1/78/78
f 3/79/79 40/80/80 39/81/81 2/82/82
f 4/83/83 41/84/84 40/80/85 3/79/86
f 5/85/87 42/86/88 41/84/89 4/83/90
f 6/87/91 43/88/92 42/86/93 5/85/94
f 7/89/95 44/90/96 43/88/97 6/87/98
f 8/91/99 45/92/100 44/90/101 7/89/102
f 9/93/103 46/94/104 45/92/105 8/91/106
f 10/95/107 47/96/108 46/94/109 9/93/110
f 11/97/111 48/98/112 47/96/113 10/95/114
f 12/99/115 49/100/116 48/98/117 11/97/118
f 13/101/119 50/102/120 49/100/121 12/99/122
f 14/103/123 51/104/124 50/102/125 13/101/126
f 15/105/127 52/106/128 51/104/129 14/103/130
f 16/107/131 53/108/132 52/106/133 15/105/134
f 17/109/135 54/110/136 53/108/137 16/107/138
f 18/111/139 55/112/140 54/110/141 17/109/142
f 19/113/143 56/114/144 55/112/145 18/111/146
f 20/115/147 57/116/148 56/114/149 19/113/150
f 21/117/151 58/118/152 57/116/153 20/115/154
f 22/119/155 59/120/156 58/118/157 21/117/158
f 23/121/159 60/122/160 59/120/161 22/119/162
f 24/123/163 61/124/164 60/122/165 23/121/166
f 25/125/167 62/126/168 61/124/169 24/123/170
f 26/127/171 63/128/172 62/126/173 25/125/174
f 27/129/175 64/130/176 63/128/177 26/127/178
f 28/131/179 65/132/180 64/130/181 27/129/182
f 29/133/183 66/134/184 65/132/185 28/131/186
f 30/135/187 67/136/188 66/134/189 29/133/190
f 31/137/191 68/138/192 67/136/193 30/135/194
f 32/139/195 69/140/196 68/138/197 31/137/198
f 33/141/199 70/142/200 69/140/201 32/139/202
f 34/143/203 71/144/204 70/142/205 33/141/206
f 35/145/207 72/146/208 71/144/209 34/143/210
f 36/147/211 73/148/212 72/146/213 35/145/214
f 37/149/215 74/150/216 73/148/217 36/147/218
f 1/151/219 38/152/220 74/150/221 37/149/222
