# This file uses centimeters as units for non-parametric coordinates.

mtllib door 8.mtl
g default
v 34.968907 0.008206 0.945292
v -22.074692 0.008206 -28.886127
v -22.074692 64.639755 -28.886127
v -21.996248 89.150368 -28.845104
v -21.486338 93.546181 -28.578445
v -21.043138 95.856247 -28.346669
v -20.471055 97.989624 -28.047491
v -19.479405 100.670456 -27.528901
v -18.179265 103.386208 -26.848983
v -16.585105 106.079002 -26.015304
v -14.711403 108.690941 -25.035437
v -12.572633 111.164131 -23.916947
v -10.183268 113.440689 -22.667411
v -7.557784 115.462723 -21.294392
v -4.710654 117.172348 -19.805460
v -2.438558 118.214714 -18.617249
v -0.056036 119.024361 -17.371291
v 2.430809 119.576866 -16.070773
v 5.015863 119.847801 -14.718899
v 7.693031 119.812752 -13.318851
v 10.456195 119.447296 -11.873833
v 13.885645 118.589432 -10.080373
v 17.051732 117.396027 -8.424643
v 19.398874 116.210678 -7.197185
v 21.584137 114.829422 -6.054384
v 23.610484 113.260628 -4.994689
v 25.480883 111.512657 -4.016548
v 27.198296 109.593887 -3.118413
v 29.134449 106.968002 -2.105887
v 30.841983 104.104668 -1.212918
v 32.326692 101.020256 -0.436476
v 33.594363 97.731094 0.226461
v 34.164246 95.745399 0.524487
v 34.685944 92.989151 0.797314
v 35.117363 88.718903 1.022927
v 35.214425 77.232277 1.073686
v 34.968907 65.932381 0.945292
v 36.566305 0.008206 -2.109251
v -20.477294 0.008206 -31.940670
v -20.477294 64.639755 -31.940670
v -20.398850 89.150368 -31.899647
v -19.888940 93.546181 -31.632988
v -19.445740 95.856247 -31.401212
v -18.873657 97.989624 -31.102034
v -17.882008 100.670456 -30.583444
v -16.581867 103.386208 -29.903526
v -14.987707 106.079002 -29.069847
v -13.114005 108.690941 -28.089976
v -10.975235 111.164131 -26.971490
v -8.585870 113.440689 -25.721953
v -5.960387 115.462723 -24.348933
v -3.113256 117.172348 -22.860003
v -0.841160 118.214714 -21.671792
v 1.541362 119.024361 -20.425833
v 4.028207 119.576866 -19.125316
v 6.613262 119.847801 -17.773442
v 9.290430 119.812752 -16.373394
v 12.053594 119.447296 -14.928376
v 15.483043 118.589432 -13.134916
v 18.649130 117.396027 -11.479185
v 20.996273 116.210678 -10.251728
v 23.181535 114.829422 -9.108926
v 25.207883 113.260628 -8.049232
v 27.078282 111.512657 -7.071091
v 28.795694 109.593887 -6.172955
v 30.731845 106.968002 -5.160429
v 32.439379 104.104668 -4.267460
v 33.924088 101.020256 -3.491019
v 35.191761 97.731094 -2.828081
v 35.761644 95.745399 -2.530056
v 36.283342 92.989151 -2.257229
v 36.714761 88.718903 -2.031616
v 36.811823 77.232277 -1.980857
v 36.566305 65.932381 -2.109251
v 34.968907 0.008206 0.945292
v -22.074692 0.008206 -28.886127
v -22.074692 64.639755 -28.886127
v -21.996248 89.150368 -28.845104
v -21.486338 93.546181 -28.578445
v -21.043138 95.856247 -28.346669
v -20.471055 97.989624 -28.047491
v -19.479405 100.670456 -27.528901
v -18.179265 103.386208 -26.848983
v -16.585105 106.079002 -26.015304
v -14.711403 108.690941 -25.035437
v -12.572633 111.164131 -23.916947
v -10.183268 113.440689 -22.667411
v -7.557784 115.462723 -21.294392
v -4.710654 117.172348 -19.805460
v -2.438558 118.214714 -18.617249
v -0.056036 119.024361 -17.371291
v 2.430809 119.576866 -16.070773
v 5.015863 119.847801 -14.718899
v 7.693031 119.812752 -13.318851
v 10.456195 119.447296 -11.873833
v 13.885645 118.589432 -10.080373
v 17.051732 117.396027 -8.424643
v 19.398874 116.210678 -7.197185
v 21.584137 114.829422 -6.054384
v 23.610484 113.260628 -4.994689
v 25.480883 111.512657 -4.016548
v 27.198296 109.593887 -3.118413
v 29.134449 106.968002 -2.105887
v 30.841983 104.104668 -1.212918
v 32.326692 101.020256 -0.436476
v 33.594363 97.731094 0.226461
v 34.164246 95.745399 0.524487
v 34.685944 92.989151 0.797314
v 35.117363 88.718903 1.022927
v 35.214425 77.232277 1.073686
v 34.968907 65.932381 0.945292
v 36.566305 0.008206 -2.109251
v -20.477294 0.008206 -31.940670
v -20.477294 64.639755 -31.940670
v -20.398850 89.150368 -31.899647
v -19.888940 93.546181 -31.632988
v -19.445740 95.856247 -31.401212
v -18.873657 97.989624 -31.102034
v -17.882008 100.670456 -30.583444
v -16.581867 103.386208 -29.903526
v -14.987707 106.079002 -29.069847
v -13.114005 108.690941 -28.089976
v -10.975235 111.164131 -26.971490
v -8.585870 113.440689 -25.721953
v -5.960387 115.462723 -24.348933
v -3.113256 117.172348 -22.860003
v -0.841160 118.214714 -21.671792
v 1.541362 119.024361 -20.425833
v 4.028207 119.576866 -19.125316
v 6.613262 119.847801 -17.773442
v 9.290430 119.812752 -16.373394
v 12.053594 119.447296 -14.928376
v 15.483043 118.589432 -13.134916
v 18.649130 117.396027 -11.479185
v 20.996273 116.210678 -10.251728
v 23.181535 114.829422 -9.108926
v 25.207883 113.260628 -8.049232
v 27.078282 111.512657 -7.071091
v 28.795694 109.593887 -6.172955
v 30.731845 106.968002 -5.160429
v 32.439379 104.104668 -4.267460
v 33.924088 101.020256 -3.491019
v 35.191761 97.731094 -2.828081
v 35.761644 95.745399 -2.530056
v 36.283342 92.989151 -2.257229
v 36.714761 88.718903 -2.031616
v 36.811823 77.232277 -1.980857
v 36.566305 65.932381 -2.109251
vt 0.730902 0.510870
vt 0.732908 0.592687
vt 0.732115 0.675857
vt 0.728590 0.706776
vt 0.724327 0.726733
vt 0.719671 0.741110
vt 0.709313 0.764925
vt 0.697181 0.787258
vt 0.683229 0.807991
vt 0.667409 0.827003
vt 0.653376 0.840896
vt 0.638094 0.853553
vt 0.621536 0.864912
vt 0.603681 0.874913
vt 0.584503 0.883495
vt 0.558633 0.892136
vt 0.530611 0.898348
vt 0.508034 0.900994
vt 0.486159 0.901248
vt 0.465037 0.899286
vt 0.444717 0.895285
vt 0.425250 0.889423
vt 0.406685 0.881876
vt 0.383421 0.869497
vt 0.361969 0.854856
vt 0.342445 0.838373
vt 0.324970 0.820466
vt 0.309660 0.801554
vt 0.296634 0.782056
vt 0.286011 0.762393
vt 0.277908 0.742982
vt 0.273234 0.727535
vt 0.269612 0.710809
vt 0.265446 0.678981
vt 0.264805 0.501510
vt 0.264805 0.033541
vt 0.730902 0.033541
vt 0.264805 0.033541
vt 0.264805 0.501510
vt 0.265446 0.678981
vt 0.269612 0.710809
vt 0.273234 0.727535
vt 0.277908 0.742982
vt 0.286011 0.762393
vt 0.296634 0.782056
vt 0.309660 0.801554
vt 0.324970 0.820466
vt 0.342445 0.838373
vt 0.361969 0.854856
vt 0.383421 0.869497
vt 0.406685 0.881876
vt 0.425250 0.889423
vt 0.444717 0.895285
vt 0.465037 0.899286
vt 0.486159 0.901248
vt 0.508034 0.900994
vt 0.530611 0.898348
vt 0.558633 0.892136
vt 0.584503 0.883495
vt 0.603681 0.874913
vt 0.621536 0.864912
vt 0.638094 0.853553
vt 0.653376 0.840896
vt 0.667409 0.827003
vt 0.683229 0.807991
vt 0.697181 0.787258
vt 0.709313 0.764925
vt 0.719671 0.741110
vt 0.724327 0.726733
vt 0.728590 0.706776
vt 0.732115 0.675857
vt 0.732908 0.592687
vt 0.730902 0.510870
vt 0.730902 0.033541
vt 0.255234 0.018128
vt 0.255234 0.018128
vt 0.735657 0.018128
vt 0.735657 0.018128
vt 0.382648 0.471476
vt 0.402483 0.471476
vt 0.402483 0.099572
vt 0.382648 0.099572
vt 0.382648 0.612516
vt 0.402483 0.612516
vt 0.382648 0.637811
vt 0.402483 0.637811
vt 0.382648 0.651103
vt 0.402483 0.651103
vt 0.382648 0.663379
vt 0.402483 0.663379
vt 0.382648 0.678805
vt 0.402483 0.678805
vt 0.382648 0.694432
vt 0.402483 0.694432
vt 0.382648 0.709927
vt 0.402483 0.709927
vt 0.382648 0.724957
vt 0.402483 0.724957
vt 0.382648 0.739188
vt 0.402483 0.739188
vt 0.382648 0.752288
vt 0.402483 0.752288
vt 0.382648 0.763923
vt 0.402483 0.763923
vt 0.382648 0.773761
vt 0.402483 0.773761
vt 0.382648 0.779759
vt 0.402483 0.779759
vt 0.382648 0.784418
vt 0.402483 0.784418
vt 0.382648 0.787597
vt 0.402483 0.787597
vt 0.382648 0.789156
vt 0.402483 0.789156
vt 0.382648 0.788954
vt 0.402483 0.788954
vt 0.382648 0.786851
vt 0.402483 0.786851
vt 0.382648 0.781915
vt 0.402483 0.781915
vt 0.382648 0.775048
vt 0.402483 0.775048
vt 0.382648 0.768227
vt 0.402483 0.768227
vt 0.382648 0.760279
vt 0.402483 0.760279
vt 0.382648 0.751252
vt 0.402483 0.751252
vt 0.382648 0.741194
vt 0.402483 0.741194
vt 0.382648 0.730153
vt 0.402483 0.730153
vt 0.382648 0.715043
vt 0.402483 0.715043
vt 0.382648 0.698567
vt 0.402483 0.698567
vt 0.382648 0.680818
vt 0.402483 0.680818
vt 0.382648 0.661892
vt 0.402483 0.661892
vt 0.382648 0.650465
vt 0.402483 0.650465
vt 0.382648 0.634605
vt 0.402483 0.634605
vt 0.382648 0.610033
vt 0.402483 0.610033
vt 0.382648 0.543937
vt 0.402483 0.543937
vt 0.382648 0.478915
vt 0.402483 0.478915
vt 0.382648 0.099572
vt 0.402483 0.099572
vn -0.463415 0.000000 0.886141
vn -0.463415 0.000000 0.886141
vn -0.463415 0.000000 0.886141
vn -0.463415 0.000000 0.886141
vn -0.463415 0.000000 0.886141
vn -0.463415 0.000000 0.886141
vn -0.463415 0.000000 0.886141
vn -0.463415 0.000000 0.886141
vn -0.463415 0.000000 0.886141
vn -0.463415 0.000000 0.886141
vn -0.463415 0.000000 0.886141
vn -0.463415 0.000000 0.886141
vn -0.463415 0.000000 0.886141
vn -0.463415 0.000000 0.886141
vn -0.463415 0.000000 0.886141
vn -0.463415 0.000000 0.886141
vn -0.463415 0.000000 0.886141
vn -0.463415 0.000000 0.886141
vn -0.463415 0.000000 0.886141
vn -0.463415 0.000000 0.886141
vn -0.463415 0.000000 0.886141
vn -0.463415 0.000000 0.886141
vn -0.463415 0.000000 0.886141
vn -0.463415 0.000000 0.886141
vn -0.463415 0.000000 0.886141
vn -0.463415 0.000000 0.886141
vn -0.463415 0.000000 0.886141
vn -0.463415 0.000000 0.886141
vn -0.463415 0.000000 0.886141
vn -0.463415 0.000000 0.886141
vn -0.463415 0.000000 0.886141
vn -0.463415 0.000000 0.886141
vn -0.463415 0.000000 0.886141
vn -0.463415 0.000000 0.886141
vn -0.463415 0.000000 0.886141
vn -0.463415 0.000000 0.886141
vn -0.463415 0.000000 0.886141
vn 0.463415 0.000000 -0.886141
vn 0.463415 0.000000 -0.886141
vn 0.463415 0.000000 -0.886141
vn 0.463415 0.000000 -0.886141
vn 0.463415 0.000000 -0.886141
vn 0.463415 0.000000 -0.886141
vn 0.463415 0.000000 -0.886141
vn 0.463415 0.000000 -0.886141
vn 0.463415 0.000000 -0.886141
vn 0.463415 0.000000 -0.886141
vn 0.463415 0.000000 -0.886141
vn 0.463415 0.000000 -0.886141
vn 0.463415 0.000000 -0.886141
vn 0.463415 0.000000 -0.886141
vn 0.463415 0.000000 -0.886141
vn 0.463415 0.000000 -0.886141
vn 0.463415 0.000000 -0.886141
vn 0.463415 0.000000 -0.886141
vn 0.463415 0.000000 -0.886141
vn 0.463415 0.000000 -0.886141
vn 0.463415 0.000000 -0.886141
vn 0.463415 0.000000 -0.886141
vn 0.463415 0.000000 -0.886141
vn 0.463415 0.000000 -0.886141
vn 0.463415 0.000000 -0.886141
vn 0.463415 0.000000 -0.886141
vn 0.463415 0.000000 -0.886141
vn 0.463415 0.000000 -0.886141
vn 0.463415 0.000000 -0.886141
vn 0.463415 0.000000 -0.886141
vn 0.463415 0.000000 -0.886141
vn 0.463415 0.000000 -0.886141
vn 0.463415 0.000000 -0.886141
vn 0.463415 0.000000 -0.886141
vn 0.463415 0.000000 -0.886141
vn 0.463415 0.000000 -0.886141
vn 0.463415 0.000000 -0.886141
vn 0.000000 -1.000000 0.000000
vn 0.000000 -1.000000 0.000000
vn 0.000000 -1.000000 0.000000
vn 0.000000 -1.000000 0.000000
vn -0.886141 0.000000 -0.463415
vn -0.886141 0.000000 -0.463415
vn -0.886141 0.000000 -0.463415
vn -0.886141 0.000000 -0.463415
vn -0.886136 0.003612 -0.463412
vn -0.886136 0.003612 -0.463412
vn -0.886136 0.003612 -0.463412
vn -0.886136 0.003612 -0.463412
vn -0.878645 0.129796 -0.459495
vn -0.878645 0.129796 -0.459495
vn -0.878645 0.129796 -0.459495
vn -0.878645 0.129796 -0.459495
vn -0.866075 0.211605 -0.452921
vn -0.866075 0.211605 -0.452921
vn -0.866075 0.211605 -0.452921
vn -0.866075 0.211605 -0.452921
vn -0.848157 0.289641 -0.443551
vn -0.848157 0.289641 -0.443551
vn -0.848157 0.289641 -0.443551
vn -0.848157 0.289641 -0.443551
vn -0.817754 0.385217 -0.427652
vn -0.817754 0.385217 -0.427652
vn -0.817754 0.385217 -0.427652
vn -0.817754 0.385217 -0.427652
vn -0.779638 0.475321 -0.407719
vn -0.779638 0.475321 -0.407719
vn -0.779638 0.475321 -0.407719
vn -0.779638 0.475321 -0.407719
vn -0.736834 0.555512 -0.385334
vn -0.736834 0.555512 -0.385334
vn -0.736834 0.555512 -0.385334
vn -0.736834 0.555512 -0.385334
vn -0.688746 0.629202 -0.360185
vn -0.688746 0.629202 -0.360185
vn -0.688746 0.629202 -0.360185
vn -0.688746 0.629202 -0.360185
vn -0.634193 0.698429 -0.331657
vn -0.634193 0.698429 -0.331657
vn -0.634193 0.698429 -0.331657
vn -0.634193 0.698429 -0.331657
vn -0.571666 0.764083 -0.298957
vn -0.571666 0.764083 -0.298957
vn -0.571666 0.764083 -0.298957
vn -0.571666 0.764083 -0.298957
vn -0.499521 0.825977 -0.261229
vn -0.499521 0.825977 -0.261229
vn -0.499521 0.825977 -0.261229
vn -0.499521 0.825977 -0.261229
vn -0.416259 0.882803 -0.217686
vn -0.416259 0.882803 -0.217686
vn -0.416259 0.882803 -0.217686
vn -0.416259 0.882803 -0.217686
vn -0.333721 0.926376 -0.174522
vn -0.333721 0.926376 -0.174522
vn -0.333721 0.926376 -0.174522
vn -0.333721 0.926376 -0.174522
vn -0.255515 0.957526 -0.133624
vn -0.255515 0.957526 -0.133624
vn -0.255515 0.957526 -0.133624
vn -0.255515 0.957526 -0.133624
vn -0.171173 0.981166 -0.089516
vn -0.171173 0.981166 -0.089516
vn -0.171173 0.981166 -0.089516
vn -0.171173 0.981166 -0.089516
vn -0.081949 0.995715 -0.042856
vn -0.081949 0.995715 -0.042856
vn -0.081949 0.995715 -0.042856
vn -0.081949 0.995715 -0.042856
vn 0.010280 0.999933 0.005376
vn 0.010280 0.999933 0.005376
vn 0.010280 0.999933 0.005376
vn 0.010280 0.999933 0.005376
vn 0.103151 0.993202 0.053943
vn 0.103151 0.993202 0.053943
vn 0.103151 0.993202 0.053943
vn 0.103151 0.993202 0.053943
vn 0.191772 0.976302 0.100288
vn 0.191772 0.976302 0.100288
vn 0.191772 0.976302 0.100288
vn 0.191772 0.976302 0.100288
vn 0.280741 0.948488 0.146816
vn 0.280741 0.948488 0.146816
vn 0.280741 0.948488 0.146816
vn 0.280741 0.948488 0.146816
vn 0.361970 0.912768 0.189295
vn 0.361970 0.912768 0.189295
vn 0.361970 0.912768 0.189295
vn 0.361970 0.912768 0.189295
vn 0.433037 0.872465 0.226460
vn 0.433037 0.872465 0.226460
vn 0.433037 0.872465 0.226460
vn 0.433037 0.872465 0.226460
vn 0.501305 0.824600 0.262162
vn 0.501305 0.824600 0.262162
vn 0.501305 0.824600 0.262162
vn 0.501305 0.824600 0.262162
vn 0.565197 0.770187 0.295574
vn 0.565197 0.770187 0.295574
vn 0.565197 0.770187 0.295574
vn 0.565197 0.770187 0.295574
vn 0.623452 0.710638 0.326039
vn 0.623452 0.710638 0.326039
vn 0.623452 0.710638 0.326039
vn 0.623452 0.710638 0.326039
vn 0.681177 0.639610 0.356227
vn 0.681177 0.639610 0.356227
vn 0.681177 0.639610 0.356227
vn 0.681177 0.639610 0.356227
vn 0.735169 0.558315 0.384462
vn 0.735169 0.558315 0.384462
vn 0.735169 0.558315 0.384462
vn 0.735169 0.558315 0.384462
vn 0.778675 0.477329 0.407214
vn 0.778675 0.477329 0.407214
vn 0.778675 0.477329 0.407214
vn 0.778675 0.477329 0.407214
vn 0.812610 0.398840 0.424961
vn 0.812610 0.398840 0.424961
vn 0.812610 0.398840 0.424961
vn 0.812610 0.398840 0.424961
vn 0.843030 0.308114 0.440870
vn 0.843030 0.308114 0.440870
vn 0.843030 0.308114 0.440870
vn 0.843030 0.308114 0.440870
vn 0.866593 0.208885 0.453192
vn 0.866593 0.208885 0.453192
vn 0.866593 0.208885 0.453192
vn 0.866593 0.208885 0.453192
vn 0.880437 0.113278 0.460432
vn 0.880437 0.113278 0.460432
vn 0.880437 0.113278 0.460432
vn 0.880437 0.113278 0.460432
vn 0.886101 0.009534 0.463394
vn 0.886101 0.009534 0.463394
vn 0.886101 0.009534 0.463394
vn 0.886101 0.009534 0.463394
vn 0.885875 -0.024511 0.463276
vn 0.885875 -0.024511 0.463276
vn 0.885875 -0.024511 0.463276
vn 0.885875 -0.024511 0.463276
vn 0.886141 0.000000 0.463415
vn 0.886141 0.000000 0.463415
vn 0.886141 0.000000 0.463415
vn 0.886141 0.000000 0.463415
s off
g door_10:Mesh
usemtl initialShadingGroup
f 111/1/1 110/2/2 109/3/3 108/4/4 107/5/5 106/6/6 105/7/7 104/8/8 103/9/9 102/10/10 101/11/11 100/12/12 99/13/13 98/14/14 97/15/15 96/16/16 95/17/17 94/18/18 93/19/19 92/20/20 91/21/21 90/22/22 89/23/23 88/24/24 87/25/25 86/26/26 85/27/27 84/28/28 83/29/29 82/30/30 81/31/31 80/32/32 79/33/33 78/34/34 77/35/35 76/36/36 75/37/37
f 113/38/38 114/39/39 115/40/40 116/41/41 117/42/42 118/43/43 119/44/44 120/45/45 121/46/46 122/47/47 123/48/48 124/49/49 125/50/50 126/51/51 127/52/52 128/53/53 129/54/54 130/55/55 131/56/56 132/57/57 133/58/58 134/59/59 135/60/60 136/61/61 137/62/62 138/63/63 139/64/64 140/65/65 141/66/66 142/67/67 143/68/68 144/69/69 145/70/70 146/71/71 147/72/72 148/73/73 112/74/74
f 2/75/75 39/76/76 38/77/77 1/78/78
f 3/79/79 40/80/80 39/81/81 2/82/82
f 4/83/83 41/84/84 40/80/85 3/79/86
f 5/85/87 42/86/88 41/84/89 4/83/90
f 6/87/91 43/88/92 42/86/93 5/85/94
f 7/89/95 44/90/96 43/88/97 6/87/98
f 8/91/99 45/92/100 44/90/101 7/89/102
f 9/93/103 46/94/104 45/92/105 8/91/106
f 10/95/107 47/96/108 46/94/109 9/93/110
f 11/97/111 48/98/112 47/96/113 10/95/114
f 12/99/115 49/100/116 48/98/117 11/97/118
f 13/101/119 50/102/120 49/100/121 12/99/122
f 14/103/123 51/104/124 50/102/125 13/101/126
f 15/105/127 52/106/128 51/104/129 14/103/130
f 16/107/131 53/108/132 52/106/133 15/105/134
f 17/109/135 54/110/136 53/108/137 16/107/138
f 18/111/139 55/112/140 54/110/141 17/109/142
f 19/113/143 56/114/144 55/112/145 18/111/146
f 20/115/147 57/116/148 56/114/149 19/113/150
f 21/117/151 58/118/152 57/116/153 20/115/154
f 22/119/155 59/120/156 58/118/157 21/117/158
f 23/121/159 60/122/160 59/120/161 22/119/162
f 24/123/163 61/124/164 60/122/165 23/121/166
f 25/125/167 62/126/168 61/124/169 24/123/170
f 26/127/171 63/128/172 62/126/173 25/125/174
f 27/129/175 64/130/176 63/128/177 26/127/178
f 28/131/179 65/132/180 64/130/181 27/129/182
f 29/133/183 66/134/184 65/132/185 28/131/186
f 30/135/187 67/136/188 66/134/189 29/133/190
f 31/137/191 68/138/192 67/136/193 30/135/194
f 32/139/195 69/140/196 68/138/197 31/137/198
f 33/141/199 70/142/200 69/140/201 32/139/202
f 34/143/203 71/144/204 70/142/205 33/141/206
f 35/145/207 72/146/208 71/144/209 34/143/210
f 36/147/211 73/148/212 72/146/213 35/145/214
f 37/149/215 74/150/216 73/148/217 36/147/218
f 1/151/219 38/152/220 74/150/221 37/149/222
