# This file uses centimeters as units for non-parametric coordinates.

mtllib door 17.mtl
g default
v 34.309382 0.008206 1.645600
v -1.553910 0.008206 -51.811953
v -1.553910 64.639755 -51.811953
v -1.504592 89.150368 -51.738441
v -1.184011 93.546181 -51.260588
v -0.905371 95.856247 -50.845249
v -0.545704 97.989624 -50.309128
v 0.077746 100.670456 -49.379820
v 0.895144 103.386208 -48.161414
v 1.897393 106.079002 -46.667471
v 3.075389 108.690941 -44.911560
v 4.420031 111.164131 -42.907241
v 5.922225 113.440689 -40.668085
v 7.572866 115.462723 -38.207652
v 9.362855 117.172348 -35.539505
v 10.791321 118.214714 -33.410245
v 12.289212 119.024361 -31.177501
v 13.852690 119.576866 -28.846990
v 15.477914 119.847801 -26.424446
v 17.161048 119.812752 -23.915578
v 18.898249 119.447296 -21.326121
v 21.054342 118.589432 -18.112263
v 23.044860 117.396027 -15.145213
v 24.520508 116.210678 -12.945623
v 25.894382 114.829422 -10.897737
v 27.168346 113.260628 -8.998776
v 28.344265 111.512657 -7.245959
v 29.424001 109.593887 -5.636511
v 30.641261 106.968002 -3.822076
v 31.714786 104.104668 -2.221886
v 32.648222 101.020256 -0.830512
v 33.445207 97.731094 0.357465
v 33.803492 95.745399 0.891523
v 34.131483 92.989151 1.380425
v 34.402717 88.718903 1.784723
v 34.463740 77.232277 1.875682
v 34.309382 65.932381 1.645600
v 37.171901 0.008206 -0.274790
v 1.308609 0.008206 -53.732344
v 1.308609 64.639755 -53.732344
v 1.357927 89.150368 -53.658831
v 1.678508 93.546181 -53.180979
v 1.957148 95.856247 -52.765639
v 2.316815 97.989624 -52.229519
v 2.940264 100.670456 -51.300210
v 3.757663 103.386208 -50.081804
v 4.759911 106.079002 -48.587861
v 5.937906 108.690941 -46.831946
v 7.282550 111.164131 -44.827631
v 8.784744 113.440689 -42.588475
v 10.435384 115.462723 -40.128041
v 12.225374 117.172348 -37.459895
v 13.653840 118.214714 -35.330635
v 15.151731 119.024361 -33.097891
v 16.715209 119.576866 -30.767380
v 18.340433 119.847801 -28.344836
v 20.023567 119.812752 -25.835968
v 21.760768 119.447296 -23.246511
v 23.916861 118.589432 -20.032653
v 25.907379 117.396027 -17.065602
v 27.383027 116.210678 -14.866013
v 28.756900 114.829422 -12.818126
v 30.030865 113.260628 -10.919166
v 31.206784 111.512657 -9.166349
v 32.286520 109.593887 -7.556901
v 33.503778 106.968002 -5.742466
v 34.577304 104.104668 -4.142276
v 35.510739 101.020256 -2.750903
v 36.307726 97.731094 -1.562925
v 36.666011 95.745399 -1.028867
v 36.994002 92.989151 -0.539965
v 37.265236 88.718903 -0.135667
v 37.326259 77.232277 -0.044708
v 37.171901 65.932381 -0.274790
v 34.309382 0.008206 1.645600
v -1.553910 0.008206 -51.811953
v -1.553910 64.639755 -51.811953
v -1.504592 89.150368 -51.738441
v -1.184011 93.546181 -51.260588
v -0.905371 95.856247 -50.845249
v -0.545704 97.989624 -50.309128
v 0.077746 100.670456 -49.379820
v 0.895144 103.386208 -48.161414
v 1.897393 106.079002 -46.667471
v 3.075389 108.690941 -44.911560
v 4.420031 111.164131 -42.907241
v 5.922225 113.440689 -40.668085
v 7.572866 115.462723 -38.207652
v 9.362855 117.172348 -35.539505
v 10.791321 118.214714 -33.410245
v 12.289212 119.024361 -31.177501
v 13.852690 119.576866 -28.846990
v 15.477914 119.847801 -26.424446
v 17.161048 119.812752 -23.915578
v 18.898249 119.447296 -21.326121
v 21.054342 118.589432 -18.112263
v 23.044860 117.396027 -15.145213
v 24.520508 116.210678 -12.945623
v 25.894382 114.829422 -10.897737
v 27.168346 113.260628 -8.998776
v 28.344265 111.512657 -7.245959
v 29.424001 109.593887 -5.636511
v 30.641261 106.968002 -3.822076
v 31.714786 104.104668 -2.221886
v 32.648222 101.020256 -0.830512
v 33.445207 97.731094 0.357465
v 33.803492 95.745399 0.891523
v 34.131483 92.989151 1.380425
v 34.402717 88.718903 1.784723
v 34.463740 77.232277 1.875682
v 34.309382 65.932381 1.645600
v 37.171901 0.008206 -0.274790
v 1.308609 0.008206 -53.732344
v 1.308609 64.639755 -53.732344
v 1.357927 89.150368 -53.658831
v 1.678508 93.546181 -53.180979
v 1.957148 95.856247 -52.765639
v 2.316815 97.989624 -52.229519
v 2.940264 100.670456 -51.300210
v 3.757663 103.386208 -50.081804
v 4.759911 106.079002 -48.587861
v 5.937906 108.690941 -46.831946
v 7.282550 111.164131 -44.827631
v 8.784744 113.440689 -42.588475
v 10.435384 115.462723 -40.128041
v 12.225374 117.172348 -37.459895
v 13.653840 118.214714 -35.330635
v 15.151731 119.024361 -33.097891
v 16.715209 119.576866 -30.767380
v 18.340433 119.847801 -28.344836
v 20.023567 119.812752 -25.835968
v 21.760768 119.447296 -23.246511
v 23.916861 118.589432 -20.032653
v 25.907379 117.396027 -17.065602
v 27.383027 116.210678 -14.866013
v 28.756900 114.829422 -12.818126
v 30.030865 113.260628 -10.919166
v 31.206784 111.512657 -9.166349
v 32.286520 109.593887 -7.556901
v 33.503778 106.968002 -5.742466
v 34.577304 104.104668 -4.142276
v 35.510739 101.020256 -2.750903
v 36.307726 97.731094 -1.562925
v 36.666011 95.745399 -1.028867
v 36.994002 92.989151 -0.539965
v 37.265236 88.718903 -0.135667
v 37.326259 77.232277 -0.044708
v 37.171901 65.932381 -0.274790
vt 0.730902 0.510870
vt 0.732908 0.592687
vt 0.732115 0.675857
vt 0.728590 0.706776
vt 0.724327 0.726733
vt 0.719671 0.741110
vt 0.709313 0.764925
vt 0.697181 0.787258
vt 0.683229 0.807991
vt 0.667409 0.827003
vt 0.653376 0.840896
vt 0.638094 0.853553
vt 0.621536 0.864912
vt 0.603681 0.874913
vt 0.584503 0.883495
vt 0.558633 0.892136
vt 0.530611 0.898348
vt 0.508034 0.900994
vt 0.486159 0.901248
vt 0.465037 0.899286
vt 0.444717 0.895285
vt 0.425250 0.889423
vt 0.406685 0.881876
vt 0.383421 0.869497
vt 0.361969 0.854856
vt 0.342445 0.838373
vt 0.324970 0.820466
vt 0.309660 0.801554
vt 0.296634 0.782056
vt 0.286011 0.762393
vt 0.277908 0.742982
vt 0.273234 0.727535
vt 0.269612 0.710809
vt 0.265446 0.678981
vt 0.264805 0.501510
vt 0.264805 0.033541
vt 0.730902 0.033541
vt 0.264805 0.033541
vt 0.264805 0.501510
vt 0.265446 0.678981
vt 0.269612 0.710809
vt 0.273234 0.727535
vt 0.277908 0.742982
vt 0.286011 0.762393
vt 0.296634 0.782056
vt 0.309660 0.801554
vt 0.324970 0.820466
vt 0.342445 0.838373
vt 0.361969 0.854856
vt 0.383421 0.869497
vt 0.406685 0.881876
vt 0.425250 0.889423
vt 0.444717 0.895285
vt 0.465037 0.899286
vt 0.486159 0.901248
vt 0.508034 0.900994
vt 0.530611 0.898348
vt 0.558633 0.892136
vt 0.584503 0.883495
vt 0.603681 0.874913
vt 0.621536 0.864912
vt 0.638094 0.853553
vt 0.653376 0.840896
vt 0.667409 0.827003
vt 0.683229 0.807991
vt 0.697181 0.787258
vt 0.709313 0.764925
vt 0.719671 0.741110
vt 0.724327 0.726733
vt 0.728590 0.706776
vt 0.732115 0.675857
vt 0.732908 0.592687
vt 0.730902 0.510870
vt 0.730902 0.033541
vt 0.255234 0.018128
vt 0.255234 0.018128
vt 0.735657 0.018128
vt 0.735657 0.018128
vt 0.382648 0.471476
vt 0.402483 0.471476
vt 0.402483 0.099572
vt 0.382648 0.099572
vt 0.382648 0.612516
vt 0.402483 0.612516
vt 0.382648 0.637811
vt 0.402483 0.637811
vt 0.382648 0.651103
vt 0.402483 0.651103
vt 0.382648 0.663379
vt 0.402483 0.663379
vt 0.382648 0.678805
vt 0.402483 0.678805
vt 0.382648 0.694432
vt 0.402483 0.694432
vt 0.382648 0.709927
vt 0.402483 0.709927
vt 0.382648 0.724957
vt 0.402483 0.724957
vt 0.382648 0.739188
vt 0.402483 0.739188
vt 0.382648 0.752288
vt 0.402483 0.752288
vt 0.382648 0.763923
vt 0.402483 0.763923
vt 0.382648 0.773761
vt 0.402483 0.773761
vt 0.382648 0.779759
vt 0.402483 0.779759
vt 0.382648 0.784418
vt 0.402483 0.784418
vt 0.382648 0.787597
vt 0.402483 0.787597
vt 0.382648 0.789156
vt 0.402483 0.789156
vt 0.382648 0.788954
vt 0.402483 0.788954
vt 0.382648 0.786851
vt 0.402483 0.786851
vt 0.382648 0.781915
vt 0.402483 0.781915
vt 0.382648 0.775048
vt 0.402483 0.775048
vt 0.382648 0.768227
vt 0.402483 0.768227
vt 0.382648 0.760279
vt 0.402483 0.760279
vt 0.382648 0.751252
vt 0.402483 0.751252
vt 0.382648 0.741194
vt 0.402483 0.741194
vt 0.382648 0.730153
vt 0.402483 0.730153
vt 0.382648 0.715043
vt 0.402483 0.715043
vt 0.382648 0.698567
vt 0.402483 0.698567
vt 0.382648 0.680818
vt 0.402483 0.680818
vt 0.382648 0.661892
vt 0.402483 0.661892
vt 0.382648 0.650465
vt 0.402483 0.650465
vt 0.382648 0.634605
vt 0.402483 0.634605
vt 0.382648 0.610033
vt 0.402483 0.610033
vt 0.382648 0.543937
vt 0.402483 0.543937
vt 0.382648 0.478915
vt 0.402483 0.478915
vt 0.382648 0.099572
vt 0.402483 0.099572
vn -0.830434 0.000000 0.557117
vn -0.830434 0.000000 0.557117
vn -0.830434 0.000000 0.557117
vn -0.830434 0.000000 0.557117
vn -0.830434 0.000000 0.557117
vn -0.830434 0.000000 0.557117
vn -0.830434 0.000000 0.557117
vn -0.830434 0.000000 0.557117
vn -0.830434 0.000000 0.557117
vn -0.830434 0.000000 0.557117
vn -0.830434 0.000000 0.557117
vn -0.830434 0.000000 0.557117
vn -0.830434 0.000000 0.557117
vn -0.830434 0.000000 0.557117
vn -0.830434 0.000000 0.557117
vn -0.830434 0.000000 0.557117
vn -0.830434 0.000000 0.557117
vn -0.830434 0.000000 0.557117
vn -0.830434 0.000000 0.557117
vn -0.830434 0.000000 0.557117
vn -0.830434 0.000000 0.557117
vn -0.830434 0.000000 0.557117
vn -0.830434 0.000000 0.557117
vn -0.830434 0.000000 0.557117
vn -0.830434 0.000000 0.557117
vn -0.830434 0.000000 0.557117
vn -0.830434 0.000000 0.557117
vn -0.830434 0.000000 0.557117
vn -0.830434 0.000000 0.557117
vn -0.830434 0.000000 0.557117
vn -0.830434 0.000000 0.557117
vn -0.830434 0.000000 0.557117
vn -0.830434 0.000000 0.557117
vn -0.830434 0.000000 0.557117
vn -0.830434 0.000000 0.557117
vn -0.830434 0.000000 0.557117
vn -0.830434 0.000000 0.557117
vn 0.830434 0.000000 -0.557117
vn 0.830434 0.000000 -0.557117
vn 0.830434 0.000000 -0.557117
vn 0.830434 0.000000 -0.557117
vn 0.830434 0.000000 -0.557117
vn 0.830434 0.000000 -0.557117
vn 0.830434 0.000000 -0.557117
vn 0.830434 0.000000 -0.557117
vn 0.830434 0.000000 -0.557117
vn 0.830434 0.000000 -0.557117
vn 0.830434 0.000000 -0.557117
vn 0.830434 0.000000 -0.557117
vn 0.830434 0.000000 -0.557117
vn 0.830434 0.000000 -0.557117
vn 0.830434 0.000000 -0.557117
vn 0.830434 0.000000 -0.557117
vn 0.830434 0.000000 -0.557117
vn 0.830434 0.000000 -0.557117
vn 0.830434 0.000000 -0.557117
vn 0.830434 0.000000 -0.557117
vn 0.830434 0.000000 -0.557117
vn 0.830434 0.000000 -0.557117
vn 0.830434 0.000000 -0.557117
vn 0.830434 0.000000 -0.557117
vn 0.830434 0.000000 -0.557117
vn 0.830434 0.000000 -0.557117
vn 0.830434 0.000000 -0.557117
vn 0.830434 0.000000 -0.557117
vn 0.830434 0.000000 -0.557117
vn 0.830434 0.000000 -0.557117
vn 0.830434 0.000000 -0.557117
vn 0.830434 0.000000 -0.557117
vn 0.830434 0.000000 -0.557117
vn 0.830434 0.000000 -0.557117
vn 0.830434 0.000000 -0.557117
vn 0.830434 0.000000 -0.557117
vn 0.830434 0.000000 -0.557117
vn 0.000000 -1.000000 0.000000
vn 0.000000 -1.000000 0.000000
vn 0.000000 -1.000000 0.000000
vn 0.000000 -1.000000 0.000000
vn -0.557117 0.000000 -0.830434
vn -0.557117 0.000000 -0.830434
vn -0.557117 0.000000 -0.830434
vn -0.557117 0.000000 -0.830434
vn -0.557113 0.003612 -0.830429
vn -0.557113 0.003612 -0.830429
vn -0.557113 0.003612 -0.830429
vn -0.557113 0.003612 -0.830429
vn -0.552404 0.129796 -0.823409
vn -0.552404 0.129796 -0.823409
vn -0.552404 0.129796 -0.823409
vn -0.552404 0.129796 -0.823409
vn -0.544501 0.211605 -0.811629
vn -0.544501 0.211605 -0.811629
vn -0.544501 0.211605 -0.811629
vn -0.544501 0.211605 -0.811629
vn -0.533236 0.289641 -0.794838
vn -0.533236 0.289641 -0.794838
vn -0.533236 0.289641 -0.794838
vn -0.533236 0.289641 -0.794838
vn -0.514122 0.385217 -0.766346
vn -0.514122 0.385217 -0.766346
vn -0.514122 0.385217 -0.766346
vn -0.514122 0.385217 -0.766346
vn -0.490158 0.475321 -0.730627
vn -0.490158 0.475321 -0.730627
vn -0.490158 0.475321 -0.730627
vn -0.490158 0.475321 -0.730627
vn -0.463247 0.555512 -0.690513
vn -0.463247 0.555512 -0.690513
vn -0.463247 0.555512 -0.690513
vn -0.463247 0.555512 -0.690513
vn -0.433015 0.629202 -0.645448
vn -0.433015 0.629202 -0.645448
vn -0.433015 0.629202 -0.645448
vn -0.433015 0.629202 -0.645448
vn -0.398717 0.698429 -0.594325
vn -0.398717 0.698429 -0.594325
vn -0.398717 0.698429 -0.594325
vn -0.398717 0.698429 -0.594325
vn -0.359406 0.764083 -0.535728
vn -0.359406 0.764083 -0.535728
vn -0.359406 0.764083 -0.535728
vn -0.359406 0.764083 -0.535728
vn -0.314049 0.825977 -0.468119
vn -0.314049 0.825977 -0.468119
vn -0.314049 0.825977 -0.468119
vn -0.314049 0.825977 -0.468119
vn -0.261702 0.882803 -0.390090
vn -0.261702 0.882803 -0.390090
vn -0.261702 0.882803 -0.390090
vn -0.261702 0.882803 -0.390090
vn -0.209811 0.926376 -0.312742
vn -0.209811 0.926376 -0.312742
vn -0.209811 0.926376 -0.312742
vn -0.209811 0.926376 -0.312742
vn -0.160642 0.957526 -0.239452
vn -0.160642 0.957526 -0.239452
vn -0.160642 0.957526 -0.239452
vn -0.160642 0.957526 -0.239452
vn -0.107616 0.981166 -0.160412
vn -0.107616 0.981166 -0.160412
vn -0.107616 0.981166 -0.160412
vn -0.107616 0.981166 -0.160412
vn -0.051521 0.995715 -0.076797
vn -0.051521 0.995715 -0.076797
vn -0.051521 0.995715 -0.076797
vn -0.051521 0.995715 -0.076797
vn 0.006463 0.999933 0.009634
vn 0.006463 0.999933 0.009634
vn 0.006463 0.999933 0.009634
vn 0.006463 0.999933 0.009634
vn 0.064851 0.993202 0.096666
vn 0.064851 0.993202 0.096666
vn 0.064851 0.993202 0.096666
vn 0.064851 0.993202 0.096666
vn 0.120567 0.976302 0.179716
vn 0.120567 0.976302 0.179716
vn 0.120567 0.976302 0.179716
vn 0.120567 0.976302 0.179716
vn 0.176502 0.948488 0.263092
vn 0.176502 0.948488 0.263092
vn 0.176502 0.948488 0.263092
vn 0.176502 0.948488 0.263092
vn 0.227570 0.912768 0.339215
vn 0.227570 0.912768 0.339215
vn 0.227570 0.912768 0.339215
vn 0.227570 0.912768 0.339215
vn 0.272250 0.872465 0.405813
vn 0.272250 0.872465 0.405813
vn 0.272250 0.872465 0.405813
vn 0.272250 0.872465 0.405813
vn 0.315170 0.824600 0.469791
vn 0.315170 0.824600 0.469791
vn 0.315170 0.824600 0.469791
vn 0.315170 0.824600 0.469791
vn 0.355340 0.770187 0.529666
vn 0.355340 0.770187 0.529666
vn 0.355340 0.770187 0.529666
vn 0.355340 0.770187 0.529666
vn 0.391964 0.710638 0.584258
vn 0.391964 0.710638 0.584258
vn 0.391964 0.710638 0.584258
vn 0.391964 0.710638 0.584258
vn 0.428256 0.639610 0.638355
vn 0.428256 0.639610 0.638355
vn 0.428256 0.639610 0.638355
vn 0.428256 0.639610 0.638355
vn 0.462200 0.558315 0.688952
vn 0.462200 0.558315 0.688952
vn 0.462200 0.558315 0.688952
vn 0.462200 0.558315 0.688952
vn 0.489553 0.477329 0.729723
vn 0.489553 0.477329 0.729723
vn 0.489553 0.477329 0.729723
vn 0.489553 0.477329 0.729723
vn 0.510888 0.398840 0.761525
vn 0.510888 0.398840 0.761525
vn 0.510888 0.398840 0.761525
vn 0.510888 0.398840 0.761525
vn 0.530013 0.308114 0.790033
vn 0.530013 0.308114 0.790033
vn 0.530013 0.308114 0.790033
vn 0.530013 0.308114 0.790033
vn 0.544827 0.208885 0.812115
vn 0.544827 0.208885 0.812115
vn 0.544827 0.208885 0.812115
vn 0.544827 0.208885 0.812115
vn 0.553531 0.113278 0.825089
vn 0.553531 0.113278 0.825089
vn 0.553531 0.113278 0.825089
vn 0.553531 0.113278 0.825089
vn 0.557091 0.009534 0.830397
vn 0.557091 0.009534 0.830397
vn 0.557091 0.009534 0.830397
vn 0.557091 0.009534 0.830397
vn 0.556949 -0.024511 0.830185
vn 0.556949 -0.024511 0.830185
vn 0.556949 -0.024511 0.830185
vn 0.556949 -0.024511 0.830185
vn 0.557117 0.000000 0.830434
vn 0.557117 0.000000 0.830434
vn 0.557117 0.000000 0.830434
vn 0.557117 0.000000 0.830434
s off
g door_10:Mesh
usemtl initialShadingGroup
f 111/1/1 110/2/2 109/3/3 108/4/4 107/5/5 106/6/6 105/7/7 104/8/8 103/9/9 102/10/10 101/11/11 100/12/12 99/13/13 98/14/14 97/15/15 96/16/16 95/17/17 94/18/18 93/19/19 92/20/20 91/21/21 90/22/22 89/23/23 88/24/24 87/25/25 86/26/26 85/27/27 84/28/28 83/29/29 82/30/30 81/31/31 80/32/32 79/33/33 78/34/34 77/35/35 76/36/36 75/37/37
f 113/38/38 114/39/39 115/40/40 116/41/41 117/42/42 118/43/43 119/44/44 120/45/45 121/46/46 122/47/47 123/48/48 124/49/49 125/50/50 126/51/51 127/52/52 128/53/53 129/54/54 130/55/55 131/56/56 132/57/57 133/58/58 134/59/59 135/60/60 136/61/61 137/62/62 138/63/63 139/64/64 140/65/65 141/66/66 142/67/67 143/68/68 144/69/69 145/70/70 146/71/71 147/72/72 148/73/73 112/74/74
f 2/75/75 39/76/76 38/77/77 1/78/78
f 3/79/79 40/80/80 39/81/81 2/82/82
f 4/83/83 41/84/84 40/80/85 3/79/86
f 5/85/87 42/86/88 41/84/89 4/83/90
f 6/87/91 43/88/92 42/86/93 5/85/94
f 7/89/95 44/90/96 43/88/97 6/87/98
f 8/91/99 45/92/100 44/90/101 7/89/102
f 9/93/103 46/94/104 45/92/105 8/91/106
f 10/95/107 47/96/108 46/94/109 9/93/110
f 11/97/111 48/98/112 47/96/113 10/95/114
f 12/99/115 49/100/116 48/98/117 11/97/118
f 13/101/119 50/102/120 49/100/121 12/99/122
f 14/103/123 51/104/124 50/102/125 13/101/126
f 15/105/127 52/106/128 51/104/129 14/103/130
f 16/107/131 53/108/132 52/106/133 15/105/134
f 17/109/135 54/110/136 53/108/137 16/107/138
f 18/111/139 55/112/140 54/110/141 17/109/142
f 19/113/143 56/114/144 55/112/145 18/111/146
f 20/115/147 57/116/148 56/114/149 19/113/150
f 21/117/151 58/118/152 57/116/153 20/115/154
f 22/119/155 59/120/156 58/118/157 21/117/158
f 23/121/159 60/122/160 59/120/161 22/119/162
f 24/123/163 61/124/164 60/122/165 23/121/166
f 25/125/167 62/126/168 61/124/169 24/123/170
f 26/127/171 63/128/172 62/126/173 25/125/174
f 27/129/175 64/130/176 63/128/177 26/127/178
f 28/131/179 65/132/180 64/130/181 27/129/182
f 29/133/183 66/134/184 65/132/185 28/131/186
f 30/135/187 67/136/188 66/134/189 29/133/190
f 31/137/191 68/138/192 67/136/193 30/135/194
f 32/139/195 69/140/196 68/138/197 31/137/198
f 33/141/199 70/142/200 69/140/201 32/139/202
f 34/143/203 71/144/204 70/142/205 33/141/206
f 35/145/207 72/146/208 71/144/209 34/143/210
f 36/147/211 73/148/212 72/146/213 35/145/214
f 37/149/215 74/150/216 73/148/217 36/147/218
f 1/151/219 38/152/220 74/150/221 37/149/222
