# This file uses centimeters as units for non-parametric coordinates.

mtllib door 3.mtl
g default
v 35.671641 0.008206 0.907321
v -28.604374 0.008206 -2.625331
v -28.604374 64.639755 -2.625331
v -28.515984 89.150368 -2.620473
v -27.941425 93.546181 -2.588896
v -27.442032 95.856247 -2.561449
v -26.797416 97.989624 -2.526018
v -25.680038 100.670456 -2.464608
v -24.215056 103.386208 -2.384092
v -22.418777 106.079002 -2.285368
v -20.307513 108.690941 -2.169332
v -17.897573 111.164131 -2.036877
v -15.205266 113.440689 -1.888908
v -12.246904 115.462723 -1.726315
v -9.038793 117.172348 -1.549993
v -6.478623 118.214714 -1.409285
v -3.794028 119.024361 -1.261738
v -0.991881 119.576866 -1.107730
v 1.920925 119.847801 -0.947641
v 4.937525 119.812752 -0.781846
v 8.051023 119.447296 -0.610727
v 11.915285 118.589432 -0.398344
v 15.482792 117.396027 -0.202272
v 18.127523 116.210678 -0.056916
v 20.589849 114.829422 0.078416
v 22.873112 113.260628 0.203905
v 24.980655 111.512657 0.319737
v 26.915814 109.593887 0.426095
v 29.097446 106.968002 0.545998
v 31.021474 104.104668 0.651744
v 32.694426 101.020256 0.743691
v 34.122821 97.731094 0.822196
v 34.764959 95.745399 0.857488
v 35.352802 92.989151 0.889797
v 35.838919 88.718903 0.916514
v 35.948287 77.232277 0.922524
v 35.671641 65.932381 0.907321
v 35.860806 0.008206 -2.534500
v -28.415209 0.008206 -6.067151
v -28.415209 64.639755 -6.067151
v -28.326819 89.150368 -6.062294
v -27.752260 93.546181 -6.030717
v -27.252867 95.856247 -6.003270
v -26.608251 97.989624 -5.967839
v -25.490874 100.670456 -5.906428
v -24.025891 103.386208 -5.825913
v -22.229612 106.079002 -5.727189
v -20.118346 108.690941 -5.611149
v -17.708408 111.164131 -5.478698
v -15.016102 113.440689 -5.330729
v -12.057739 115.462723 -5.168134
v -8.849628 117.172348 -4.991814
v -6.289459 118.214714 -4.851106
v -3.604863 119.024361 -4.703559
v -0.802716 119.576866 -4.549551
v 2.110090 119.847801 -4.389462
v 5.126690 119.812752 -4.223667
v 8.240188 119.447296 -4.052548
v 12.104450 118.589432 -3.840164
v 15.671957 117.396027 -3.644092
v 18.316687 116.210678 -3.498737
v 20.779014 114.829422 -3.363405
v 23.062277 113.260628 -3.237915
v 25.169820 111.512657 -3.122083
v 27.104978 109.593887 -3.015725
v 29.286609 106.968002 -2.895821
v 31.210638 104.104668 -2.790075
v 32.883589 101.020256 -2.698128
v 34.311986 97.731094 -2.619625
v 34.954124 95.745399 -2.584332
v 35.541966 92.989151 -2.552023
v 36.028084 88.718903 -2.525307
v 36.137451 77.232277 -2.519297
v 35.860806 65.932381 -2.534500
v 35.671641 0.008206 0.907321
v -28.604374 0.008206 -2.625331
v -28.604374 64.639755 -2.625331
v -28.515984 89.150368 -2.620473
v -27.941425 93.546181 -2.588896
v -27.442032 95.856247 -2.561449
v -26.797416 97.989624 -2.526018
v -25.680038 100.670456 -2.464608
v -24.215056 103.386208 -2.384092
v -22.418777 106.079002 -2.285368
v -20.307513 108.690941 -2.169332
v -17.897573 111.164131 -2.036877
v -15.205266 113.440689 -1.888908
v -12.246904 115.462723 -1.726315
v -9.038793 117.172348 -1.549993
v -6.478623 118.214714 -1.409285
v -3.794028 119.024361 -1.261738
v -0.991881 119.576866 -1.107730
v 1.920925 119.847801 -0.947641
v 4.937525 119.812752 -0.781846
v 8.051023 119.447296 -0.610727
v 11.915285 118.589432 -0.398344
v 15.482792 117.396027 -0.202272
v 18.127523 116.210678 -0.056916
v 20.589849 114.829422 0.078416
v 22.873112 113.260628 0.203905
v 24.980655 111.512657 0.319737
v 26.915814 109.593887 0.426095
v 29.097446 106.968002 0.545998
v 31.021474 104.104668 0.651744
v 32.694426 101.020256 0.743691
v 34.122821 97.731094 0.822196
v 34.764959 95.745399 0.857488
v 35.352802 92.989151 0.889797
v 35.838919 88.718903 0.916514
v 35.948287 77.232277 0.922524
v 35.671641 65.932381 0.907321
v 35.860806 0.008206 -2.534500
v -28.415209 0.008206 -6.067151
v -28.415209 64.639755 -6.067151
v -28.326819 89.150368 -6.062294
v -27.752260 93.546181 -6.030717
v -27.252867 95.856247 -6.003270
v -26.608251 97.989624 -5.967839
v -25.490874 100.670456 -5.906428
v -24.025891 103.386208 -5.825913
v -22.229612 106.079002 -5.727189
v -20.118346 108.690941 -5.611149
v -17.708408 111.164131 -5.478698
v -15.016102 113.440689 -5.330729
v -12.057739 115.462723 -5.168134
v -8.849628 117.172348 -4.991814
v -6.289459 118.214714 -4.851106
v -3.604863 119.024361 -4.703559
v -0.802716 119.576866 -4.549551
v 2.110090 119.847801 -4.389462
v 5.126690 119.812752 -4.223667
v 8.240188 119.447296 -4.052548
v 12.104450 118.589432 -3.840164
v 15.671957 117.396027 -3.644092
v 18.316687 116.210678 -3.498737
v 20.779014 114.829422 -3.363405
v 23.062277 113.260628 -3.237915
v 25.169820 111.512657 -3.122083
v 27.104978 109.593887 -3.015725
v 29.286609 106.968002 -2.895821
v 31.210638 104.104668 -2.790075
v 32.883589 101.020256 -2.698128
v 34.311986 97.731094 -2.619625
v 34.954124 95.745399 -2.584332
v 35.541966 92.989151 -2.552023
v 36.028084 88.718903 -2.525307
v 36.137451 77.232277 -2.519297
v 35.860806 65.932381 -2.534500
vt 0.730902 0.510870
vt 0.732908 0.592687
vt 0.732115 0.675857
vt 0.728590 0.706776
vt 0.724327 0.726733
vt 0.719671 0.741110
vt 0.709313 0.764925
vt 0.697181 0.787258
vt 0.683229 0.807991
vt 0.667409 0.827003
vt 0.653376 0.840896
vt 0.638094 0.853553
vt 0.621536 0.864912
vt 0.603681 0.874913
vt 0.584503 0.883495
vt 0.558633 0.892136
vt 0.530611 0.898348
vt 0.508034 0.900994
vt 0.486159 0.901248
vt 0.465037 0.899286
vt 0.444717 0.895285
vt 0.425250 0.889423
vt 0.406685 0.881876
vt 0.383421 0.869497
vt 0.361969 0.854856
vt 0.342445 0.838373
vt 0.324970 0.820466
vt 0.309660 0.801554
vt 0.296634 0.782056
vt 0.286011 0.762393
vt 0.277908 0.742982
vt 0.273234 0.727535
vt 0.269612 0.710809
vt 0.265446 0.678981
vt 0.264805 0.501510
vt 0.264805 0.033541
vt 0.730902 0.033541
vt 0.264805 0.033541
vt 0.264805 0.501510
vt 0.265446 0.678981
vt 0.269612 0.710809
vt 0.273234 0.727535
vt 0.277908 0.742982
vt 0.286011 0.762393
vt 0.296634 0.782056
vt 0.309660 0.801554
vt 0.324970 0.820466
vt 0.342445 0.838373
vt 0.361969 0.854856
vt 0.383421 0.869497
vt 0.406685 0.881876
vt 0.425250 0.889423
vt 0.444717 0.895285
vt 0.465037 0.899286
vt 0.486159 0.901248
vt 0.508034 0.900994
vt 0.530611 0.898348
vt 0.558633 0.892136
vt 0.584503 0.883495
vt 0.603681 0.874913
vt 0.621536 0.864912
vt 0.638094 0.853553
vt 0.653376 0.840896
vt 0.667409 0.827003
vt 0.683229 0.807991
vt 0.697181 0.787258
vt 0.709313 0.764925
vt 0.719671 0.741110
vt 0.724327 0.726733
vt 0.728590 0.706776
vt 0.732115 0.675857
vt 0.732908 0.592687
vt 0.730902 0.510870
vt 0.730902 0.033541
vt 0.255234 0.018128
vt 0.255234 0.018128
vt 0.735657 0.018128
vt 0.735657 0.018128
vt 0.382648 0.471476
vt 0.402483 0.471476
vt 0.402483 0.099572
vt 0.382648 0.099572
vt 0.382648 0.612516
vt 0.402483 0.612516
vt 0.382648 0.637811
vt 0.402483 0.637811
vt 0.382648 0.651103
vt 0.402483 0.651103
vt 0.382648 0.663379
vt 0.402483 0.663379
vt 0.382648 0.678805
vt 0.402483 0.678805
vt 0.382648 0.694432
vt 0.402483 0.694432
vt 0.382648 0.709927
vt 0.402483 0.709927
vt 0.382648 0.724957
vt 0.402483 0.724957
vt 0.382648 0.739188
vt 0.402483 0.739188
vt 0.382648 0.752288
vt 0.402483 0.752288
vt 0.382648 0.763923
vt 0.402483 0.763923
vt 0.382648 0.773761
vt 0.402483 0.773761
vt 0.382648 0.779759
vt 0.402483 0.779759
vt 0.382648 0.784418
vt 0.402483 0.784418
vt 0.382648 0.787597
vt 0.402483 0.787597
vt 0.382648 0.789156
vt 0.402483 0.789156
vt 0.382648 0.788954
vt 0.402483 0.788954
vt 0.382648 0.786851
vt 0.402483 0.786851
vt 0.382648 0.781915
vt 0.402483 0.781915
vt 0.382648 0.775048
vt 0.402483 0.775048
vt 0.382648 0.768227
vt 0.402483 0.768227
vt 0.382648 0.760279
vt 0.402483 0.760279
vt 0.382648 0.751252
vt 0.402483 0.751252
vt 0.382648 0.741194
vt 0.402483 0.741194
vt 0.382648 0.730153
vt 0.402483 0.730153
vt 0.382648 0.715043
vt 0.402483 0.715043
vt 0.382648 0.698567
vt 0.402483 0.698567
vt 0.382648 0.680818
vt 0.402483 0.680818
vt 0.382648 0.661892
vt 0.402483 0.661892
vt 0.382648 0.650465
vt 0.402483 0.650465
vt 0.382648 0.634605
vt 0.402483 0.634605
vt 0.382648 0.610033
vt 0.402483 0.610033
vt 0.382648 0.543937
vt 0.402483 0.543937
vt 0.382648 0.478915
vt 0.402483 0.478915
vt 0.382648 0.099572
vt 0.402483 0.099572
vn -0.054878 0.000000 0.998493
vn -0.054878 0.000000 0.998493
vn -0.054878 0.000000 0.998493
vn -0.054878 0.000000 0.998493
vn -0.054878 0.000000 0.998493
vn -0.054878 0.000000 0.998493
vn -0.054878 0.000000 0.998493
vn -0.054878 0.000000 0.998493
vn -0.054878 0.000000 0.998493
vn -0.054878 0.000000 0.998493
vn -0.054878 0.000000 0.998493
vn -0.054878 0.000000 0.998493
vn -0.054878 0.000000 0.998493
vn -0.054878 0.000000 0.998493
vn -0.054878 0.000000 0.998493
vn -0.054878 0.000000 0.998493
vn -0.054878 0.000000 0.998493
vn -0.054878 0.000000 0.998493
vn -0.054878 0.000000 0.998493
vn -0.054878 0.000000 0.998493
vn -0.054878 0.000000 0.998493
vn -0.054878 0.000000 0.998493
vn -0.054878 0.000000 0.998493
vn -0.054878 0.000000 0.998493
vn -0.054878 0.000000 0.998493
vn -0.054878 0.000000 0.998493
vn -0.054878 0.000000 0.998493
vn -0.054878 0.000000 0.998493
vn -0.054878 0.000000 0.998493
vn -0.054878 0.000000 0.998493
vn -0.054878 0.000000 0.998493
vn -0.054878 0.000000 0.998493
vn -0.054878 0.000000 0.998493
vn -0.054878 0.000000 0.998493
vn -0.054878 0.000000 0.998493
vn -0.054878 0.000000 0.998493
vn -0.054878 0.000000 0.998493
vn 0.054878 0.000000 -0.998493
vn 0.054878 0.000000 -0.998493
vn 0.054878 0.000000 -0.998493
vn 0.054878 0.000000 -0.998493
vn 0.054878 0.000000 -0.998493
vn 0.054878 0.000000 -0.998493
vn 0.054878 0.000000 -0.998493
vn 0.054878 0.000000 -0.998493
vn 0.054878 0.000000 -0.998493
vn 0.054878 0.000000 -0.998493
vn 0.054878 0.000000 -0.998493
vn 0.054878 0.000000 -0.998493
vn 0.054878 0.000000 -0.998493
vn 0.054878 0.000000 -0.998493
vn 0.054878 0.000000 -0.998493
vn 0.054878 0.000000 -0.998493
vn 0.054878 0.000000 -0.998493
vn 0.054878 0.000000 -0.998493
vn 0.054878 0.000000 -0.998493
vn 0.054878 0.000000 -0.998493
vn 0.054878 0.000000 -0.998493
vn 0.054878 0.000000 -0.998493
vn 0.054878 0.000000 -0.998493
vn 0.054878 0.000000 -0.998493
vn 0.054878 0.000000 -0.998493
vn 0.054878 0.000000 -0.998493
vn 0.054878 0.000000 -0.998493
vn 0.054878 0.000000 -0.998493
vn 0.054878 0.000000 -0.998493
vn 0.054878 0.000000 -0.998493
vn 0.054878 0.000000 -0.998493
vn 0.054878 0.000000 -0.998493
vn 0.054878 0.000000 -0.998493
vn 0.054878 0.000000 -0.998493
vn 0.054878 0.000000 -0.998493
vn 0.054878 0.000000 -0.998493
vn 0.054878 0.000000 -0.998493
vn 0.000000 -1.000000 0.000000
vn 0.000000 -1.000000 0.000000
vn 0.000000 -1.000000 0.000000
vn 0.000000 -1.000000 0.000000
vn -0.998493 0.000000 -0.054878
vn -0.998493 0.000000 -0.054878
vn -0.998493 0.000000 -0.054878
vn -0.998493 0.000000 -0.054878
vn -0.998487 0.003612 -0.054877
vn -0.998487 0.003612 -0.054877
vn -0.998487 0.003612 -0.054877
vn -0.998487 0.003612 -0.054877
vn -0.990047 0.129796 -0.054413
vn -0.990047 0.129796 -0.054413
vn -0.990047 0.129796 -0.054413
vn -0.990047 0.129796 -0.054413
vn -0.975882 0.211605 -0.053636
vn -0.975882 0.211605 -0.053636
vn -0.975882 0.211605 -0.053636
vn -0.975882 0.211605 -0.053636
vn -0.955693 0.289641 -0.052525
vn -0.955693 0.289641 -0.052525
vn -0.955693 0.289641 -0.052525
vn -0.955693 0.289641 -0.052525
vn -0.921435 0.385217 -0.050643
vn -0.921435 0.385217 -0.050643
vn -0.921435 0.385217 -0.050643
vn -0.921435 0.385217 -0.050643
vn -0.878487 0.475321 -0.048283
vn -0.878487 0.475321 -0.048283
vn -0.878487 0.475321 -0.048283
vn -0.878487 0.475321 -0.048283
vn -0.830256 0.555512 -0.045631
vn -0.830256 0.555512 -0.045631
vn -0.830256 0.555512 -0.045631
vn -0.830256 0.555512 -0.045631
vn -0.776071 0.629202 -0.042653
vn -0.776071 0.629202 -0.042653
vn -0.776071 0.629202 -0.042653
vn -0.776071 0.629202 -0.042653
vn -0.714601 0.698429 -0.039275
vn -0.714601 0.698429 -0.039275
vn -0.714601 0.698429 -0.039275
vn -0.714601 0.698429 -0.039275
vn -0.644146 0.764083 -0.035403
vn -0.644146 0.764083 -0.035403
vn -0.644146 0.764083 -0.035403
vn -0.644146 0.764083 -0.035403
vn -0.562854 0.825977 -0.030935
vn -0.562854 0.825977 -0.030935
vn -0.562854 0.825977 -0.030935
vn -0.562854 0.825977 -0.030935
vn -0.469035 0.882803 -0.025778
vn -0.469035 0.882803 -0.025778
vn -0.469035 0.882803 -0.025778
vn -0.469035 0.882803 -0.025778
vn -0.376033 0.926376 -0.020667
vn -0.376033 0.926376 -0.020667
vn -0.376033 0.926376 -0.020667
vn -0.376033 0.926376 -0.020667
vn -0.287911 0.957526 -0.015824
vn -0.287911 0.957526 -0.015824
vn -0.287911 0.957526 -0.015824
vn -0.287911 0.957526 -0.015824
vn -0.192875 0.981166 -0.010601
vn -0.192875 0.981166 -0.010601
vn -0.192875 0.981166 -0.010601
vn -0.192875 0.981166 -0.010601
vn -0.092339 0.995715 -0.005075
vn -0.092339 0.995715 -0.005075
vn -0.092339 0.995715 -0.005075
vn -0.092339 0.995715 -0.005075
vn 0.011583 0.999933 0.000636
vn 0.011583 0.999933 0.000636
vn 0.011583 0.999933 0.000636
vn 0.011583 0.999933 0.000636
vn 0.116229 0.993202 0.006388
vn 0.116229 0.993202 0.006388
vn 0.116229 0.993202 0.006388
vn 0.116229 0.993202 0.006388
vn 0.216086 0.976302 0.011876
vn 0.216086 0.976302 0.011876
vn 0.216086 0.976302 0.011876
vn 0.216086 0.976302 0.011876
vn 0.316335 0.948488 0.017386
vn 0.316335 0.948488 0.017386
vn 0.316335 0.948488 0.017386
vn 0.316335 0.948488 0.017386
vn 0.407863 0.912768 0.022417
vn 0.407863 0.912768 0.022417
vn 0.407863 0.912768 0.022417
vn 0.407863 0.912768 0.022417
vn 0.487940 0.872465 0.026817
vn 0.487940 0.872465 0.026817
vn 0.487940 0.872465 0.026817
vn 0.487940 0.872465 0.026817
vn 0.564864 0.824600 0.031045
vn 0.564864 0.824600 0.031045
vn 0.564864 0.824600 0.031045
vn 0.564864 0.824600 0.031045
vn 0.636857 0.770187 0.035002
vn 0.636857 0.770187 0.035002
vn 0.636857 0.770187 0.035002
vn 0.636857 0.770187 0.035002
vn 0.702498 0.710638 0.038610
vn 0.702498 0.710638 0.038610
vn 0.702498 0.710638 0.038610
vn 0.702498 0.710638 0.038610
vn 0.767542 0.639610 0.042185
vn 0.767542 0.639610 0.042185
vn 0.767542 0.639610 0.042185
vn 0.767542 0.639610 0.042185
vn 0.828379 0.558315 0.045528
vn 0.828379 0.558315 0.045528
vn 0.828379 0.558315 0.045528
vn 0.828379 0.558315 0.045528
vn 0.877401 0.477329 0.048222
vn 0.877401 0.477329 0.048222
vn 0.877401 0.477329 0.048222
vn 0.877401 0.477329 0.048222
vn 0.915639 0.398840 0.050324
vn 0.915639 0.398840 0.050324
vn 0.915639 0.398840 0.050324
vn 0.915639 0.398840 0.050324
vn 0.949916 0.308114 0.052208
vn 0.949916 0.308114 0.052208
vn 0.949916 0.308114 0.052208
vn 0.949916 0.308114 0.052208
vn 0.976467 0.208885 0.053667
vn 0.976467 0.208885 0.053667
vn 0.976467 0.208885 0.053667
vn 0.976467 0.208885 0.053667
vn 0.992066 0.113278 0.054525
vn 0.992066 0.113278 0.054525
vn 0.992066 0.113278 0.054525
vn 0.992066 0.113278 0.054525
vn 0.998448 0.009534 0.054876
vn 0.998448 0.009534 0.054876
vn 0.998448 0.009534 0.054876
vn 0.998448 0.009534 0.054876
vn 0.998193 -0.024511 0.054861
vn 0.998193 -0.024511 0.054861
vn 0.998193 -0.024511 0.054861
vn 0.998193 -0.024511 0.054861
vn 0.998493 0.000000 0.054878
vn 0.998493 0.000000 0.054878
vn 0.998493 0.000000 0.054878
vn 0.998493 0.000000 0.054878
s off
g door_10:Mesh
usemtl initialShadingGroup
f 111/1/1 110/2/2 109/3/3 108/4/4 107/5/5 106/6/6 105/7/7 104/8/8 103/9/9 102/10/10 101/11/11 100/12/12 99/13/13 98/14/14 97/15/15 96/16/16 95/17/17 94/18/18 93/19/19 92/20/20 91/21/21 90/22/22 89/23/23 88/24/24 87/25/25 86/26/26 85/27/27 84/28/28 83/29/29 82/30/30 81/31/31 80/32/32 79/33/33 78/34/34 77/35/35 76/36/36 75/37/37
f 113/38/38 114/39/39 115/40/40 116/41/41 117/42/42 118/43/43 119/44/44 120/45/45 121/46/46 122/47/47 123/48/48 124/49/49 125/50/50 126/51/51 127/52/52 128/53/53 129/54/54 130/55/55 131/56/56 132/57/57 133/58/58 134/59/59 135/60/60 136/61/61 137/62/62 138/63/63 139/64/64 140/65/65 141/66/66 142/67/67 143/68/68 144/69/69 145/70/70 146/71/71 147/72/72 148/73/73 112/74/74
f 2/75/75 39/76/76 38/77/77 1/78/78
f 3/79/79 40/80/80 39/81/81 2/82/82
f 4/83/83 41/84/84 40/80/85 3/79/86
f 5/85/87 42/86/88 41/84/89 4/83/90
f 6/87/91 43/88/92 42/86/93 5/85/94
f 7/89/95 44/90/96 43/88/97 6/87/98
f 8/91/99 45/92/100 44/90/101 7/89/102
f 9/93/103 46/94/104 45/92/105 8/91/106
f 10/95/107 47/96/108 46/94/109 9/93/110
f 11/97/111 48/98/112 47/96/113 10/95/114
f 12/99/115 49/100/116 48/98/117 11/97/118
f 13/101/119 50/102/120 49/100/121 12/99/122
f 14/103/123 51/104/124 50/102/125 13/101/126
f 15/105/127 52/106/128 51/104/129 14/103/130
f 16/107/131 53/108/132 52/106/133 15/105/134
f 17/109/135 54/110/136 53/108/137 16/107/138
f 18/111/139 55/112/140 54/110/141 17/109/142
f 19/113/143 56/114/144 55/112/145 18/111/146
f 20/115/147 57/116/148 56/114/149 19/113/150
f 21/117/151 58/118/152 57/116/153 20/115/154
f 22/119/155 59/120/156 58/118/157 21/117/158
f 23/121/159 60/122/160 59/120/161 22/119/162
f 24/123/163 61/124/164 60/122/165 23/121/166
f 25/125/167 62/126/168 61/124/169 24/123/170
f 26/127/171 63/128/172 62/126/173 25/125/174
f 27/129/175 64/130/176 63/128/177 26/127/178
f 28/131/179 65/132/180 64/130/181 27/129/182
f 29/133/183 66/134/184 65/132/185 28/131/186
f 30/135/187 67/136/188 66/134/189 29/133/190
f 31/137/191 68/138/192 67/136/193 30/135/194
f 32/139/195 69/140/196 68/138/197 31/137/198
f 33/141/199 70/142/200 69/140/201 32/139/202
f 34/143/203 71/144/204 70/142/205 33/141/206
f 35/145/207 72/146/208 71/144/209 34/143/210
f 36/147/211 73/148/212 72/146/213 35/145/214
f 37/149/215 74/150/216 73/148/217 36/147/218
f 1/151/219 38/152/220 74/150/221 37/149/222
