# This file uses centimeters as units for non-parametric coordinates.

mtllib door 7.mtl
g default
v 35.455911 0.008206 0.755513
v -24.205545 0.008206 -23.418777
v -24.205545 64.639755 -23.418777
v -24.123501 89.150368 -23.385534
v -23.590191 93.546181 -23.169443
v -23.126651 95.856247 -22.981620
v -22.528314 97.989624 -22.739177
v -21.491155 100.670456 -22.318931
v -20.131349 103.386208 -21.767950
v -18.464029 106.079002 -21.092368
v -16.504339 108.690941 -20.298319
v -14.267416 111.164131 -19.391935
v -11.768397 113.440689 -18.379357
v -9.022425 115.462723 -17.266713
v -6.044633 117.172348 -16.060137
v -3.668266 118.214714 -15.097254
v -1.176405 119.024361 -14.087575
v 1.424568 119.576866 -13.033683
v 4.128256 119.847801 -11.938174
v 6.928285 119.812752 -10.803626
v 9.818257 119.447296 -9.632637
v 13.405091 118.589432 -8.179282
v 16.716477 117.396027 -6.837539
v 19.171335 116.210678 -5.842852
v 21.456884 114.829422 -4.916768
v 23.576225 113.260628 -4.058030
v 25.532461 111.512657 -3.265380
v 27.328690 109.593887 -2.537564
v 29.353697 106.968002 -1.717050
v 31.139593 104.104668 -0.993421
v 32.692439 101.020256 -0.364221
v 34.018286 97.731094 0.172999
v 34.614323 95.745399 0.414508
v 35.159962 92.989151 0.635598
v 35.611180 88.718903 0.818426
v 35.712696 77.232277 0.859559
v 35.455911 65.932381 0.755513
v 36.750384 0.008206 -2.439209
v -22.911072 0.008206 -26.613499
v -22.911072 64.639755 -26.613499
v -22.829028 89.150368 -26.580256
v -22.295718 93.546181 -26.364165
v -21.832178 95.856247 -26.176343
v -21.233841 97.989624 -25.933899
v -20.196683 100.670456 -25.513653
v -18.836876 103.386208 -24.962673
v -17.169557 106.079002 -24.287090
v -15.209865 108.690941 -23.493038
v -12.972943 111.164131 -22.586658
v -10.473924 113.440689 -21.574080
v -7.727952 115.462723 -20.461434
v -4.750160 117.172348 -19.254859
v -2.373792 118.214714 -18.291977
v 0.118068 119.024361 -17.282298
v 2.719041 119.576866 -16.228406
v 5.422729 119.847801 -15.132896
v 8.222758 119.812752 -13.998349
v 11.112730 119.447296 -12.827359
v 14.699565 118.589432 -11.374005
v 18.010950 117.396027 -10.032261
v 20.465808 116.210678 -9.037575
v 22.751358 114.829422 -8.111490
v 24.870699 113.260628 -7.252752
v 26.826935 111.512657 -6.460103
v 28.623163 109.593887 -5.732287
v 30.648168 106.968002 -4.911772
v 32.434065 104.104668 -4.188142
v 33.986910 101.020256 -3.558943
v 35.312759 97.731094 -3.021723
v 35.908796 95.745399 -2.780214
v 36.454435 92.989151 -2.559125
v 36.905654 88.718903 -2.376296
v 37.007169 77.232277 -2.335164
v 36.750384 65.932381 -2.439209
v 35.455911 0.008206 0.755513
v -24.205545 0.008206 -23.418777
v -24.205545 64.639755 -23.418777
v -24.123501 89.150368 -23.385534
v -23.590191 93.546181 -23.169443
v -23.126651 95.856247 -22.981620
v -22.528314 97.989624 -22.739177
v -21.491155 100.670456 -22.318931
v -20.131349 103.386208 -21.767950
v -18.464029 106.079002 -21.092368
v -16.504339 108.690941 -20.298319
v -14.267416 111.164131 -19.391935
v -11.768397 113.440689 -18.379357
v -9.022425 115.462723 -17.266713
v -6.044633 117.172348 -16.060137
v -3.668266 118.214714 -15.097254
v -1.176405 119.024361 -14.087575
v 1.424568 119.576866 -13.033683
v 4.128256 119.847801 -11.938174
v 6.928285 119.812752 -10.803626
v 9.818257 119.447296 -9.632637
v 13.405091 118.589432 -8.179282
v 16.716477 117.396027 -6.837539
v 19.171335 116.210678 -5.842852
v 21.456884 114.829422 -4.916768
v 23.576225 113.260628 -4.058030
v 25.532461 111.512657 -3.265380
v 27.328690 109.593887 -2.537564
v 29.353697 106.968002 -1.717050
v 31.139593 104.104668 -0.993421
v 32.692439 101.020256 -0.364221
v 34.018286 97.731094 0.172999
v 34.614323 95.745399 0.414508
v 35.159962 92.989151 0.635598
v 35.611180 88.718903 0.818426
v 35.712696 77.232277 0.859559
v 35.455911 65.932381 0.755513
v 36.750384 0.008206 -2.439209
v -22.911072 0.008206 -26.613499
v -22.911072 64.639755 -26.613499
v -22.829028 89.150368 -26.580256
v -22.295718 93.546181 -26.364165
v -21.832178 95.856247 -26.176343
v -21.233841 97.989624 -25.933899
v -20.196683 100.670456 -25.513653
v -18.836876 103.386208 -24.962673
v -17.169557 106.079002 -24.287090
v -15.209865 108.690941 -23.493038
v -12.972943 111.164131 -22.586658
v -10.473924 113.440689 -21.574080
v -7.727952 115.462723 -20.461434
v -4.750160 117.172348 -19.254859
v -2.373792 118.214714 -18.291977
v 0.118068 119.024361 -17.282298
v 2.719041 119.576866 -16.228406
v 5.422729 119.847801 -15.132896
v 8.222758 119.812752 -13.998349
v 11.112730 119.447296 -12.827359
v 14.699565 118.589432 -11.374005
v 18.010950 117.396027 -10.032261
v 20.465808 116.210678 -9.037575
v 22.751358 114.829422 -8.111490
v 24.870699 113.260628 -7.252752
v 26.826935 111.512657 -6.460103
v 28.623163 109.593887 -5.732287
v 30.648168 106.968002 -4.911772
v 32.434065 104.104668 -4.188142
v 33.986910 101.020256 -3.558943
v 35.312759 97.731094 -3.021723
v 35.908796 95.745399 -2.780214
v 36.454435 92.989151 -2.559125
v 36.905654 88.718903 -2.376296
v 37.007169 77.232277 -2.335164
v 36.750384 65.932381 -2.439209
vt 0.730902 0.510870
vt 0.732908 0.592687
vt 0.732115 0.675857
vt 0.728590 0.706776
vt 0.724327 0.726733
vt 0.719671 0.741110
vt 0.709313 0.764925
vt 0.697181 0.787258
vt 0.683229 0.807991
vt 0.667409 0.827003
vt 0.653376 0.840896
vt 0.638094 0.853553
vt 0.621536 0.864912
vt 0.603681 0.874913
vt 0.584503 0.883495
vt 0.558633 0.892136
vt 0.530611 0.898348
vt 0.508034 0.900994
vt 0.486159 0.901248
vt 0.465037 0.899286
vt 0.444717 0.895285
vt 0.425250 0.889423
vt 0.406685 0.881876
vt 0.383421 0.869497
vt 0.361969 0.854856
vt 0.342445 0.838373
vt 0.324970 0.820466
vt 0.309660 0.801554
vt 0.296634 0.782056
vt 0.286011 0.762393
vt 0.277908 0.742982
vt 0.273234 0.727535
vt 0.269612 0.710809
vt 0.265446 0.678981
vt 0.264805 0.501510
vt 0.264805 0.033541
vt 0.730902 0.033541
vt 0.264805 0.033541
vt 0.264805 0.501510
vt 0.265446 0.678981
vt 0.269612 0.710809
vt 0.273234 0.727535
vt 0.277908 0.742982
vt 0.286011 0.762393
vt 0.296634 0.782056
vt 0.309660 0.801554
vt 0.324970 0.820466
vt 0.342445 0.838373
vt 0.361969 0.854856
vt 0.383421 0.869497
vt 0.406685 0.881876
vt 0.425250 0.889423
vt 0.444717 0.895285
vt 0.465037 0.899286
vt 0.486159 0.901248
vt 0.508034 0.900994
vt 0.530611 0.898348
vt 0.558633 0.892136
vt 0.584503 0.883495
vt 0.603681 0.874913
vt 0.621536 0.864912
vt 0.638094 0.853553
vt 0.653376 0.840896
vt 0.667409 0.827003
vt 0.683229 0.807991
vt 0.697181 0.787258
vt 0.709313 0.764925
vt 0.719671 0.741110
vt 0.724327 0.726733
vt 0.728590 0.706776
vt 0.732115 0.675857
vt 0.732908 0.592687
vt 0.730902 0.510870
vt 0.730902 0.033541
vt 0.255234 0.018128
vt 0.255234 0.018128
vt 0.735657 0.018128
vt 0.735657 0.018128
vt 0.382648 0.471476
vt 0.402483 0.471476
vt 0.402483 0.099572
vt 0.382648 0.099572
vt 0.382648 0.612516
vt 0.402483 0.612516
vt 0.382648 0.637811
vt 0.402483 0.637811
vt 0.382648 0.651103
vt 0.402483 0.651103
vt 0.382648 0.663379
vt 0.402483 0.663379
vt 0.382648 0.678805
vt 0.402483 0.678805
vt 0.382648 0.694432
vt 0.402483 0.694432
vt 0.382648 0.709927
vt 0.402483 0.709927
vt 0.382648 0.724957
vt 0.402483 0.724957
vt 0.382648 0.739188
vt 0.402483 0.739188
vt 0.382648 0.752288
vt 0.402483 0.752288
vt 0.382648 0.763923
vt 0.402483 0.763923
vt 0.382648 0.773761
vt 0.402483 0.773761
vt 0.382648 0.779759
vt 0.402483 0.779759
vt 0.382648 0.784418
vt 0.402483 0.784418
vt 0.382648 0.787597
vt 0.402483 0.787597
vt 0.382648 0.789156
vt 0.402483 0.789156
vt 0.382648 0.788954
vt 0.402483 0.788954
vt 0.382648 0.786851
vt 0.402483 0.786851
vt 0.382648 0.781915
vt 0.402483 0.781915
vt 0.382648 0.775048
vt 0.402483 0.775048
vt 0.382648 0.768227
vt 0.402483 0.768227
vt 0.382648 0.760279
vt 0.402483 0.760279
vt 0.382648 0.751252
vt 0.402483 0.751252
vt 0.382648 0.741194
vt 0.402483 0.741194
vt 0.382648 0.730153
vt 0.402483 0.730153
vt 0.382648 0.715043
vt 0.402483 0.715043
vt 0.382648 0.698567
vt 0.402483 0.698567
vt 0.382648 0.680818
vt 0.402483 0.680818
vt 0.382648 0.661892
vt 0.402483 0.661892
vt 0.382648 0.650465
vt 0.402483 0.650465
vt 0.382648 0.634605
vt 0.402483 0.634605
vt 0.382648 0.610033
vt 0.402483 0.610033
vt 0.382648 0.543937
vt 0.402483 0.543937
vt 0.382648 0.478915
vt 0.402483 0.478915
vt 0.382648 0.099572
vt 0.402483 0.099572
vn -0.375535 0.000000 0.926808
vn -0.375535 0.000000 0.926808
vn -0.375535 0.000000 0.926808
vn -0.375535 0.000000 0.926808
vn -0.375535 0.000000 0.926808
vn -0.375535 0.000000 0.926808
vn -0.375535 0.000000 0.926808
vn -0.375535 0.000000 0.926808
vn -0.375535 0.000000 0.926808
vn -0.375535 0.000000 0.926808
vn -0.375535 0.000000 0.926808
vn -0.375535 0.000000 0.926808
vn -0.375535 0.000000 0.926808
vn -0.375535 0.000000 0.926808
vn -0.375535 0.000000 0.926808
vn -0.375535 0.000000 0.926808
vn -0.375535 0.000000 0.926808
vn -0.375535 0.000000 0.926808
vn -0.375535 0.000000 0.926808
vn -0.375535 0.000000 0.926808
vn -0.375535 0.000000 0.926808
vn -0.375535 0.000000 0.926808
vn -0.375535 0.000000 0.926808
vn -0.375535 0.000000 0.926808
vn -0.375535 0.000000 0.926808
vn -0.375535 0.000000 0.926808
vn -0.375535 0.000000 0.926808
vn -0.375535 0.000000 0.926808
vn -0.375535 0.000000 0.926808
vn -0.375535 0.000000 0.926808
vn -0.375535 0.000000 0.926808
vn -0.375535 0.000000 0.926808
vn -0.375535 0.000000 0.926808
vn -0.375535 0.000000 0.926808
vn -0.375535 0.000000 0.926808
vn -0.375535 0.000000 0.926808
vn -0.375535 0.000000 0.926808
vn 0.375535 0.000000 -0.926808
vn 0.375535 0.000000 -0.926808
vn 0.375535 0.000000 -0.926808
vn 0.375535 0.000000 -0.926808
vn 0.375535 0.000000 -0.926808
vn 0.375535 0.000000 -0.926808
vn 0.375535 0.000000 -0.926808
vn 0.375535 0.000000 -0.926808
vn 0.375535 0.000000 -0.926808
vn 0.375535 0.000000 -0.926808
vn 0.375535 0.000000 -0.926808
vn 0.375535 0.000000 -0.926808
vn 0.375535 0.000000 -0.926808
vn 0.375535 0.000000 -0.926808
vn 0.375535 0.000000 -0.926808
vn 0.375535 0.000000 -0.926808
vn 0.375535 0.000000 -0.926808
vn 0.375535 0.000000 -0.926808
vn 0.375535 0.000000 -0.926808
vn 0.375535 0.000000 -0.926808
vn 0.375535 0.000000 -0.926808
vn 0.375535 0.000000 -0.926808
vn 0.375535 0.000000 -0.926808
vn 0.375535 0.000000 -0.926808
vn 0.375535 0.000000 -0.926808
vn 0.375535 0.000000 -0.926808
vn 0.375535 0.000000 -0.926808
vn 0.375535 0.000000 -0.926808
vn 0.375535 0.000000 -0.926808
vn 0.375535 0.000000 -0.926808
vn 0.375535 0.000000 -0.926808
vn 0.375535 0.000000 -0.926808
vn 0.375535 0.000000 -0.926808
vn 0.375535 0.000000 -0.926808
vn 0.375535 0.000000 -0.926808
vn 0.375535 0.000000 -0.926808
vn 0.375535 0.000000 -0.926808
vn 0.000000 -1.000000 0.000000
vn 0.000000 -1.000000 0.000000
vn 0.000000 -1.000000 0.000000
vn 0.000000 -1.000000 0.000000
vn -0.926808 0.000000 -0.375535
vn -0.926808 0.000000 -0.375535
vn -0.926808 0.000000 -0.375535
vn -0.926808 0.000000 -0.375535
vn -0.926802 0.003612 -0.375532
vn -0.926802 0.003612 -0.375532
vn -0.926802 0.003612 -0.375532
vn -0.926802 0.003612 -0.375532
vn -0.918968 0.129796 -0.372358
vn -0.918968 0.129796 -0.372358
vn -0.918968 0.129796 -0.372358
vn -0.918968 0.129796 -0.372358
vn -0.905821 0.211605 -0.367031
vn -0.905821 0.211605 -0.367031
vn -0.905821 0.211605 -0.367031
vn -0.905821 0.211605 -0.367031
vn -0.887081 0.289641 -0.359437
vn -0.887081 0.289641 -0.359437
vn -0.887081 0.289641 -0.359437
vn -0.887081 0.289641 -0.359437
vn -0.855283 0.385217 -0.346553
vn -0.855283 0.385217 -0.346553
vn -0.855283 0.385217 -0.346553
vn -0.855283 0.385217 -0.346553
vn -0.815417 0.475321 -0.330400
vn -0.815417 0.475321 -0.330400
vn -0.815417 0.475321 -0.330400
vn -0.815417 0.475321 -0.330400
vn -0.770649 0.555512 -0.312260
vn -0.770649 0.555512 -0.312260
vn -0.770649 0.555512 -0.312260
vn -0.770649 0.555512 -0.312260
vn -0.720354 0.629202 -0.291881
vn -0.720354 0.629202 -0.291881
vn -0.720354 0.629202 -0.291881
vn -0.720354 0.629202 -0.291881
vn -0.663298 0.698429 -0.268763
vn -0.663298 0.698429 -0.268763
vn -0.663298 0.698429 -0.268763
vn -0.663298 0.698429 -0.268763
vn -0.597901 0.764083 -0.242264
vn -0.597901 0.764083 -0.242264
vn -0.597901 0.764083 -0.242264
vn -0.597901 0.764083 -0.242264
vn -0.522445 0.825977 -0.211690
vn -0.522445 0.825977 -0.211690
vn -0.522445 0.825977 -0.211690
vn -0.522445 0.825977 -0.211690
vn -0.435362 0.882803 -0.176404
vn -0.435362 0.882803 -0.176404
vn -0.435362 0.882803 -0.176404
vn -0.435362 0.882803 -0.176404
vn -0.349037 0.926376 -0.141426
vn -0.349037 0.926376 -0.141426
vn -0.349037 0.926376 -0.141426
vn -0.349037 0.926376 -0.141426
vn -0.267241 0.957526 -0.108284
vn -0.267241 0.957526 -0.108284
vn -0.267241 0.957526 -0.108284
vn -0.267241 0.957526 -0.108284
vn -0.179028 0.981166 -0.072541
vn -0.179028 0.981166 -0.072541
vn -0.179028 0.981166 -0.072541
vn -0.179028 0.981166 -0.072541
vn -0.085709 0.995715 -0.034729
vn -0.085709 0.995715 -0.034729
vn -0.085709 0.995715 -0.034729
vn -0.085709 0.995715 -0.034729
vn 0.010752 0.999933 0.004356
vn 0.010752 0.999933 0.004356
vn 0.010752 0.999933 0.004356
vn 0.010752 0.999933 0.004356
vn 0.107884 0.993202 0.043713
vn 0.107884 0.993202 0.043713
vn 0.107884 0.993202 0.043713
vn 0.107884 0.993202 0.043713
vn 0.200573 0.976302 0.081270
vn 0.200573 0.976302 0.081270
vn 0.200573 0.976302 0.081270
vn 0.200573 0.976302 0.081270
vn 0.293625 0.948488 0.118974
vn 0.293625 0.948488 0.118974
vn 0.293625 0.948488 0.118974
vn 0.293625 0.948488 0.118974
vn 0.378581 0.912768 0.153398
vn 0.378581 0.912768 0.153398
vn 0.378581 0.912768 0.153398
vn 0.378581 0.912768 0.153398
vn 0.452910 0.872465 0.183515
vn 0.452910 0.872465 0.183515
vn 0.452910 0.872465 0.183515
vn 0.452910 0.872465 0.183515
vn 0.524311 0.824600 0.212446
vn 0.524311 0.824600 0.212446
vn 0.524311 0.824600 0.212446
vn 0.524311 0.824600 0.212446
vn 0.591136 0.770187 0.239522
vn 0.591136 0.770187 0.239522
vn 0.591136 0.770187 0.239522
vn 0.591136 0.770187 0.239522
vn 0.652063 0.710638 0.264210
vn 0.652063 0.710638 0.264210
vn 0.652063 0.710638 0.264210
vn 0.652063 0.710638 0.264210
vn 0.712438 0.639610 0.288673
vn 0.712438 0.639610 0.288673
vn 0.712438 0.639610 0.288673
vn 0.712438 0.639610 0.288673
vn 0.768907 0.558315 0.311554
vn 0.768907 0.558315 0.311554
vn 0.768907 0.558315 0.311554
vn 0.768907 0.558315 0.311554
vn 0.814410 0.477329 0.329991
vn 0.814410 0.477329 0.329991
vn 0.814410 0.477329 0.329991
vn 0.814410 0.477329 0.329991
vn 0.849903 0.398840 0.344372
vn 0.849903 0.398840 0.344372
vn 0.849903 0.398840 0.344372
vn 0.849903 0.398840 0.344372
vn 0.881719 0.308114 0.357265
vn 0.881719 0.308114 0.357265
vn 0.881719 0.308114 0.357265
vn 0.881719 0.308114 0.357265
vn 0.906363 0.208885 0.367250
vn 0.906363 0.208885 0.367250
vn 0.906363 0.208885 0.367250
vn 0.906363 0.208885 0.367250
vn 0.920843 0.113278 0.373118
vn 0.920843 0.113278 0.373118
vn 0.920843 0.113278 0.373118
vn 0.920843 0.113278 0.373118
vn 0.926766 0.009534 0.375518
vn 0.926766 0.009534 0.375518
vn 0.926766 0.009534 0.375518
vn 0.926766 0.009534 0.375518
vn 0.926530 -0.024511 0.375422
vn 0.926530 -0.024511 0.375422
vn 0.926530 -0.024511 0.375422
vn 0.926530 -0.024511 0.375422
vn 0.926808 0.000000 0.375535
vn 0.926808 0.000000 0.375535
vn 0.926808 0.000000 0.375535
vn 0.926808 0.000000 0.375535
s off
g door_10:Mesh
usemtl initialShadingGroup
f 111/1/1 110/2/2 109/3/3 108/4/4 107/5/5 106/6/6 105/7/7 104/8/8 103/9/9 102/10/10 101/11/11 100/12/12 99/13/13 98/14/14 97/15/15 96/16/16 95/17/17 94/18/18 93/19/19 92/20/20 91/21/21 90/22/22 89/23/23 88/24/24 87/25/25 86/26/26 85/27/27 84/28/28 83/29/29 82/30/30 81/31/31 80/32/32 79/33/33 78/34/34 77/35/35 76/36/36 75/37/37
f 113/38/38 114/39/39 115/40/40 116/41/41 117/42/42 118/43/43 119/44/44 120/45/45 121/46/46 122/47/47 123/48/48 124/49/49 125/50/50 126/51/51 127/52/52 128/53/53 129/54/54 130/55/55 131/56/56 132/57/57 133/58/58 134/59/59 135/60/60 136/61/61 137/62/62 138/63/63 139/64/64 140/65/65 141/66/66 142/67/67 143/68/68 144/69/69 145/70/70 146/71/71 147/72/72 148/73/73 112/74/74
f 2/75/75 39/76/76 38/77/77 1/78/78
f 3/79/79 40/80/80 39/81/81 2/82/82
f 4/83/83 41/84/84 40/80/85 3/79/86
f 5/85/87 42/86/88 41/84/89 4/83/90
f 6/87/91 43/88/92 42/86/93 5/85/94
f 7/89/95 44/90/96 43/88/97 6/87/98
f 8/91/99 45/92/100 44/90/101 7/89/102
f 9/93/103 46/94/104 45/92/105 8/91/106
f 10/95/107 47/96/108 46/94/109 9/93/110
f 11/97/111 48/98/112 47/96/113 10/95/114
f 12/99/115 49/100/116 48/98/117 11/97/118
f 13/101/119 50/102/120 49/100/121 12/99/122
f 14/103/123 51/104/124 50/102/125 13/101/126
f 15/105/127 52/106/128 51/104/129 14/103/130
f 16/107/131 53/108/132 52/106/133 15/105/134
f 17/109/135 54/110/136 53/108/137 16/107/138
f 18/111/139 55/112/140 54/110/141 17/109/142
f 19/113/143 56/114/144 55/112/145 18/111/146
f 20/115/147 57/116/148 56/114/149 19/113/150
f 21/117/151 58/118/152 57/116/153 20/115/154
f 22/119/155 59/120/156 58/118/157 21/117/158
f 23/121/159 60/122/160 59/120/161 22/119/162
f 24/123/163 61/124/164 60/122/165 23/121/166
f 25/125/167 62/126/168 61/124/169 24/123/170
f 26/127/171 63/128/172 62/126/173 25/125/174
f 27/129/175 64/130/176 63/128/177 26/127/178
f 28/131/179 65/132/180 64/130/181 27/129/182
f 29/133/183 66/134/184 65/132/185 28/131/186
f 30/135/187 67/136/188 66/134/189 29/133/190
f 31/137/191 68/138/192 67/136/193 30/135/194
f 32/139/195 69/140/196 68/138/197 31/137/198
f 33/141/199 70/142/200 69/140/201 32/139/202
f 34/143/203 71/144/204 70/142/205 33/141/206
f 35/145/207 72/146/208 71/144/209 34/143/210
f 36/147/211 73/148/212 72/146/213 35/145/214
f 37/149/215 74/150/216 73/148/217 36/147/218
f 1/151/219 38/152/220 74/150/221 37/149/222
