# This file uses centimeters as units for non-parametric coordinates.

mtllib door 24.mtl
g default
v 31.552393 0.008206 0.405504
v 18.486640 0.008206 -62.627596
v 18.486640 64.639755 -62.627596
v 18.504608 89.150368 -62.540916
v 18.621403 93.546181 -61.977467
v 18.722917 95.856247 -61.487731
v 18.853950 97.989624 -60.855579
v 19.081087 100.670456 -59.759808
v 19.378883 103.386208 -58.323155
v 19.744024 106.079002 -56.561611
v 20.173193 108.690941 -54.491173
v 20.663072 111.164131 -52.127834
v 21.210355 113.440689 -49.487589
v 21.811718 115.462723 -46.586433
v 22.463847 117.172348 -43.440357
v 22.984268 118.214714 -40.929694
v 23.529982 119.024361 -38.297011
v 24.099589 119.576866 -35.549050
v 24.691693 119.847801 -32.692569
v 25.304894 119.812752 -29.734301
v 25.937793 119.447296 -26.681009
v 26.723303 118.589432 -22.891471
v 27.448491 117.396027 -19.392950
v 27.986101 116.210678 -16.799361
v 28.486632 114.829422 -14.384649
v 28.950764 113.260628 -12.145537
v 29.379176 111.512657 -10.078749
v 29.772546 109.593887 -8.181010
v 30.216020 106.968002 -6.041564
v 30.607128 104.104668 -4.154741
v 30.947198 101.020256 -2.514139
v 31.237557 97.731094 -1.113366
v 31.368088 95.745399 -0.483645
v 31.487581 92.989151 0.092831
v 31.586398 88.718903 0.569548
v 31.608630 77.232277 0.676800
v 31.552393 65.932381 0.405504
v 34.927659 0.008206 -0.294134
v 21.861906 0.008206 -63.327235
v 21.861906 64.639755 -63.327235
v 21.879874 89.150368 -63.240554
v 21.996669 93.546181 -62.677106
v 22.098183 95.856247 -62.187370
v 22.229216 97.989624 -61.555218
v 22.456352 100.670456 -60.459447
v 22.754149 103.386208 -59.022794
v 23.119289 106.079002 -57.261250
v 23.548455 108.690941 -55.190809
v 24.038338 111.164131 -52.827472
v 24.585621 113.440689 -50.187228
v 25.186982 115.462723 -47.286071
v 25.839113 117.172348 -44.139996
v 26.359534 118.214714 -41.629333
v 26.905247 119.024361 -38.996650
v 27.474855 119.576866 -36.248689
v 28.066959 119.847801 -33.392207
v 28.680160 119.812752 -30.433940
v 29.313059 119.447296 -27.380648
v 30.098568 118.589432 -23.591110
v 30.823756 117.396027 -20.092588
v 31.361367 116.210678 -17.499000
v 31.861897 114.829422 -15.084287
v 32.326029 113.260628 -12.845176
v 32.754441 111.512657 -10.778387
v 33.147812 109.593887 -8.880648
v 33.591284 106.968002 -6.741204
v 33.982392 104.104668 -4.854381
v 34.322462 101.020256 -3.213779
v 34.612823 97.731094 -1.813004
v 34.743353 95.745399 -1.183283
v 34.862847 92.989151 -0.606808
v 34.961664 88.718903 -0.130090
v 34.983896 77.232277 -0.022838
v 34.927659 65.932381 -0.294134
v 31.552393 0.008206 0.405504
v 18.486640 0.008206 -62.627596
v 18.486640 64.639755 -62.627596
v 18.504608 89.150368 -62.540916
v 18.621403 93.546181 -61.977467
v 18.722917 95.856247 -61.487731
v 18.853950 97.989624 -60.855579
v 19.081087 100.670456 -59.759808
v 19.378883 103.386208 -58.323155
v 19.744024 106.079002 -56.561611
v 20.173193 108.690941 -54.491173
v 20.663072 111.164131 -52.127834
v 21.210355 113.440689 -49.487589
v 21.811718 115.462723 -46.586433
v 22.463847 117.172348 -43.440357
v 22.984268 118.214714 -40.929694
v 23.529982 119.024361 -38.297011
v 24.099589 119.576866 -35.549050
v 24.691693 119.847801 -32.692569
v 25.304894 119.812752 -29.734301
v 25.937793 119.447296 -26.681009
v 26.723303 118.589432 -22.891471
v 27.448491 117.396027 -19.392950
v 27.986101 116.210678 -16.799361
v 28.486632 114.829422 -14.384649
v 28.950764 113.260628 -12.145537
v 29.379176 111.512657 -10.078749
v 29.772546 109.593887 -8.181010
v 30.216020 106.968002 -6.041564
v 30.607128 104.104668 -4.154741
v 30.947198 101.020256 -2.514139
v 31.237557 97.731094 -1.113366
v 31.368088 95.745399 -0.483645
v 31.487581 92.989151 0.092831
v 31.586398 88.718903 0.569548
v 31.608630 77.232277 0.676800
v 31.552393 65.932381 0.405504
v 34.927659 0.008206 -0.294134
v 21.861906 0.008206 -63.327235
v 21.861906 64.639755 -63.327235
v 21.879874 89.150368 -63.240554
v 21.996669 93.546181 -62.677106
v 22.098183 95.856247 -62.187370
v 22.229216 97.989624 -61.555218
v 22.456352 100.670456 -60.459447
v 22.754149 103.386208 -59.022794
v 23.119289 106.079002 -57.261250
v 23.548455 108.690941 -55.190809
v 24.038338 111.164131 -52.827472
v 24.585621 113.440689 -50.187228
v 25.186982 115.462723 -47.286071
v 25.839113 117.172348 -44.139996
v 26.359534 118.214714 -41.629333
v 26.905247 119.024361 -38.996650
v 27.474855 119.576866 -36.248689
v 28.066959 119.847801 -33.392207
v 28.680160 119.812752 -30.433940
v 29.313059 119.447296 -27.380648
v 30.098568 118.589432 -23.591110
v 30.823756 117.396027 -20.092588
v 31.361367 116.210678 -17.499000
v 31.861897 114.829422 -15.084287
v 32.326029 113.260628 -12.845176
v 32.754441 111.512657 -10.778387
v 33.147812 109.593887 -8.880648
v 33.591284 106.968002 -6.741204
v 33.982392 104.104668 -4.854381
v 34.322462 101.020256 -3.213779
v 34.612823 97.731094 -1.813004
v 34.743353 95.745399 -1.183283
v 34.862847 92.989151 -0.606808
v 34.961664 88.718903 -0.130090
v 34.983896 77.232277 -0.022838
v 34.927659 65.932381 -0.294134
vt 0.730902 0.510870
vt 0.732908 0.592687
vt 0.732115 0.675857
vt 0.728590 0.706776
vt 0.724327 0.726733
vt 0.719671 0.741110
vt 0.709313 0.764925
vt 0.697181 0.787258
vt 0.683229 0.807991
vt 0.667409 0.827003
vt 0.653376 0.840896
vt 0.638094 0.853553
vt 0.621536 0.864912
vt 0.603681 0.874913
vt 0.584503 0.883495
vt 0.558633 0.892136
vt 0.530611 0.898348
vt 0.508034 0.900994
vt 0.486159 0.901248
vt 0.465037 0.899286
vt 0.444717 0.895285
vt 0.425250 0.889423
vt 0.406685 0.881876
vt 0.383421 0.869497
vt 0.361969 0.854856
vt 0.342445 0.838373
vt 0.324970 0.820466
vt 0.309660 0.801554
vt 0.296634 0.782056
vt 0.286011 0.762393
vt 0.277908 0.742982
vt 0.273234 0.727535
vt 0.269612 0.710809
vt 0.265446 0.678981
vt 0.264805 0.501510
vt 0.264805 0.033541
vt 0.730902 0.033541
vt 0.264805 0.033541
vt 0.264805 0.501510
vt 0.265446 0.678981
vt 0.269612 0.710809
vt 0.273234 0.727535
vt 0.277908 0.742982
vt 0.286011 0.762393
vt 0.296634 0.782056
vt 0.309660 0.801554
vt 0.324970 0.820466
vt 0.342445 0.838373
vt 0.361969 0.854856
vt 0.383421 0.869497
vt 0.406685 0.881876
vt 0.425250 0.889423
vt 0.444717 0.895285
vt 0.465037 0.899286
vt 0.486159 0.901248
vt 0.508034 0.900994
vt 0.530611 0.898348
vt 0.558633 0.892136
vt 0.584503 0.883495
vt 0.603681 0.874913
vt 0.621536 0.864912
vt 0.638094 0.853553
vt 0.653376 0.840896
vt 0.667409 0.827003
vt 0.683229 0.807991
vt 0.697181 0.787258
vt 0.709313 0.764925
vt 0.719671 0.741110
vt 0.724327 0.726733
vt 0.728590 0.706776
vt 0.732115 0.675857
vt 0.732908 0.592687
vt 0.730902 0.510870
vt 0.730902 0.033541
vt 0.255234 0.018128
vt 0.255234 0.018128
vt 0.735657 0.018128
vt 0.735657 0.018128
vt 0.382648 0.471476
vt 0.402483 0.471476
vt 0.402483 0.099572
vt 0.382648 0.099572
vt 0.382648 0.612516
vt 0.402483 0.612516
vt 0.382648 0.637811
vt 0.402483 0.637811
vt 0.382648 0.651103
vt 0.402483 0.651103
vt 0.382648 0.663379
vt 0.402483 0.663379
vt 0.382648 0.678805
vt 0.402483 0.678805
vt 0.382648 0.694432
vt 0.402483 0.694432
vt 0.382648 0.709927
vt 0.402483 0.709927
vt 0.382648 0.724957
vt 0.402483 0.724957
vt 0.382648 0.739188
vt 0.402483 0.739188
vt 0.382648 0.752288
vt 0.402483 0.752288
vt 0.382648 0.763923
vt 0.402483 0.763923
vt 0.382648 0.773761
vt 0.402483 0.773761
vt 0.382648 0.779759
vt 0.402483 0.779759
vt 0.382648 0.784418
vt 0.402483 0.784418
vt 0.382648 0.787597
vt 0.402483 0.787597
vt 0.382648 0.789156
vt 0.402483 0.789156
vt 0.382648 0.788954
vt 0.402483 0.788954
vt 0.382648 0.786851
vt 0.402483 0.786851
vt 0.382648 0.781915
vt 0.402483 0.781915
vt 0.382648 0.775048
vt 0.402483 0.775048
vt 0.382648 0.768227
vt 0.402483 0.768227
vt 0.382648 0.760279
vt 0.402483 0.760279
vt 0.382648 0.751252
vt 0.402483 0.751252
vt 0.382648 0.741194
vt 0.402483 0.741194
vt 0.382648 0.730153
vt 0.402483 0.730153
vt 0.382648 0.715043
vt 0.402483 0.715043
vt 0.382648 0.698567
vt 0.402483 0.698567
vt 0.382648 0.680818
vt 0.402483 0.680818
vt 0.382648 0.661892
vt 0.402483 0.661892
vt 0.382648 0.650465
vt 0.402483 0.650465
vt 0.382648 0.634605
vt 0.402483 0.634605
vt 0.382648 0.610033
vt 0.402483 0.610033
vt 0.382648 0.543937
vt 0.402483 0.543937
vt 0.382648 0.478915
vt 0.402483 0.478915
vt 0.382648 0.099572
vt 0.402483 0.099572
vn -0.979185 0.000000 0.202969
vn -0.979185 0.000000 0.202969
vn -0.979185 0.000000 0.202969
vn -0.979185 0.000000 0.202969
vn -0.979185 0.000000 0.202969
vn -0.979185 0.000000 0.202969
vn -0.979185 0.000000 0.202969
vn -0.979185 0.000000 0.202969
vn -0.979185 0.000000 0.202969
vn -0.979185 0.000000 0.202969
vn -0.979185 0.000000 0.202969
vn -0.979185 0.000000 0.202969
vn -0.979185 0.000000 0.202969
vn -0.979185 0.000000 0.202969
vn -0.979185 0.000000 0.202969
vn -0.979185 0.000000 0.202969
vn -0.979185 0.000000 0.202969
vn -0.979185 0.000000 0.202969
vn -0.979185 0.000000 0.202969
vn -0.979185 0.000000 0.202969
vn -0.979185 0.000000 0.202969
vn -0.979185 0.000000 0.202969
vn -0.979185 0.000000 0.202969
vn -0.979185 0.000000 0.202969
vn -0.979185 0.000000 0.202969
vn -0.979185 0.000000 0.202969
vn -0.979185 0.000000 0.202969
vn -0.979185 0.000000 0.202969
vn -0.979185 0.000000 0.202969
vn -0.979185 0.000000 0.202969
vn -0.979185 0.000000 0.202969
vn -0.979185 0.000000 0.202969
vn -0.979185 0.000000 0.202969
vn -0.979185 0.000000 0.202969
vn -0.979185 0.000000 0.202969
vn -0.979185 0.000000 0.202969
vn -0.979185 0.000000 0.202969
vn 0.979185 0.000000 -0.202969
vn 0.979185 0.000000 -0.202969
vn 0.979185 0.000000 -0.202969
vn 0.979185 0.000000 -0.202969
vn 0.979185 0.000000 -0.202969
vn 0.979185 0.000000 -0.202969
vn 0.979185 0.000000 -0.202969
vn 0.979185 0.000000 -0.202969
vn 0.979185 0.000000 -0.202969
vn 0.979185 0.000000 -0.202969
vn 0.979185 0.000000 -0.202969
vn 0.979185 0.000000 -0.202969
vn 0.979185 0.000000 -0.202969
vn 0.979185 0.000000 -0.202969
vn 0.979185 0.000000 -0.202969
vn 0.979185 0.000000 -0.202969
vn 0.979185 0.000000 -0.202969
vn 0.979185 0.000000 -0.202969
vn 0.979185 0.000000 -0.202969
vn 0.979185 0.000000 -0.202969
vn 0.979185 0.000000 -0.202969
vn 0.979185 0.000000 -0.202969
vn 0.979185 0.000000 -0.202969
vn 0.979185 0.000000 -0.202969
vn 0.979185 0.000000 -0.202969
vn 0.979185 0.000000 -0.202969
vn 0.979185 0.000000 -0.202969
vn 0.979185 0.000000 -0.202969
vn 0.979185 0.000000 -0.202969
vn 0.979185 0.000000 -0.202969
vn 0.979185 0.000000 -0.202969
vn 0.979185 0.000000 -0.202969
vn 0.979185 0.000000 -0.202969
vn 0.979185 0.000000 -0.202969
vn 0.979185 0.000000 -0.202969
vn 0.979185 0.000000 -0.202969
vn 0.979185 0.000000 -0.202969
vn 0.000000 -1.000000 0.000000
vn 0.000000 -1.000000 0.000000
vn 0.000000 -1.000000 0.000000
vn 0.000000 -1.000000 0.000000
vn -0.202969 0.000000 -0.979185
vn -0.202969 0.000000 -0.979185
vn -0.202969 0.000000 -0.979185
vn -0.202969 0.000000 -0.979185
vn -0.202968 0.003612 -0.979179
vn -0.202968 0.003612 -0.979179
vn -0.202968 0.003612 -0.979179
vn -0.202968 0.003612 -0.979179
vn -0.201253 0.129796 -0.970902
vn -0.201253 0.129796 -0.970902
vn -0.201253 0.129796 -0.970902
vn -0.201253 0.129796 -0.970902
vn -0.198373 0.211605 -0.957012
vn -0.198373 0.211605 -0.957012
vn -0.198373 0.211605 -0.957012
vn -0.198373 0.211605 -0.957012
vn -0.194269 0.289641 -0.937213
vn -0.194269 0.289641 -0.937213
vn -0.194269 0.289641 -0.937213
vn -0.194269 0.289641 -0.937213
vn -0.187305 0.385217 -0.903618
vn -0.187305 0.385217 -0.903618
vn -0.187305 0.385217 -0.903618
vn -0.187305 0.385217 -0.903618
vn -0.178575 0.475321 -0.861499
vn -0.178575 0.475321 -0.861499
vn -0.178575 0.475321 -0.861499
vn -0.178575 0.475321 -0.861499
vn -0.168771 0.555512 -0.814201
vn -0.168771 0.555512 -0.814201
vn -0.168771 0.555512 -0.814201
vn -0.168771 0.555512 -0.814201
vn -0.157757 0.629202 -0.761064
vn -0.157757 0.629202 -0.761064
vn -0.157757 0.629202 -0.761064
vn -0.157757 0.629202 -0.761064
vn -0.145261 0.698429 -0.700783
vn -0.145261 0.698429 -0.700783
vn -0.145261 0.698429 -0.700783
vn -0.145261 0.698429 -0.700783
vn -0.130939 0.764083 -0.631690
vn -0.130939 0.764083 -0.631690
vn -0.130939 0.764083 -0.631690
vn -0.130939 0.764083 -0.631690
vn -0.114415 0.825977 -0.551970
vn -0.114415 0.825977 -0.551970
vn -0.114415 0.825977 -0.551970
vn -0.114415 0.825977 -0.551970
vn -0.095344 0.882803 -0.459965
vn -0.095344 0.882803 -0.459965
vn -0.095344 0.882803 -0.459965
vn -0.095344 0.882803 -0.459965
vn -0.076439 0.926376 -0.368762
vn -0.076439 0.926376 -0.368762
vn -0.076439 0.926376 -0.368762
vn -0.076439 0.926376 -0.368762
vn -0.058525 0.957526 -0.282344
vn -0.058525 0.957526 -0.282344
vn -0.058525 0.957526 -0.282344
vn -0.058525 0.957526 -0.282344
vn -0.039207 0.981166 -0.189146
vn -0.039207 0.981166 -0.189146
vn -0.039207 0.981166 -0.189146
vn -0.039207 0.981166 -0.189146
vn -0.018770 0.995715 -0.090553
vn -0.018770 0.995715 -0.090553
vn -0.018770 0.995715 -0.090553
vn -0.018770 0.995715 -0.090553
vn 0.002355 0.999933 0.011359
vn 0.002355 0.999933 0.011359
vn 0.002355 0.999933 0.011359
vn 0.002355 0.999933 0.011359
vn 0.023627 0.993202 0.113981
vn 0.023627 0.993202 0.113981
vn 0.023627 0.993202 0.113981
vn 0.023627 0.993202 0.113981
vn 0.043925 0.976302 0.211907
vn 0.043925 0.976302 0.211907
vn 0.043925 0.976302 0.211907
vn 0.043925 0.976302 0.211907
vn 0.064303 0.948488 0.310218
vn 0.064303 0.948488 0.310218
vn 0.064303 0.948488 0.310218
vn 0.064303 0.948488 0.310218
vn 0.082908 0.912768 0.399976
vn 0.082908 0.912768 0.399976
vn 0.082908 0.912768 0.399976
vn 0.082908 0.912768 0.399976
vn 0.099187 0.872465 0.478505
vn 0.099187 0.872465 0.478505
vn 0.099187 0.872465 0.478505
vn 0.099187 0.872465 0.478505
vn 0.114823 0.824600 0.553942
vn 0.114823 0.824600 0.553942
vn 0.114823 0.824600 0.553942
vn 0.114823 0.824600 0.553942
vn 0.129458 0.770187 0.624542
vn 0.129458 0.770187 0.624542
vn 0.129458 0.770187 0.624542
vn 0.129458 0.770187 0.624542
vn 0.142801 0.710638 0.688913
vn 0.142801 0.710638 0.688913
vn 0.142801 0.710638 0.688913
vn 0.142801 0.710638 0.688913
vn 0.156023 0.639610 0.752699
vn 0.156023 0.639610 0.752699
vn 0.156023 0.639610 0.752699
vn 0.156023 0.639610 0.752699
vn 0.168389 0.558315 0.812360
vn 0.168389 0.558315 0.812360
vn 0.168389 0.558315 0.812360
vn 0.168389 0.558315 0.812360
vn 0.178355 0.477329 0.860434
vn 0.178355 0.477329 0.860434
vn 0.178355 0.477329 0.860434
vn 0.178355 0.477329 0.860434
vn 0.186128 0.398840 0.897933
vn 0.186128 0.398840 0.897933
vn 0.186128 0.398840 0.897933
vn 0.186128 0.398840 0.897933
vn 0.193095 0.308114 0.931547
vn 0.193095 0.308114 0.931547
vn 0.193095 0.308114 0.931547
vn 0.193095 0.308114 0.931547
vn 0.198492 0.208885 0.957585
vn 0.198492 0.208885 0.957585
vn 0.198492 0.208885 0.957585
vn 0.198492 0.208885 0.957585
vn 0.201663 0.113278 0.972883
vn 0.201663 0.113278 0.972883
vn 0.201663 0.113278 0.972883
vn 0.201663 0.113278 0.972883
vn 0.202960 0.009534 0.979141
vn 0.202960 0.009534 0.979141
vn 0.202960 0.009534 0.979141
vn 0.202960 0.009534 0.979141
vn 0.202908 -0.024511 0.978891
vn 0.202908 -0.024511 0.978891
vn 0.202908 -0.024511 0.978891
vn 0.202908 -0.024511 0.978891
vn 0.202969 0.000000 0.979185
vn 0.202969 0.000000 0.979185
vn 0.202969 0.000000 0.979185
vn 0.202969 0.000000 0.979185
s off
g door_10:Mesh
usemtl initialShadingGroup
f 111/1/1 110/2/2 109/3/3 108/4/4 107/5/5 106/6/6 105/7/7 104/8/8 103/9/9 102/10/10 101/11/11 100/12/12 99/13/13 98/14/14 97/15/15 96/16/16 95/17/17 94/18/18 93/19/19 92/20/20 91/21/21 90/22/22 89/23/23 88/24/24 87/25/25 86/26/26 85/27/27 84/28/28 83/29/29 82/30/30 81/31/31 80/32/32 79/33/33 78/34/34 77/35/35 76/36/36 75/37/37
f 113/38/38 114/39/39 115/40/40 116/41/41 117/42/42 118/43/43 119/44/44 120/45/45 121/46/46 122/47/47 123/48/48 124/49/49 125/50/50 126/51/51 127/52/52 128/53/53 129/54/54 130/55/55 131/56/56 132/57/57 133/58/58 134/59/59 135/60/60 136/61/61 137/62/62 138/63/63 139/64/64 140/65/65 141/66/66 142/67/67 143/68/68 144/69/69 145/70/70 146/71/71 147/72/72 148/73/73 112/74/74
f 2/75/75 39/76/76 38/77/77 1/78/78
f 3/79/79 40/80/80 39/81/81 2/82/82
f 4/83/83 41/84/84 40/80/85 3/79/86
f 5/85/87 42/86/88 41/84/89 4/83/90
f 6/87/91 43/88/92 42/86/93 5/85/94
f 7/89/95 44/90/96 43/88/97 6/87/98
f 8/91/99 45/92/100 44/90/101 7/89/102
f 9/93/103 46/94/104 45/92/105 8/91/106
f 10/95/107 47/96/108 46/94/109 9/93/110
f 11/97/111 48/98/112 47/96/113 10/95/114
f 12/99/115 49/100/116 48/98/117 11/97/118
f 13/101/119 50/102/120 49/100/121 12/99/122
f 14/103/123 51/104/124 50/102/125 13/101/126
f 15/105/127 52/106/128 51/104/129 14/103/130
f 16/107/131 53/108/132 52/106/133 15/105/134
f 17/109/135 54/110/136 53/108/137 16/107/138
f 18/111/139 55/112/140 54/110/141 17/109/142
f 19/113/143 56/114/144 55/112/145 18/111/146
f 20/115/147 57/116/148 56/114/149 19/113/150
f 21/117/151 58/118/152 57/116/153 20/115/154
f 22/119/155 59/120/156 58/118/157 21/117/158
f 23/121/159 60/122/160 59/120/161 22/119/162
f 24/123/163 61/124/164 60/122/165 23/121/166
f 25/125/167 62/126/168 61/124/169 24/123/170
f 26/127/171 63/128/172 62/126/173 25/125/174
f 27/129/175 64/130/176 63/128/177 26/127/178
f 28/131/179 65/132/180 64/130/181 27/129/182
f 29/133/183 66/134/184 65/132/185 28/131/186
f 30/135/187 67/136/188 66/134/189 29/133/190
f 31/137/191 68/138/192 67/136/193 30/135/194
f 32/139/195 69/140/196 68/138/197 31/137/198
f 33/141/199 70/142/200 69/140/201 32/139/202
f 34/143/203 71/144/204 70/142/205 33/141/206
f 35/145/207 72/146/208 71/144/209 34/143/210
f 36/147/211 73/148/212 72/146/213 35/145/214
f 37/149/215 74/150/216 73/148/217 36/147/218
f 1/151/219 38/152/220 74/150/221 37/149/222
