# This file uses centimeters as units for non-parametric coordinates.

mtllib door 23.mtl
g default
v 31.879197 0.008206 0.575133
v 17.138038 0.008206 -62.087327
v 17.138038 64.639755 -62.087327
v 17.158309 89.150368 -62.001156
v 17.290081 93.546181 -61.441021
v 17.404612 95.856247 -60.954164
v 17.552447 97.989624 -60.325729
v 17.808710 100.670456 -59.236402
v 18.144691 103.386208 -57.808197
v 18.556654 106.079002 -56.057010
v 19.040854 108.690941 -53.998747
v 19.593551 111.164131 -51.649304
v 20.211011 113.440689 -49.024584
v 20.889486 115.462723 -46.140488
v 21.625237 117.172348 -43.012911
v 22.212391 118.214714 -40.517010
v 22.828081 119.024361 -37.899808
v 23.470728 119.576866 -35.168005
v 24.138757 119.847801 -32.328320
v 24.830588 119.812752 -29.387448
v 25.544643 119.447296 -26.352109
v 26.430877 118.589432 -22.584854
v 27.249056 117.396027 -19.106905
v 27.855603 116.210678 -16.528566
v 28.420316 114.829422 -14.128052
v 28.943963 113.260628 -11.902107
v 29.427310 111.512657 -9.847471
v 29.871121 109.593887 -7.960891
v 30.371462 106.968002 -5.834026
v 30.812721 104.104668 -3.958298
v 31.196398 101.020256 -2.327343
v 31.523989 97.731094 -0.934806
v 31.671258 95.745399 -0.308788
v 31.806074 92.989151 0.264298
v 31.917561 88.718903 0.738212
v 31.942645 77.232277 0.844834
v 31.879197 65.932381 0.575133
v 35.234615 0.008206 -0.214219
v 20.493456 0.008206 -62.876679
v 20.493456 64.639755 -62.876679
v 20.513728 89.150368 -62.790509
v 20.645500 93.546181 -62.230373
v 20.760031 95.856247 -61.743517
v 20.907866 97.989624 -61.115082
v 21.164128 100.670456 -60.025755
v 21.500110 103.386208 -58.597549
v 21.912072 106.079002 -56.846363
v 22.396270 108.690941 -54.788097
v 22.948970 111.164131 -52.438656
v 23.566430 113.440689 -49.813937
v 24.244903 115.462723 -46.929839
v 24.980656 117.172348 -43.802263
v 25.567810 118.214714 -41.306363
v 26.183499 119.024361 -38.689161
v 26.826147 119.576866 -35.957357
v 27.494176 119.847801 -33.117673
v 28.186007 119.812752 -30.176800
v 28.900062 119.447296 -27.141462
v 29.786296 118.589432 -23.374207
v 30.604474 117.396027 -19.896257
v 31.211021 116.210678 -17.317918
v 31.775734 114.829422 -14.917404
v 32.299382 113.260628 -12.691459
v 32.782729 111.512657 -10.636824
v 33.226540 109.593887 -8.750244
v 33.726879 106.968002 -6.623379
v 34.168138 104.104668 -4.747651
v 34.551815 101.020256 -3.116696
v 34.879408 97.731094 -1.724158
v 35.026676 95.745399 -1.098140
v 35.161492 92.989151 -0.525054
v 35.272980 88.718903 -0.051140
v 35.298063 77.232277 0.055482
v 35.234615 65.932381 -0.214219
v 31.879197 0.008206 0.575133
v 17.138038 0.008206 -62.087327
v 17.138038 64.639755 -62.087327
v 17.158309 89.150368 -62.001156
v 17.290081 93.546181 -61.441021
v 17.404612 95.856247 -60.954164
v 17.552447 97.989624 -60.325729
v 17.808710 100.670456 -59.236402
v 18.144691 103.386208 -57.808197
v 18.556654 106.079002 -56.057010
v 19.040854 108.690941 -53.998747
v 19.593551 111.164131 -51.649304
v 20.211011 113.440689 -49.024584
v 20.889486 115.462723 -46.140488
v 21.625237 117.172348 -43.012911
v 22.212391 118.214714 -40.517010
v 22.828081 119.024361 -37.899808
v 23.470728 119.576866 -35.168005
v 24.138757 119.847801 -32.328320
v 24.830588 119.812752 -29.387448
v 25.544643 119.447296 -26.352109
v 26.430877 118.589432 -22.584854
v 27.249056 117.396027 -19.106905
v 27.855603 116.210678 -16.528566
v 28.420316 114.829422 -14.128052
v 28.943963 113.260628 -11.902107
v 29.427310 111.512657 -9.847471
v 29.871121 109.593887 -7.960891
v 30.371462 106.968002 -5.834026
v 30.812721 104.104668 -3.958298
v 31.196398 101.020256 -2.327343
v 31.523989 97.731094 -0.934806
v 31.671258 95.745399 -0.308788
v 31.806074 92.989151 0.264298
v 31.917561 88.718903 0.738212
v 31.942645 77.232277 0.844834
v 31.879197 65.932381 0.575133
v 35.234615 0.008206 -0.214219
v 20.493456 0.008206 -62.876679
v 20.493456 64.639755 -62.876679
v 20.513728 89.150368 -62.790509
v 20.645500 93.546181 -62.230373
v 20.760031 95.856247 -61.743517
v 20.907866 97.989624 -61.115082
v 21.164128 100.670456 -60.025755
v 21.500110 103.386208 -58.597549
v 21.912072 106.079002 -56.846363
v 22.396270 108.690941 -54.788097
v 22.948970 111.164131 -52.438656
v 23.566430 113.440689 -49.813937
v 24.244903 115.462723 -46.929839
v 24.980656 117.172348 -43.802263
v 25.567810 118.214714 -41.306363
v 26.183499 119.024361 -38.689161
v 26.826147 119.576866 -35.957357
v 27.494176 119.847801 -33.117673
v 28.186007 119.812752 -30.176800
v 28.900062 119.447296 -27.141462
v 29.786296 118.589432 -23.374207
v 30.604474 117.396027 -19.896257
v 31.211021 116.210678 -17.317918
v 31.775734 114.829422 -14.917404
v 32.299382 113.260628 -12.691459
v 32.782729 111.512657 -10.636824
v 33.226540 109.593887 -8.750244
v 33.726879 106.968002 -6.623379
v 34.168138 104.104668 -4.747651
v 34.551815 101.020256 -3.116696
v 34.879408 97.731094 -1.724158
v 35.026676 95.745399 -1.098140
v 35.161492 92.989151 -0.525054
v 35.272980 88.718903 -0.051140
v 35.298063 77.232277 0.055482
v 35.234615 65.932381 -0.214219
vt 0.730902 0.510870
vt 0.732908 0.592687
vt 0.732115 0.675857
vt 0.728590 0.706776
vt 0.724327 0.726733
vt 0.719671 0.741110
vt 0.709313 0.764925
vt 0.697181 0.787258
vt 0.683229 0.807991
vt 0.667409 0.827003
vt 0.653376 0.840896
vt 0.638094 0.853553
vt 0.621536 0.864912
vt 0.603681 0.874913
vt 0.584503 0.883495
vt 0.558633 0.892136
vt 0.530611 0.898348
vt 0.508034 0.900994
vt 0.486159 0.901248
vt 0.465037 0.899286
vt 0.444717 0.895285
vt 0.425250 0.889423
vt 0.406685 0.881876
vt 0.383421 0.869497
vt 0.361969 0.854856
vt 0.342445 0.838373
vt 0.324970 0.820466
vt 0.309660 0.801554
vt 0.296634 0.782056
vt 0.286011 0.762393
vt 0.277908 0.742982
vt 0.273234 0.727535
vt 0.269612 0.710809
vt 0.265446 0.678981
vt 0.264805 0.501510
vt 0.264805 0.033541
vt 0.730902 0.033541
vt 0.264805 0.033541
vt 0.264805 0.501510
vt 0.265446 0.678981
vt 0.269612 0.710809
vt 0.273234 0.727535
vt 0.277908 0.742982
vt 0.286011 0.762393
vt 0.296634 0.782056
vt 0.309660 0.801554
vt 0.324970 0.820466
vt 0.342445 0.838373
vt 0.361969 0.854856
vt 0.383421 0.869497
vt 0.406685 0.881876
vt 0.425250 0.889423
vt 0.444717 0.895285
vt 0.465037 0.899286
vt 0.486159 0.901248
vt 0.508034 0.900994
vt 0.530611 0.898348
vt 0.558633 0.892136
vt 0.584503 0.883495
vt 0.603681 0.874913
vt 0.621536 0.864912
vt 0.638094 0.853553
vt 0.653376 0.840896
vt 0.667409 0.827003
vt 0.683229 0.807991
vt 0.697181 0.787258
vt 0.709313 0.764925
vt 0.719671 0.741110
vt 0.724327 0.726733
vt 0.728590 0.706776
vt 0.732115 0.675857
vt 0.732908 0.592687
vt 0.730902 0.510870
vt 0.730902 0.033541
vt 0.255234 0.018128
vt 0.255234 0.018128
vt 0.735657 0.018128
vt 0.735657 0.018128
vt 0.382648 0.471476
vt 0.402483 0.471476
vt 0.402483 0.099572
vt 0.382648 0.099572
vt 0.382648 0.612516
vt 0.402483 0.612516
vt 0.382648 0.637811
vt 0.402483 0.637811
vt 0.382648 0.651103
vt 0.402483 0.651103
vt 0.382648 0.663379
vt 0.402483 0.663379
vt 0.382648 0.678805
vt 0.402483 0.678805
vt 0.382648 0.694432
vt 0.402483 0.694432
vt 0.382648 0.709927
vt 0.402483 0.709927
vt 0.382648 0.724957
vt 0.402483 0.724957
vt 0.382648 0.739188
vt 0.402483 0.739188
vt 0.382648 0.752288
vt 0.402483 0.752288
vt 0.382648 0.763923
vt 0.402483 0.763923
vt 0.382648 0.773761
vt 0.402483 0.773761
vt 0.382648 0.779759
vt 0.402483 0.779759
vt 0.382648 0.784418
vt 0.402483 0.784418
vt 0.382648 0.787597
vt 0.402483 0.787597
vt 0.382648 0.789156
vt 0.402483 0.789156
vt 0.382648 0.788954
vt 0.402483 0.788954
vt 0.382648 0.786851
vt 0.402483 0.786851
vt 0.382648 0.781915
vt 0.402483 0.781915
vt 0.382648 0.775048
vt 0.402483 0.775048
vt 0.382648 0.768227
vt 0.402483 0.768227
vt 0.382648 0.760279
vt 0.402483 0.760279
vt 0.382648 0.751252
vt 0.402483 0.751252
vt 0.382648 0.741194
vt 0.402483 0.741194
vt 0.382648 0.730153
vt 0.402483 0.730153
vt 0.382648 0.715043
vt 0.402483 0.715043
vt 0.382648 0.698567
vt 0.402483 0.698567
vt 0.382648 0.680818
vt 0.402483 0.680818
vt 0.382648 0.661892
vt 0.402483 0.661892
vt 0.382648 0.650465
vt 0.402483 0.650465
vt 0.382648 0.634605
vt 0.402483 0.634605
vt 0.382648 0.610033
vt 0.402483 0.610033
vt 0.382648 0.543937
vt 0.402483 0.543937
vt 0.382648 0.478915
vt 0.402483 0.478915
vt 0.382648 0.099572
vt 0.402483 0.099572
vn -0.973428 0.000000 0.228996
vn -0.973428 0.000000 0.228996
vn -0.973428 0.000000 0.228996
vn -0.973428 0.000000 0.228996
vn -0.973428 0.000000 0.228996
vn -0.973428 0.000000 0.228996
vn -0.973428 0.000000 0.228996
vn -0.973428 0.000000 0.228996
vn -0.973428 0.000000 0.228996
vn -0.973428 0.000000 0.228996
vn -0.973428 0.000000 0.228996
vn -0.973428 0.000000 0.228996
vn -0.973428 0.000000 0.228996
vn -0.973428 0.000000 0.228996
vn -0.973428 0.000000 0.228996
vn -0.973428 0.000000 0.228996
vn -0.973428 0.000000 0.228996
vn -0.973428 0.000000 0.228996
vn -0.973428 0.000000 0.228996
vn -0.973428 0.000000 0.228996
vn -0.973428 0.000000 0.228996
vn -0.973428 0.000000 0.228996
vn -0.973428 0.000000 0.228996
vn -0.973428 0.000000 0.228996
vn -0.973428 0.000000 0.228996
vn -0.973428 0.000000 0.228996
vn -0.973428 0.000000 0.228996
vn -0.973428 0.000000 0.228996
vn -0.973428 0.000000 0.228996
vn -0.973428 0.000000 0.228996
vn -0.973428 0.000000 0.228996
vn -0.973428 0.000000 0.228996
vn -0.973428 0.000000 0.228996
vn -0.973428 0.000000 0.228996
vn -0.973428 0.000000 0.228996
vn -0.973428 0.000000 0.228996
vn -0.973428 0.000000 0.228996
vn 0.973428 0.000000 -0.228996
vn 0.973428 0.000000 -0.228996
vn 0.973428 0.000000 -0.228996
vn 0.973428 0.000000 -0.228996
vn 0.973428 0.000000 -0.228996
vn 0.973428 0.000000 -0.228996
vn 0.973428 0.000000 -0.228996
vn 0.973428 0.000000 -0.228996
vn 0.973428 0.000000 -0.228996
vn 0.973428 0.000000 -0.228996
vn 0.973428 0.000000 -0.228996
vn 0.973428 0.000000 -0.228996
vn 0.973428 0.000000 -0.228996
vn 0.973428 0.000000 -0.228996
vn 0.973428 0.000000 -0.228996
vn 0.973428 0.000000 -0.228996
vn 0.973428 0.000000 -0.228996
vn 0.973428 0.000000 -0.228996
vn 0.973428 0.000000 -0.228996
vn 0.973428 0.000000 -0.228996
vn 0.973428 0.000000 -0.228996
vn 0.973428 0.000000 -0.228996
vn 0.973428 0.000000 -0.228996
vn 0.973428 0.000000 -0.228996
vn 0.973428 0.000000 -0.228996
vn 0.973428 0.000000 -0.228996
vn 0.973428 0.000000 -0.228996
vn 0.973428 0.000000 -0.228996
vn 0.973428 0.000000 -0.228996
vn 0.973428 0.000000 -0.228996
vn 0.973428 0.000000 -0.228996
vn 0.973428 0.000000 -0.228996
vn 0.973428 0.000000 -0.228996
vn 0.973428 0.000000 -0.228996
vn 0.973428 0.000000 -0.228996
vn 0.973428 0.000000 -0.228996
vn 0.973428 0.000000 -0.228996
vn 0.000000 -1.000000 0.000000
vn 0.000000 -1.000000 0.000000
vn 0.000000 -1.000000 0.000000
vn 0.000000 -1.000000 0.000000
vn -0.228996 0.000000 -0.973428
vn -0.228996 0.000000 -0.973428
vn -0.228996 0.000000 -0.973428
vn -0.228996 0.000000 -0.973428
vn -0.228994 0.003612 -0.973421
vn -0.228994 0.003612 -0.973421
vn -0.228994 0.003612 -0.973421
vn -0.228994 0.003612 -0.973421
vn -0.227059 0.129796 -0.965193
vn -0.227059 0.129796 -0.965193
vn -0.227059 0.129796 -0.965193
vn -0.227059 0.129796 -0.965193
vn -0.223810 0.211605 -0.951385
vn -0.223810 0.211605 -0.951385
vn -0.223810 0.211605 -0.951385
vn -0.223810 0.211605 -0.951385
vn -0.219180 0.289641 -0.931702
vn -0.219180 0.289641 -0.931702
vn -0.219180 0.289641 -0.931702
vn -0.219180 0.289641 -0.931702
vn -0.211323 0.385217 -0.898304
vn -0.211323 0.385217 -0.898304
vn -0.211323 0.385217 -0.898304
vn -0.211323 0.385217 -0.898304
vn -0.201473 0.475321 -0.856434
vn -0.201473 0.475321 -0.856434
vn -0.201473 0.475321 -0.856434
vn -0.201473 0.475321 -0.856434
vn -0.190412 0.555512 -0.809413
vn -0.190412 0.555512 -0.809413
vn -0.190412 0.555512 -0.809413
vn -0.190412 0.555512 -0.809413
vn -0.177986 0.629202 -0.756588
vn -0.177986 0.629202 -0.756588
vn -0.177986 0.629202 -0.756588
vn -0.177986 0.629202 -0.756588
vn -0.163887 0.698429 -0.696662
vn -0.163887 0.698429 -0.696662
vn -0.163887 0.698429 -0.696662
vn -0.163887 0.698429 -0.696662
vn -0.147729 0.764083 -0.627975
vn -0.147729 0.764083 -0.627975
vn -0.147729 0.764083 -0.627975
vn -0.147729 0.764083 -0.627975
vn -0.129086 0.825977 -0.548725
vn -0.129086 0.825977 -0.548725
vn -0.129086 0.825977 -0.548725
vn -0.129086 0.825977 -0.548725
vn -0.107569 0.882803 -0.457260
vn -0.107569 0.882803 -0.457260
vn -0.107569 0.882803 -0.457260
vn -0.107569 0.882803 -0.457260
vn -0.086240 0.926376 -0.366593
vn -0.086240 0.926376 -0.366593
vn -0.086240 0.926376 -0.366593
vn -0.086240 0.926376 -0.366593
vn -0.066030 0.957526 -0.280684
vn -0.066030 0.957526 -0.280684
vn -0.066030 0.957526 -0.280684
vn -0.066030 0.957526 -0.280684
vn -0.044234 0.981166 -0.188033
vn -0.044234 0.981166 -0.188033
vn -0.044234 0.981166 -0.188033
vn -0.044234 0.981166 -0.188033
vn -0.021177 0.995715 -0.090021
vn -0.021177 0.995715 -0.090021
vn -0.021177 0.995715 -0.090021
vn -0.021177 0.995715 -0.090021
vn 0.002657 0.999933 0.011293
vn 0.002657 0.999933 0.011293
vn 0.002657 0.999933 0.011293
vn 0.002657 0.999933 0.011293
vn 0.026656 0.993202 0.113311
vn 0.026656 0.993202 0.113311
vn 0.026656 0.993202 0.113311
vn 0.026656 0.993202 0.113311
vn 0.049558 0.976302 0.210661
vn 0.049558 0.976302 0.210661
vn 0.049558 0.976302 0.210661
vn 0.049558 0.976302 0.210661
vn 0.072549 0.948488 0.308394
vn 0.072549 0.948488 0.308394
vn 0.072549 0.948488 0.308394
vn 0.072549 0.948488 0.308394
vn 0.093540 0.912768 0.397624
vn 0.093540 0.912768 0.397624
vn 0.093540 0.912768 0.397624
vn 0.093540 0.912768 0.397624
vn 0.111905 0.872465 0.475691
vn 0.111905 0.872465 0.475691
vn 0.111905 0.872465 0.475691
vn 0.111905 0.872465 0.475691
vn 0.129547 0.824600 0.550684
vn 0.129547 0.824600 0.550684
vn 0.129547 0.824600 0.550684
vn 0.129547 0.824600 0.550684
vn 0.146058 0.770187 0.620870
vn 0.146058 0.770187 0.620870
vn 0.146058 0.770187 0.620870
vn 0.146058 0.770187 0.620870
vn 0.161112 0.710638 0.684862
vn 0.161112 0.710638 0.684862
vn 0.161112 0.710638 0.684862
vn 0.161112 0.710638 0.684862
vn 0.176029 0.639610 0.748274
vn 0.176029 0.639610 0.748274
vn 0.176029 0.639610 0.748274
vn 0.176029 0.639610 0.748274
vn 0.189982 0.558315 0.807584
vn 0.189982 0.558315 0.807584
vn 0.189982 0.558315 0.807584
vn 0.189982 0.558315 0.807584
vn 0.201225 0.477329 0.855375
vn 0.201225 0.477329 0.855375
vn 0.201225 0.477329 0.855375
vn 0.201225 0.477329 0.855375
vn 0.209994 0.398840 0.892653
vn 0.209994 0.398840 0.892653
vn 0.209994 0.398840 0.892653
vn 0.209994 0.398840 0.892653
vn 0.217855 0.308114 0.926070
vn 0.217855 0.308114 0.926070
vn 0.217855 0.308114 0.926070
vn 0.217855 0.308114 0.926070
vn 0.223944 0.208885 0.951954
vn 0.223944 0.208885 0.951954
vn 0.223944 0.208885 0.951954
vn 0.223944 0.208885 0.951954
vn 0.227522 0.113278 0.967162
vn 0.227522 0.113278 0.967162
vn 0.227522 0.113278 0.967162
vn 0.227522 0.113278 0.967162
vn 0.228985 0.009534 0.973383
vn 0.228985 0.009534 0.973383
vn 0.228985 0.009534 0.973383
vn 0.228985 0.009534 0.973383
vn 0.228927 -0.024511 0.973135
vn 0.228927 -0.024511 0.973135
vn 0.228927 -0.024511 0.973135
vn 0.228927 -0.024511 0.973135
vn 0.228996 0.000000 0.973428
vn 0.228996 0.000000 0.973428
vn 0.228996 0.000000 0.973428
vn 0.228996 0.000000 0.973428
s off
g door_10:Mesh
usemtl initialShadingGroup
f 111/1/1 110/2/2 109/3/3 108/4/4 107/5/5 106/6/6 105/7/7 104/8/8 103/9/9 102/10/10 101/11/11 100/12/12 99/13/13 98/14/14 97/15/15 96/16/16 95/17/17 94/18/18 93/19/19 92/20/20 91/21/21 90/22/22 89/23/23 88/24/24 87/25/25 86/26/26 85/27/27 84/28/28 83/29/29 82/30/30 81/31/31 80/32/32 79/33/33 78/34/34 77/35/35 76/36/36 75/37/37
f 113/38/38 114/39/39 115/40/40 116/41/41 117/42/42 118/43/43 119/44/44 120/45/45 121/46/46 122/47/47 123/48/48 124/49/49 125/50/50 126/51/51 127/52/52 128/53/53 129/54/54 130/55/55 131/56/56 132/57/57 133/58/58 134/59/59 135/60/60 136/61/61 137/62/62 138/63/63 139/64/64 140/65/65 141/66/66 142/67/67 143/68/68 144/69/69 145/70/70 146/71/71 147/72/72 148/73/73 112/74/74
f 2/75/75 39/76/76 38/77/77 1/78/78
f 3/79/79 40/80/80 39/81/81 2/82/82
f 4/83/83 41/84/84 40/80/85 3/79/86
f 5/85/87 42/86/88 41/84/89 4/83/90
f 6/87/91 43/88/92 42/86/93 5/85/94
f 7/89/95 44/90/96 43/88/97 6/87/98
f 8/91/99 45/92/100 44/90/101 7/89/102
f 9/93/103 46/94/104 45/92/105 8/91/106
f 10/95/107 47/96/108 46/94/109 9/93/110
f 11/97/111 48/98/112 47/96/113 10/95/114
f 12/99/115 49/100/116 48/98/117 11/97/118
f 13/101/119 50/102/120 49/100/121 12/99/122
f 14/103/123 51/104/124 50/102/125 13/101/126
f 15/105/127 52/106/128 51/104/129 14/103/130
f 16/107/131 53/108/132 52/106/133 15/105/134
f 17/109/135 54/110/136 53/108/137 16/107/138
f 18/111/139 55/112/140 54/110/141 17/109/142
f 19/113/143 56/114/144 55/112/145 18/111/146
f 20/115/147 57/116/148 56/114/149 19/113/150
f 21/117/151 58/118/152 57/116/153 20/115/154
f 22/119/155 59/120/156 58/118/157 21/117/158
f 23/121/159 60/122/160 59/120/161 22/119/162
f 24/123/163 61/124/164 60/122/165 23/121/166
f 25/125/167 62/126/168 61/124/169 24/123/170
f 26/127/171 63/128/172 62/126/173 25/125/174
f 27/129/175 64/130/176 63/128/177 26/127/178
f 28/131/179 65/132/180 64/130/181 27/129/182
f 29/133/183 66/134/184 65/132/185 28/131/186
f 30/135/187 67/136/188 66/134/189 29/133/190
f 31/137/191 68/138/192 67/136/193 30/135/194
f 32/139/195 69/140/196 68/138/197 31/137/198
f 33/141/199 70/142/200 69/140/201 32/139/202
f 34/143/203 71/144/204 70/142/205 33/141/206
f 35/145/207 72/146/208 71/144/209 34/143/210
f 36/147/211 73/148/212 72/146/213 35/145/214
f 37/149/215 74/150/216 73/148/217 36/147/218
f 1/151/219 38/152/220 74/150/221 37/149/222
