# This file uses centimeters as units for non-parametric coordinates.

mtllib door 14.mtl
g default
v 34.009072 0.008206 1.605726
v -10.842139 0.008206 -44.570616
v -10.842139 64.639755 -44.570616
v -10.780462 89.150368 -44.507116
v -10.379539 93.546181 -44.094350
v -10.031067 95.856247 -43.735583
v -9.581261 97.989624 -43.272484
v -8.801564 100.670456 -42.469752
v -7.779313 103.386208 -41.417300
v -6.525885 106.079002 -40.126841
v -5.052665 108.690941 -38.610094
v -3.371032 111.164131 -36.878774
v -1.492365 113.440689 -34.944604
v 0.571953 115.462723 -32.819295
v 2.810543 117.172348 -30.514564
v 4.597005 118.214714 -28.675321
v 6.470292 119.024361 -26.746689
v 8.425603 119.576866 -24.733606
v 10.458134 119.847801 -22.641026
v 12.563089 119.812752 -20.473879
v 14.735660 119.447296 -18.237121
v 17.432105 118.589432 -15.461007
v 19.921479 117.396027 -12.898086
v 21.766948 116.210678 -10.998093
v 23.485136 114.829422 -9.229140
v 25.078376 113.260628 -7.588828
v 26.549000 111.512657 -6.074754
v 27.899336 109.593887 -4.684522
v 29.421660 106.968002 -3.117222
v 30.764229 104.104668 -1.734987
v 31.931598 101.020256 -0.533126
v 32.928320 97.731094 0.493042
v 33.376398 95.745399 0.954359
v 33.786589 92.989151 1.376670
v 34.125798 88.718903 1.725899
v 34.202114 77.232277 1.804469
v 34.009072 65.932381 1.605726
v 36.481700 0.008206 -0.795945
v -8.369511 0.008206 -46.972287
v -8.369511 64.639755 -46.972287
v -8.307834 89.150368 -46.908787
v -7.906910 93.546181 -46.496021
v -7.558439 95.856247 -46.137253
v -7.108633 97.989624 -45.674155
v -6.328937 100.670456 -44.871423
v -5.306685 103.386208 -43.818971
v -4.053258 106.079002 -42.528512
v -2.580038 108.690941 -41.011761
v -0.898404 111.164131 -39.280445
v 0.980264 113.440689 -37.346275
v 3.044580 115.462723 -35.220965
v 5.283171 117.172348 -32.916235
v 7.069634 118.214714 -31.076991
v 8.942920 119.024361 -29.148360
v 10.898232 119.576866 -27.135277
v 12.930762 119.847801 -25.042697
v 15.035717 119.812752 -22.875550
v 17.208288 119.447296 -20.638792
v 19.904733 118.589432 -17.862678
v 22.394107 117.396027 -15.299756
v 24.239576 116.210678 -13.399764
v 25.957765 114.829422 -11.630810
v 27.551005 113.260628 -9.990498
v 29.021628 111.512657 -8.476425
v 30.371964 109.593887 -7.086192
v 31.894286 106.968002 -5.518893
v 33.236855 104.104668 -4.136658
v 34.404225 101.020256 -2.934797
v 35.400949 97.731094 -1.908629
v 35.849026 95.745399 -1.447312
v 36.259217 92.989151 -1.025001
v 36.598426 88.718903 -0.675771
v 36.674742 77.232277 -0.597202
v 36.481700 65.932381 -0.795945
v 34.009072 0.008206 1.605726
v -10.842139 0.008206 -44.570616
v -10.842139 64.639755 -44.570616
v -10.780462 89.150368 -44.507116
v -10.379539 93.546181 -44.094350
v -10.031067 95.856247 -43.735583
v -9.581261 97.989624 -43.272484
v -8.801564 100.670456 -42.469752
v -7.779313 103.386208 -41.417300
v -6.525885 106.079002 -40.126841
v -5.052665 108.690941 -38.610094
v -3.371032 111.164131 -36.878774
v -1.492365 113.440689 -34.944604
v 0.571953 115.462723 -32.819295
v 2.810543 117.172348 -30.514564
v 4.597005 118.214714 -28.675321
v 6.470292 119.024361 -26.746689
v 8.425603 119.576866 -24.733606
v 10.458134 119.847801 -22.641026
v 12.563089 119.812752 -20.473879
v 14.735660 119.447296 -18.237121
v 17.432105 118.589432 -15.461007
v 19.921479 117.396027 -12.898086
v 21.766948 116.210678 -10.998093
v 23.485136 114.829422 -9.229140
v 25.078376 113.260628 -7.588828
v 26.549000 111.512657 -6.074754
v 27.899336 109.593887 -4.684522
v 29.421660 106.968002 -3.117222
v 30.764229 104.104668 -1.734987
v 31.931598 101.020256 -0.533126
v 32.928320 97.731094 0.493042
v 33.376398 95.745399 0.954359
v 33.786589 92.989151 1.376670
v 34.125798 88.718903 1.725899
v 34.202114 77.232277 1.804469
v 34.009072 65.932381 1.605726
v 36.481700 0.008206 -0.795945
v -8.369511 0.008206 -46.972287
v -8.369511 64.639755 -46.972287
v -8.307834 89.150368 -46.908787
v -7.906910 93.546181 -46.496021
v -7.558439 95.856247 -46.137253
v -7.108633 97.989624 -45.674155
v -6.328937 100.670456 -44.871423
v -5.306685 103.386208 -43.818971
v -4.053258 106.079002 -42.528512
v -2.580038 108.690941 -41.011761
v -0.898404 111.164131 -39.280445
v 0.980264 113.440689 -37.346275
v 3.044580 115.462723 -35.220965
v 5.283171 117.172348 -32.916235
v 7.069634 118.214714 -31.076991
v 8.942920 119.024361 -29.148360
v 10.898232 119.576866 -27.135277
v 12.930762 119.847801 -25.042697
v 15.035717 119.812752 -22.875550
v 17.208288 119.447296 -20.638792
v 19.904733 118.589432 -17.862678
v 22.394107 117.396027 -15.299756
v 24.239576 116.210678 -13.399764
v 25.957765 114.829422 -11.630810
v 27.551005 113.260628 -9.990498
v 29.021628 111.512657 -8.476425
v 30.371964 109.593887 -7.086192
v 31.894286 106.968002 -5.518893
v 33.236855 104.104668 -4.136658
v 34.404225 101.020256 -2.934797
v 35.400949 97.731094 -1.908629
v 35.849026 95.745399 -1.447312
v 36.259217 92.989151 -1.025001
v 36.598426 88.718903 -0.675771
v 36.674742 77.232277 -0.597202
v 36.481700 65.932381 -0.795945
vt 0.730902 0.510870
vt 0.732908 0.592687
vt 0.732115 0.675857
vt 0.728590 0.706776
vt 0.724327 0.726733
vt 0.719671 0.741110
vt 0.709313 0.764925
vt 0.697181 0.787258
vt 0.683229 0.807991
vt 0.667409 0.827003
vt 0.653376 0.840896
vt 0.638094 0.853553
vt 0.621536 0.864912
vt 0.603681 0.874913
vt 0.584503 0.883495
vt 0.558633 0.892136
vt 0.530611 0.898348
vt 0.508034 0.900994
vt 0.486159 0.901248
vt 0.465037 0.899286
vt 0.444717 0.895285
vt 0.425250 0.889423
vt 0.406685 0.881876
vt 0.383421 0.869497
vt 0.361969 0.854856
vt 0.342445 0.838373
vt 0.324970 0.820466
vt 0.309660 0.801554
vt 0.296634 0.782056
vt 0.286011 0.762393
vt 0.277908 0.742982
vt 0.273234 0.727535
vt 0.269612 0.710809
vt 0.265446 0.678981
vt 0.264805 0.501510
vt 0.264805 0.033541
vt 0.730902 0.033541
vt 0.264805 0.033541
vt 0.264805 0.501510
vt 0.265446 0.678981
vt 0.269612 0.710809
vt 0.273234 0.727535
vt 0.277908 0.742982
vt 0.286011 0.762393
vt 0.296634 0.782056
vt 0.309660 0.801554
vt 0.324970 0.820466
vt 0.342445 0.838373
vt 0.361969 0.854856
vt 0.383421 0.869497
vt 0.406685 0.881876
vt 0.425250 0.889423
vt 0.444717 0.895285
vt 0.465037 0.899286
vt 0.486159 0.901248
vt 0.508034 0.900994
vt 0.530611 0.898348
vt 0.558633 0.892136
vt 0.584503 0.883495
vt 0.603681 0.874913
vt 0.621536 0.864912
vt 0.638094 0.853553
vt 0.653376 0.840896
vt 0.667409 0.827003
vt 0.683229 0.807991
vt 0.697181 0.787258
vt 0.709313 0.764925
vt 0.719671 0.741110
vt 0.724327 0.726733
vt 0.728590 0.706776
vt 0.732115 0.675857
vt 0.732908 0.592687
vt 0.730902 0.510870
vt 0.730902 0.033541
vt 0.255234 0.018128
vt 0.255234 0.018128
vt 0.735657 0.018128
vt 0.735657 0.018128
vt 0.382648 0.471476
vt 0.402483 0.471476
vt 0.402483 0.099572
vt 0.382648 0.099572
vt 0.382648 0.612516
vt 0.402483 0.612516
vt 0.382648 0.637811
vt 0.402483 0.637811
vt 0.382648 0.651103
vt 0.402483 0.651103
vt 0.382648 0.663379
vt 0.402483 0.663379
vt 0.382648 0.678805
vt 0.402483 0.678805
vt 0.382648 0.694432
vt 0.402483 0.694432
vt 0.382648 0.709927
vt 0.402483 0.709927
vt 0.382648 0.724957
vt 0.402483 0.724957
vt 0.382648 0.739188
vt 0.402483 0.739188
vt 0.382648 0.752288
vt 0.402483 0.752288
vt 0.382648 0.763923
vt 0.402483 0.763923
vt 0.382648 0.773761
vt 0.402483 0.773761
vt 0.382648 0.779759
vt 0.402483 0.779759
vt 0.382648 0.784418
vt 0.402483 0.784418
vt 0.382648 0.787597
vt 0.402483 0.787597
vt 0.382648 0.789156
vt 0.402483 0.789156
vt 0.382648 0.788954
vt 0.402483 0.788954
vt 0.382648 0.786851
vt 0.402483 0.786851
vt 0.382648 0.781915
vt 0.402483 0.781915
vt 0.382648 0.775048
vt 0.402483 0.775048
vt 0.382648 0.768227
vt 0.402483 0.768227
vt 0.382648 0.760279
vt 0.402483 0.760279
vt 0.382648 0.751252
vt 0.402483 0.751252
vt 0.382648 0.741194
vt 0.402483 0.741194
vt 0.382648 0.730153
vt 0.402483 0.730153
vt 0.382648 0.715043
vt 0.402483 0.715043
vt 0.382648 0.698567
vt 0.402483 0.698567
vt 0.382648 0.680818
vt 0.402483 0.680818
vt 0.382648 0.661892
vt 0.402483 0.661892
vt 0.382648 0.650465
vt 0.402483 0.650465
vt 0.382648 0.634605
vt 0.402483 0.634605
vt 0.382648 0.610033
vt 0.402483 0.610033
vt 0.382648 0.543937
vt 0.402483 0.543937
vt 0.382648 0.478915
vt 0.402483 0.478915
vt 0.382648 0.099572
vt 0.402483 0.099572
vn -0.717325 0.000000 0.696739
vn -0.717325 0.000000 0.696739
vn -0.717325 0.000000 0.696739
vn -0.717325 0.000000 0.696739
vn -0.717325 0.000000 0.696739
vn -0.717325 0.000000 0.696739
vn -0.717325 0.000000 0.696739
vn -0.717325 0.000000 0.696739
vn -0.717325 0.000000 0.696739
vn -0.717325 0.000000 0.696739
vn -0.717325 0.000000 0.696739
vn -0.717325 0.000000 0.696739
vn -0.717325 0.000000 0.696739
vn -0.717325 0.000000 0.696739
vn -0.717325 0.000000 0.696739
vn -0.717325 0.000000 0.696739
vn -0.717325 0.000000 0.696739
vn -0.717325 0.000000 0.696739
vn -0.717325 0.000000 0.696739
vn -0.717325 0.000000 0.696739
vn -0.717325 0.000000 0.696739
vn -0.717325 0.000000 0.696739
vn -0.717325 0.000000 0.696739
vn -0.717325 0.000000 0.696739
vn -0.717325 0.000000 0.696739
vn -0.717325 0.000000 0.696739
vn -0.717325 0.000000 0.696739
vn -0.717325 0.000000 0.696739
vn -0.717325 0.000000 0.696739
vn -0.717325 0.000000 0.696739
vn -0.717325 0.000000 0.696739
vn -0.717325 0.000000 0.696739
vn -0.717325 0.000000 0.696739
vn -0.717325 0.000000 0.696739
vn -0.717325 0.000000 0.696739
vn -0.717325 0.000000 0.696739
vn -0.717325 0.000000 0.696739
vn 0.717325 0.000000 -0.696739
vn 0.717325 0.000000 -0.696739
vn 0.717325 0.000000 -0.696739
vn 0.717325 0.000000 -0.696739
vn 0.717325 0.000000 -0.696739
vn 0.717325 0.000000 -0.696739
vn 0.717325 0.000000 -0.696739
vn 0.717325 0.000000 -0.696739
vn 0.717325 0.000000 -0.696739
vn 0.717325 0.000000 -0.696739
vn 0.717325 0.000000 -0.696739
vn 0.717325 0.000000 -0.696739
vn 0.717325 0.000000 -0.696739
vn 0.717325 0.000000 -0.696739
vn 0.717325 0.000000 -0.696739
vn 0.717325 0.000000 -0.696739
vn 0.717325 0.000000 -0.696739
vn 0.717325 0.000000 -0.696739
vn 0.717325 0.000000 -0.696739
vn 0.717325 0.000000 -0.696739
vn 0.717325 0.000000 -0.696739
vn 0.717325 0.000000 -0.696739
vn 0.717325 0.000000 -0.696739
vn 0.717325 0.000000 -0.696739
vn 0.717325 0.000000 -0.696739
vn 0.717325 0.000000 -0.696739
vn 0.717325 0.000000 -0.696739
vn 0.717325 0.000000 -0.696739
vn 0.717325 0.000000 -0.696739
vn 0.717325 0.000000 -0.696739
vn 0.717325 0.000000 -0.696739
vn 0.717325 0.000000 -0.696739
vn 0.717325 0.000000 -0.696739
vn 0.717325 0.000000 -0.696739
vn 0.717325 0.000000 -0.696739
vn 0.717325 0.000000 -0.696739
vn 0.717325 0.000000 -0.696739
vn 0.000000 -1.000000 0.000000
vn 0.000000 -1.000000 0.000000
vn 0.000000 -1.000000 0.000000
vn 0.000000 -1.000000 0.000000
vn -0.696739 0.000000 -0.717325
vn -0.696739 0.000000 -0.717325
vn -0.696739 0.000000 -0.717325
vn -0.696739 0.000000 -0.717325
vn -0.696735 0.003612 -0.717320
vn -0.696735 0.003612 -0.717320
vn -0.696735 0.003612 -0.717320
vn -0.696735 0.003612 -0.717320
vn -0.690846 0.129796 -0.711256
vn -0.690846 0.129796 -0.711256
vn -0.690846 0.129796 -0.711256
vn -0.690846 0.129796 -0.711256
vn -0.680962 0.211605 -0.701081
vn -0.680962 0.211605 -0.701081
vn -0.680962 0.211605 -0.701081
vn -0.680962 0.211605 -0.701081
vn -0.666874 0.289641 -0.686577
vn -0.666874 0.289641 -0.686577
vn -0.666874 0.289641 -0.686577
vn -0.666874 0.289641 -0.686577
vn -0.642969 0.385217 -0.661966
vn -0.642969 0.385217 -0.661966
vn -0.642969 0.385217 -0.661966
vn -0.642969 0.385217 -0.661966
vn -0.613000 0.475321 -0.631111
vn -0.613000 0.475321 -0.631111
vn -0.613000 0.475321 -0.631111
vn -0.613000 0.475321 -0.631111
vn -0.579345 0.555512 -0.596462
vn -0.579345 0.555512 -0.596462
vn -0.579345 0.555512 -0.596462
vn -0.579345 0.555512 -0.596462
vn -0.541535 0.629202 -0.557534
vn -0.541535 0.629202 -0.557534
vn -0.541535 0.629202 -0.557534
vn -0.541535 0.629202 -0.557534
vn -0.498642 0.698429 -0.513375
vn -0.498642 0.698429 -0.513375
vn -0.498642 0.698429 -0.513375
vn -0.498642 0.698429 -0.513375
vn -0.449479 0.764083 -0.462759
vn -0.449479 0.764083 -0.462759
vn -0.449479 0.764083 -0.462759
vn -0.449479 0.764083 -0.462759
vn -0.392755 0.825977 -0.404358
vn -0.392755 0.825977 -0.404358
vn -0.392755 0.825977 -0.404358
vn -0.392755 0.825977 -0.404358
vn -0.327288 0.882803 -0.336958
vn -0.327288 0.882803 -0.336958
vn -0.327288 0.882803 -0.336958
vn -0.327288 0.882803 -0.336958
vn -0.262393 0.926376 -0.270145
vn -0.262393 0.926376 -0.270145
vn -0.262393 0.926376 -0.270145
vn -0.262393 0.926376 -0.270145
vn -0.200902 0.957526 -0.206838
vn -0.200902 0.957526 -0.206838
vn -0.200902 0.957526 -0.206838
vn -0.200902 0.957526 -0.206838
vn -0.134586 0.981166 -0.138563
vn -0.134586 0.981166 -0.138563
vn -0.134586 0.981166 -0.138563
vn -0.134586 0.981166 -0.138563
vn -0.064433 0.995715 -0.066337
vn -0.064433 0.995715 -0.066337
vn -0.064433 0.995715 -0.066337
vn -0.064433 0.995715 -0.066337
vn 0.008083 0.999933 0.008321
vn 0.008083 0.999933 0.008321
vn 0.008083 0.999933 0.008321
vn 0.008083 0.999933 0.008321
vn 0.081103 0.993202 0.083499
vn 0.081103 0.993202 0.083499
vn 0.081103 0.993202 0.083499
vn 0.081103 0.993202 0.083499
vn 0.150783 0.976302 0.155237
vn 0.150783 0.976302 0.155237
vn 0.150783 0.976302 0.155237
vn 0.150783 0.976302 0.155237
vn 0.220736 0.948488 0.227257
vn 0.220736 0.948488 0.227257
vn 0.220736 0.948488 0.227257
vn 0.220736 0.948488 0.227257
vn 0.284603 0.912768 0.293012
vn 0.284603 0.912768 0.293012
vn 0.284603 0.912768 0.293012
vn 0.284603 0.912768 0.293012
vn 0.340480 0.872465 0.350539
vn 0.340480 0.872465 0.350539
vn 0.340480 0.872465 0.350539
vn 0.340480 0.872465 0.350539
vn 0.394157 0.824600 0.405803
vn 0.394157 0.824600 0.405803
vn 0.394157 0.824600 0.405803
vn 0.394157 0.824600 0.405803
vn 0.444393 0.770187 0.457522
vn 0.444393 0.770187 0.457522
vn 0.444393 0.770187 0.457522
vn 0.444393 0.770187 0.457522
vn 0.490197 0.710638 0.504679
vn 0.490197 0.710638 0.504679
vn 0.490197 0.710638 0.504679
vn 0.490197 0.710638 0.504679
vn 0.535583 0.639610 0.551407
vn 0.535583 0.639610 0.551407
vn 0.535583 0.639610 0.551407
vn 0.535583 0.639610 0.551407
vn 0.578035 0.558315 0.595113
vn 0.578035 0.558315 0.595113
vn 0.578035 0.558315 0.595113
vn 0.578035 0.558315 0.595113
vn 0.612242 0.477329 0.630331
vn 0.612242 0.477329 0.630331
vn 0.612242 0.477329 0.630331
vn 0.612242 0.477329 0.630331
vn 0.638925 0.398840 0.657801
vn 0.638925 0.398840 0.657801
vn 0.638925 0.398840 0.657801
vn 0.638925 0.398840 0.657801
vn 0.662842 0.308114 0.682426
vn 0.662842 0.308114 0.682426
vn 0.662842 0.308114 0.682426
vn 0.662842 0.308114 0.682426
vn 0.681369 0.208885 0.701501
vn 0.681369 0.208885 0.701501
vn 0.681369 0.208885 0.701501
vn 0.681369 0.208885 0.701501
vn 0.692254 0.113278 0.712708
vn 0.692254 0.113278 0.712708
vn 0.692254 0.113278 0.712708
vn 0.692254 0.113278 0.712708
vn 0.696707 0.009534 0.717292
vn 0.696707 0.009534 0.717292
vn 0.696707 0.009534 0.717292
vn 0.696707 0.009534 0.717292
vn 0.696530 -0.024511 0.717109
vn 0.696530 -0.024511 0.717109
vn 0.696530 -0.024511 0.717109
vn 0.696530 -0.024511 0.717109
vn 0.696739 0.000000 0.717325
vn 0.696739 0.000000 0.717325
vn 0.696739 0.000000 0.717325
vn 0.696739 0.000000 0.717325
s off
g door_10:Mesh
usemtl initialShadingGroup
f 111/1/1 110/2/2 109/3/3 108/4/4 107/5/5 106/6/6 105/7/7 104/8/8 103/9/9 102/10/10 101/11/11 100/12/12 99/13/13 98/14/14 97/15/15 96/16/16 95/17/17 94/18/18 93/19/19 92/20/20 91/21/21 90/22/22 89/23/23 88/24/24 87/25/25 86/26/26 85/27/27 84/28/28 83/29/29 82/30/30 81/31/31 80/32/32 79/33/33 78/34/34 77/35/35 76/36/36 75/37/37
f 113/38/38 114/39/39 115/40/40 116/41/41 117/42/42 118/43/43 119/44/44 120/45/45 121/46/46 122/47/47 123/48/48 124/49/49 125/50/50 126/51/51 127/52/52 128/53/53 129/54/54 130/55/55 131/56/56 132/57/57 133/58/58 134/59/59 135/60/60 136/61/61 137/62/62 138/63/63 139/64/64 140/65/65 141/66/66 142/67/67 143/68/68 144/69/69 145/70/70 146/71/71 147/72/72 148/73/73 112/74/74
f 2/75/75 39/76/76 38/77/77 1/78/78
f 3/79/79 40/80/80 39/81/81 2/82/82
f 4/83/83 41/84/84 40/80/85 3/79/86
f 5/85/87 42/86/88 41/84/89 4/83/90
f 6/87/91 43/88/92 42/86/93 5/85/94
f 7/89/95 44/90/96 43/88/97 6/87/98
f 8/91/99 45/92/100 44/90/101 7/89/102
f 9/93/103 46/94/104 45/92/105 8/91/106
f 10/95/107 47/96/108 46/94/109 9/93/110
f 11/97/111 48/98/112 47/96/113 10/95/114
f 12/99/115 49/100/116 48/98/117 11/97/118
f 13/101/119 50/102/120 49/100/121 12/99/122
f 14/103/123 51/104/124 50/102/125 13/101/126
f 15/105/127 52/106/128 51/104/129 14/103/130
f 16/107/131 53/108/132 52/106/133 15/105/134
f 17/109/135 54/110/136 53/108/137 16/107/138
f 18/111/139 55/112/140 54/110/141 17/109/142
f 19/113/143 56/114/144 55/112/145 18/111/146
f 20/115/147 57/116/148 56/114/149 19/113/150
f 21/117/151 58/118/152 57/116/153 20/115/154
f 22/119/155 59/120/156 58/118/157 21/117/158
f 23/121/159 60/122/160 59/120/161 22/119/162
f 24/123/163 61/124/164 60/122/165 23/121/166
f 25/125/167 62/126/168 61/124/169 24/123/170
f 26/127/171 63/128/172 62/126/173 25/125/174
f 27/129/175 64/130/176 63/128/177 26/127/178
f 28/131/179 65/132/180 64/130/181 27/129/182
f 29/133/183 66/134/184 65/132/185 28/131/186
f 30/135/187 67/136/188 66/134/189 29/133/190
f 31/137/191 68/138/192 67/136/193 30/135/194
f 32/139/195 69/140/196 68/138/197 31/137/198
f 33/141/199 70/142/200 69/140/201 32/139/202
f 34/143/203 71/144/204 70/142/205 33/141/206
f 35/145/207 72/146/208 71/144/209 34/143/210
f 36/147/211 73/148/212 72/146/213 35/145/214
f 37/149/215 74/150/216 73/148/217 36/147/218
f 1/151/219 38/152/220 74/150/221 37/149/222
