# This file uses centimeters as units for non-parametric coordinates.

mtllib door 4.mtl
g default
v 35.809660 0.008206 0.749596
v -28.113431 0.008206 -6.848039
v -28.113431 64.639755 -6.848039
v -28.025527 89.150368 -6.837591
v -27.454123 93.546181 -6.769678
v -26.957472 95.856247 -6.710648
v -26.316395 97.989624 -6.634450
v -25.205152 100.670456 -6.502373
v -23.748214 103.386208 -6.329208
v -21.961798 106.079002 -6.116883
v -19.862126 108.690941 -5.867325
v -17.465419 111.164131 -5.582460
v -14.787895 113.440689 -5.264222
v -11.845776 115.462723 -4.914534
v -8.655280 117.172348 -4.535323
v -6.109168 118.214714 -4.232702
v -3.439313 119.024361 -3.915375
v -0.652552 119.576866 -3.584152
v 2.244261 119.847801 -3.239849
v 5.244298 119.812752 -2.883277
v 8.340701 119.447296 -2.515252
v 12.183744 118.589432 -2.058483
v 15.731663 117.396027 -1.636793
v 18.361872 116.210678 -1.324177
v 20.810679 114.829422 -1.033121
v 23.081405 113.260628 -0.763232
v 25.177375 111.512657 -0.514114
v 27.101909 109.593887 -0.285371
v 29.271563 106.968002 -0.027496
v 31.185026 104.104668 0.199931
v 32.848792 101.020256 0.397680
v 34.269345 97.731094 0.566519
v 34.907957 95.745399 0.642423
v 35.492572 92.989151 0.711908
v 35.976020 88.718903 0.769368
v 36.084787 77.232277 0.782295
v 35.809660 65.932381 0.749596
v 36.216494 0.008206 -2.673326
v -27.706597 0.008206 -10.270961
v -27.706597 64.639755 -10.270961
v -27.618693 89.150368 -10.260514
v -27.047288 93.546181 -10.192601
v -26.550637 95.856247 -10.133570
v -25.909560 97.989624 -10.057372
v -24.798318 100.670456 -9.925295
v -23.341380 103.386208 -9.752131
v -21.554964 106.079002 -9.539805
v -19.455290 108.690941 -9.290244
v -17.058584 111.164131 -9.005382
v -14.381060 113.440689 -8.687145
v -11.438942 115.462723 -8.337454
v -8.248446 117.172348 -7.958245
v -5.702333 118.214714 -7.655625
v -3.032478 119.024361 -7.338298
v -0.245717 119.576866 -7.007074
v 2.651096 119.847801 -6.662772
v 5.651132 119.812752 -6.306199
v 8.747535 119.447296 -5.938175
v 12.590579 118.589432 -5.481405
v 16.138498 117.396027 -5.059715
v 18.768707 116.210678 -4.747099
v 21.217513 114.829422 -4.456043
v 23.488239 113.260628 -4.186155
v 25.584210 111.512657 -3.937036
v 27.508743 109.593887 -3.708293
v 29.678396 106.968002 -3.450417
v 31.591859 104.104668 -3.222991
v 33.255625 101.020256 -3.025242
v 34.676179 97.731094 -2.856403
v 35.314791 95.745399 -2.780500
v 35.899406 92.989151 -2.711014
v 36.382855 88.718903 -2.653555
v 36.491621 77.232277 -2.640628
v 36.216494 65.932381 -2.673326
v 35.809660 0.008206 0.749596
v -28.113431 0.008206 -6.848039
v -28.113431 64.639755 -6.848039
v -28.025527 89.150368 -6.837591
v -27.454123 93.546181 -6.769678
v -26.957472 95.856247 -6.710648
v -26.316395 97.989624 -6.634450
v -25.205152 100.670456 -6.502373
v -23.748214 103.386208 -6.329208
v -21.961798 106.079002 -6.116883
v -19.862126 108.690941 -5.867325
v -17.465419 111.164131 -5.582460
v -14.787895 113.440689 -5.264222
v -11.845776 115.462723 -4.914534
v -8.655280 117.172348 -4.535323
v -6.109168 118.214714 -4.232702
v -3.439313 119.024361 -3.915375
v -0.652552 119.576866 -3.584152
v 2.244261 119.847801 -3.239849
v 5.244298 119.812752 -2.883277
v 8.340701 119.447296 -2.515252
v 12.183744 118.589432 -2.058483
v 15.731663 117.396027 -1.636793
v 18.361872 116.210678 -1.324177
v 20.810679 114.829422 -1.033121
v 23.081405 113.260628 -0.763232
v 25.177375 111.512657 -0.514114
v 27.101909 109.593887 -0.285371
v 29.271563 106.968002 -0.027496
v 31.185026 104.104668 0.199931
v 32.848792 101.020256 0.397680
v 34.269345 97.731094 0.566519
v 34.907957 95.745399 0.642423
v 35.492572 92.989151 0.711908
v 35.976020 88.718903 0.769368
v 36.084787 77.232277 0.782295
v 35.809660 65.932381 0.749596
v 36.216494 0.008206 -2.673326
v -27.706597 0.008206 -10.270961
v -27.706597 64.639755 -10.270961
v -27.618693 89.150368 -10.260514
v -27.047288 93.546181 -10.192601
v -26.550637 95.856247 -10.133570
v -25.909560 97.989624 -10.057372
v -24.798318 100.670456 -9.925295
v -23.341380 103.386208 -9.752131
v -21.554964 106.079002 -9.539805
v -19.455290 108.690941 -9.290244
v -17.058584 111.164131 -9.005382
v -14.381060 113.440689 -8.687145
v -11.438942 115.462723 -8.337454
v -8.248446 117.172348 -7.958245
v -5.702333 118.214714 -7.655625
v -3.032478 119.024361 -7.338298
v -0.245717 119.576866 -7.007074
v 2.651096 119.847801 -6.662772
v 5.651132 119.812752 -6.306199
v 8.747535 119.447296 -5.938175
v 12.590579 118.589432 -5.481405
v 16.138498 117.396027 -5.059715
v 18.768707 116.210678 -4.747099
v 21.217513 114.829422 -4.456043
v 23.488239 113.260628 -4.186155
v 25.584210 111.512657 -3.937036
v 27.508743 109.593887 -3.708293
v 29.678396 106.968002 -3.450417
v 31.591859 104.104668 -3.222991
v 33.255625 101.020256 -3.025242
v 34.676179 97.731094 -2.856403
v 35.314791 95.745399 -2.780500
v 35.899406 92.989151 -2.711014
v 36.382855 88.718903 -2.653555
v 36.491621 77.232277 -2.640628
v 36.216494 65.932381 -2.673326
vt 0.730902 0.510870
vt 0.732908 0.592687
vt 0.732115 0.675857
vt 0.728590 0.706776
vt 0.724327 0.726733
vt 0.719671 0.741110
vt 0.709313 0.764925
vt 0.697181 0.787258
vt 0.683229 0.807991
vt 0.667409 0.827003
vt 0.653376 0.840896
vt 0.638094 0.853553
vt 0.621536 0.864912
vt 0.603681 0.874913
vt 0.584503 0.883495
vt 0.558633 0.892136
vt 0.530611 0.898348
vt 0.508034 0.900994
vt 0.486159 0.901248
vt 0.465037 0.899286
vt 0.444717 0.895285
vt 0.425250 0.889423
vt 0.406685 0.881876
vt 0.383421 0.869497
vt 0.361969 0.854856
vt 0.342445 0.838373
vt 0.324970 0.820466
vt 0.309660 0.801554
vt 0.296634 0.782056
vt 0.286011 0.762393
vt 0.277908 0.742982
vt 0.273234 0.727535
vt 0.269612 0.710809
vt 0.265446 0.678981
vt 0.264805 0.501510
vt 0.264805 0.033541
vt 0.730902 0.033541
vt 0.264805 0.033541
vt 0.264805 0.501510
vt 0.265446 0.678981
vt 0.269612 0.710809
vt 0.273234 0.727535
vt 0.277908 0.742982
vt 0.286011 0.762393
vt 0.296634 0.782056
vt 0.309660 0.801554
vt 0.324970 0.820466
vt 0.342445 0.838373
vt 0.361969 0.854856
vt 0.383421 0.869497
vt 0.406685 0.881876
vt 0.425250 0.889423
vt 0.444717 0.895285
vt 0.465037 0.899286
vt 0.486159 0.901248
vt 0.508034 0.900994
vt 0.530611 0.898348
vt 0.558633 0.892136
vt 0.584503 0.883495
vt 0.603681 0.874913
vt 0.621536 0.864912
vt 0.638094 0.853553
vt 0.653376 0.840896
vt 0.667409 0.827003
vt 0.683229 0.807991
vt 0.697181 0.787258
vt 0.709313 0.764925
vt 0.719671 0.741110
vt 0.724327 0.726733
vt 0.728590 0.706776
vt 0.732115 0.675857
vt 0.732908 0.592687
vt 0.730902 0.510870
vt 0.730902 0.033541
vt 0.255234 0.018128
vt 0.255234 0.018128
vt 0.735657 0.018128
vt 0.735657 0.018128
vt 0.382648 0.471476
vt 0.402483 0.471476
vt 0.402483 0.099572
vt 0.382648 0.099572
vt 0.382648 0.612516
vt 0.402483 0.612516
vt 0.382648 0.637811
vt 0.402483 0.637811
vt 0.382648 0.651103
vt 0.402483 0.651103
vt 0.382648 0.663379
vt 0.402483 0.663379
vt 0.382648 0.678805
vt 0.402483 0.678805
vt 0.382648 0.694432
vt 0.402483 0.694432
vt 0.382648 0.709927
vt 0.402483 0.709927
vt 0.382648 0.724957
vt 0.402483 0.724957
vt 0.382648 0.739188
vt 0.402483 0.739188
vt 0.382648 0.752288
vt 0.402483 0.752288
vt 0.382648 0.763923
vt 0.402483 0.763923
vt 0.382648 0.773761
vt 0.402483 0.773761
vt 0.382648 0.779759
vt 0.402483 0.779759
vt 0.382648 0.784418
vt 0.402483 0.784418
vt 0.382648 0.787597
vt 0.402483 0.787597
vt 0.382648 0.789156
vt 0.402483 0.789156
vt 0.382648 0.788954
vt 0.402483 0.788954
vt 0.382648 0.786851
vt 0.402483 0.786851
vt 0.382648 0.781915
vt 0.402483 0.781915
vt 0.382648 0.775048
vt 0.402483 0.775048
vt 0.382648 0.768227
vt 0.402483 0.768227
vt 0.382648 0.760279
vt 0.402483 0.760279
vt 0.382648 0.751252
vt 0.402483 0.751252
vt 0.382648 0.741194
vt 0.402483 0.741194
vt 0.382648 0.730153
vt 0.402483 0.730153
vt 0.382648 0.715043
vt 0.402483 0.715043
vt 0.382648 0.698567
vt 0.402483 0.698567
vt 0.382648 0.680818
vt 0.402483 0.680818
vt 0.382648 0.661892
vt 0.402483 0.661892
vt 0.382648 0.650465
vt 0.402483 0.650465
vt 0.382648 0.634605
vt 0.402483 0.634605
vt 0.382648 0.610033
vt 0.402483 0.610033
vt 0.382648 0.543937
vt 0.402483 0.543937
vt 0.382648 0.478915
vt 0.402483 0.478915
vt 0.382648 0.099572
vt 0.402483 0.099572
vn -0.118026 0.000000 0.993011
vn -0.118026 0.000000 0.993011
vn -0.118026 0.000000 0.993011
vn -0.118026 0.000000 0.993011
vn -0.118026 0.000000 0.993011
vn -0.118026 0.000000 0.993011
vn -0.118026 0.000000 0.993011
vn -0.118026 0.000000 0.993011
vn -0.118026 0.000000 0.993011
vn -0.118026 0.000000 0.993011
vn -0.118026 0.000000 0.993011
vn -0.118026 0.000000 0.993011
vn -0.118026 0.000000 0.993011
vn -0.118026 0.000000 0.993011
vn -0.118026 0.000000 0.993011
vn -0.118026 0.000000 0.993011
vn -0.118026 0.000000 0.993011
vn -0.118026 0.000000 0.993011
vn -0.118026 0.000000 0.993011
vn -0.118026 0.000000 0.993011
vn -0.118026 0.000000 0.993011
vn -0.118026 0.000000 0.993011
vn -0.118026 0.000000 0.993011
vn -0.118026 0.000000 0.993011
vn -0.118026 0.000000 0.993011
vn -0.118026 0.000000 0.993011
vn -0.118026 0.000000 0.993011
vn -0.118026 0.000000 0.993011
vn -0.118026 0.000000 0.993011
vn -0.118026 0.000000 0.993011
vn -0.118026 0.000000 0.993011
vn -0.118026 0.000000 0.993011
vn -0.118026 0.000000 0.993011
vn -0.118026 0.000000 0.993011
vn -0.118026 0.000000 0.993011
vn -0.118026 0.000000 0.993011
vn -0.118026 0.000000 0.993011
vn 0.118026 0.000000 -0.993011
vn 0.118026 0.000000 -0.993011
vn 0.118026 0.000000 -0.993011
vn 0.118026 0.000000 -0.993011
vn 0.118026 0.000000 -0.993011
vn 0.118026 0.000000 -0.993011
vn 0.118026 0.000000 -0.993011
vn 0.118026 0.000000 -0.993011
vn 0.118026 0.000000 -0.993011
vn 0.118026 0.000000 -0.993011
vn 0.118026 0.000000 -0.993011
vn 0.118026 0.000000 -0.993011
vn 0.118026 0.000000 -0.993011
vn 0.118026 0.000000 -0.993011
vn 0.118026 0.000000 -0.993011
vn 0.118026 0.000000 -0.993011
vn 0.118026 0.000000 -0.993011
vn 0.118026 0.000000 -0.993011
vn 0.118026 0.000000 -0.993011
vn 0.118026 0.000000 -0.993011
vn 0.118026 0.000000 -0.993011
vn 0.118026 0.000000 -0.993011
vn 0.118026 0.000000 -0.993011
vn 0.118026 0.000000 -0.993011
vn 0.118026 0.000000 -0.993011
vn 0.118026 0.000000 -0.993011
vn 0.118026 0.000000 -0.993011
vn 0.118026 0.000000 -0.993011
vn 0.118026 0.000000 -0.993011
vn 0.118026 0.000000 -0.993011
vn 0.118026 0.000000 -0.993011
vn 0.118026 0.000000 -0.993011
vn 0.118026 0.000000 -0.993011
vn 0.118026 0.000000 -0.993011
vn 0.118026 0.000000 -0.993011
vn 0.118026 0.000000 -0.993011
vn 0.118026 0.000000 -0.993011
vn 0.000000 -1.000000 0.000000
vn 0.000000 -1.000000 0.000000
vn 0.000000 -1.000000 0.000000
vn 0.000000 -1.000000 0.000000
vn -0.993011 0.000000 -0.118026
vn -0.993011 0.000000 -0.118026
vn -0.993011 0.000000 -0.118026
vn -0.993011 0.000000 -0.118026
vn -0.993004 0.003612 -0.118024
vn -0.993004 0.003612 -0.118024
vn -0.993004 0.003612 -0.118024
vn -0.993004 0.003612 -0.118024
vn -0.984611 0.129796 -0.117027
vn -0.984611 0.129796 -0.117027
vn -0.984611 0.129796 -0.117027
vn -0.984611 0.129796 -0.117027
vn -0.970524 0.211605 -0.115353
vn -0.970524 0.211605 -0.115353
vn -0.970524 0.211605 -0.115353
vn -0.970524 0.211605 -0.115353
vn -0.950446 0.289641 -0.112966
vn -0.950446 0.289641 -0.112966
vn -0.950446 0.289641 -0.112966
vn -0.950446 0.289641 -0.112966
vn -0.916376 0.385217 -0.108917
vn -0.916376 0.385217 -0.108917
vn -0.916376 0.385217 -0.108917
vn -0.916376 0.385217 -0.108917
vn -0.873663 0.475321 -0.103840
vn -0.873663 0.475321 -0.103840
vn -0.873663 0.475321 -0.103840
vn -0.873663 0.475321 -0.103840
vn -0.825697 0.555512 -0.098139
vn -0.825697 0.555512 -0.098139
vn -0.825697 0.555512 -0.098139
vn -0.825697 0.555512 -0.098139
vn -0.771810 0.629202 -0.091734
vn -0.771810 0.629202 -0.091734
vn -0.771810 0.629202 -0.091734
vn -0.771810 0.629202 -0.091734
vn -0.710677 0.698429 -0.084468
vn -0.710677 0.698429 -0.084468
vn -0.710677 0.698429 -0.084468
vn -0.710677 0.698429 -0.084468
vn -0.640609 0.764083 -0.076140
vn -0.640609 0.764083 -0.076140
vn -0.640609 0.764083 -0.076140
vn -0.640609 0.764083 -0.076140
vn -0.559764 0.825977 -0.066531
vn -0.559764 0.825977 -0.066531
vn -0.559764 0.825977 -0.066531
vn -0.559764 0.825977 -0.066531
vn -0.466460 0.882803 -0.055441
vn -0.466460 0.882803 -0.055441
vn -0.466460 0.882803 -0.055441
vn -0.466460 0.882803 -0.055441
vn -0.373968 0.926376 -0.044448
vn -0.373968 0.926376 -0.044448
vn -0.373968 0.926376 -0.044448
vn -0.373968 0.926376 -0.044448
vn -0.286331 0.957526 -0.034032
vn -0.286331 0.957526 -0.034032
vn -0.286331 0.957526 -0.034032
vn -0.286331 0.957526 -0.034032
vn -0.191816 0.981166 -0.022799
vn -0.191816 0.981166 -0.022799
vn -0.191816 0.981166 -0.022799
vn -0.191816 0.981166 -0.022799
vn -0.091832 0.995715 -0.010915
vn -0.091832 0.995715 -0.010915
vn -0.091832 0.995715 -0.010915
vn -0.091832 0.995715 -0.010915
vn 0.011520 0.999933 0.001369
vn 0.011520 0.999933 0.001369
vn 0.011520 0.999933 0.001369
vn 0.011520 0.999933 0.001369
vn 0.115590 0.993202 0.013738
vn 0.115590 0.993202 0.013738
vn 0.115590 0.993202 0.013738
vn 0.115590 0.993202 0.013738
vn 0.214899 0.976302 0.025542
vn 0.214899 0.976302 0.025542
vn 0.214899 0.976302 0.025542
vn 0.214899 0.976302 0.025542
vn 0.314598 0.948488 0.037392
vn 0.314598 0.948488 0.037392
vn 0.314598 0.948488 0.037392
vn 0.314598 0.948488 0.037392
vn 0.405623 0.912768 0.048211
vn 0.405623 0.912768 0.048211
vn 0.405623 0.912768 0.048211
vn 0.405623 0.912768 0.048211
vn 0.485261 0.872465 0.057676
vn 0.485261 0.872465 0.057676
vn 0.485261 0.872465 0.057676
vn 0.485261 0.872465 0.057676
vn 0.561763 0.824600 0.066769
vn 0.561763 0.824600 0.066769
vn 0.561763 0.824600 0.066769
vn 0.561763 0.824600 0.066769
vn 0.633360 0.770187 0.075278
vn 0.633360 0.770187 0.075278
vn 0.633360 0.770187 0.075278
vn 0.633360 0.770187 0.075278
vn 0.698641 0.710638 0.083037
vn 0.698641 0.710638 0.083037
vn 0.698641 0.710638 0.083037
vn 0.698641 0.710638 0.083037
vn 0.763327 0.639610 0.090726
vn 0.763327 0.639610 0.090726
vn 0.763327 0.639610 0.090726
vn 0.763327 0.639610 0.090726
vn 0.823830 0.558315 0.097917
vn 0.823830 0.558315 0.097917
vn 0.823830 0.558315 0.097917
vn 0.823830 0.558315 0.097917
vn 0.872583 0.477329 0.103711
vn 0.872583 0.477329 0.103711
vn 0.872583 0.477329 0.103711
vn 0.872583 0.477329 0.103711
vn 0.910611 0.398840 0.108231
vn 0.910611 0.398840 0.108231
vn 0.910611 0.398840 0.108231
vn 0.910611 0.398840 0.108231
vn 0.944700 0.308114 0.112283
vn 0.944700 0.308114 0.112283
vn 0.944700 0.308114 0.112283
vn 0.944700 0.308114 0.112283
vn 0.971105 0.208885 0.115422
vn 0.971105 0.208885 0.115422
vn 0.971105 0.208885 0.115422
vn 0.971105 0.208885 0.115422
vn 0.986619 0.113278 0.117266
vn 0.986619 0.113278 0.117266
vn 0.986619 0.113278 0.117266
vn 0.986619 0.113278 0.117266
vn 0.992965 0.009534 0.118020
vn 0.992965 0.009534 0.118020
vn 0.992965 0.009534 0.118020
vn 0.992965 0.009534 0.118020
vn 0.992712 -0.024511 0.117990
vn 0.992712 -0.024511 0.117990
vn 0.992712 -0.024511 0.117990
vn 0.992712 -0.024511 0.117990
vn 0.993011 0.000000 0.118026
vn 0.993011 0.000000 0.118026
vn 0.993011 0.000000 0.118026
vn 0.993011 0.000000 0.118026
s off
g door_10:Mesh
usemtl initialShadingGroup
f 111/1/1 110/2/2 109/3/3 108/4/4 107/5/5 106/6/6 105/7/7 104/8/8 103/9/9 102/10/10 101/11/11 100/12/12 99/13/13 98/14/14 97/15/15 96/16/16 95/17/17 94/18/18 93/19/19 92/20/20 91/21/21 90/22/22 89/23/23 88/24/24 87/25/25 86/26/26 85/27/27 84/28/28 83/29/29 82/30/30 81/31/31 80/32/32 79/33/33 78/34/34 77/35/35 76/36/36 75/37/37
f 113/38/38 114/39/39 115/40/40 116/41/41 117/42/42 118/43/43 119/44/44 120/45/45 121/46/46 122/47/47 123/48/48 124/49/49 125/50/50 126/51/51 127/52/52 128/53/53 129/54/54 130/55/55 131/56/56 132/57/57 133/58/58 134/59/59 135/60/60 136/61/61 137/62/62 138/63/63 139/64/64 140/65/65 141/66/66 142/67/67 143/68/68 144/69/69 145/70/70 146/71/71 147/72/72 148/73/73 112/74/74
f 2/75/75 39/76/76 38/77/77 1/78/78
f 3/79/79 40/80/80 39/81/81 2/82/82
f 4/83/83 41/84/84 40/80/85 3/79/86
f 5/85/87 42/86/88 41/84/89 4/83/90
f 6/87/91 43/88/92 42/86/93 5/85/94
f 7/89/95 44/90/96 43/88/97 6/87/98
f 8/91/99 45/92/100 44/90/101 7/89/102
f 9/93/103 46/94/104 45/92/105 8/91/106
f 10/95/107 47/96/108 46/94/109 9/93/110
f 11/97/111 48/98/112 47/96/113 10/95/114
f 12/99/115 49/100/116 48/98/117 11/97/118
f 13/101/119 50/102/120 49/100/121 12/99/122
f 14/103/123 51/104/124 50/102/125 13/101/126
f 15/105/127 52/106/128 51/104/129 14/103/130
f 16/107/131 53/108/132 52/106/133 15/105/134
f 17/109/135 54/110/136 53/108/137 16/107/138
f 18/111/139 55/112/140 54/110/141 17/109/142
f 19/113/143 56/114/144 55/112/145 18/111/146
f 20/115/147 57/116/148 56/114/149 19/113/150
f 21/117/151 58/118/152 57/116/153 20/115/154
f 22/119/155 59/120/156 58/118/157 21/117/158
f 23/121/159 60/122/160 59/120/161 22/119/162
f 24/123/163 61/124/164 60/122/165 23/121/166
f 25/125/167 62/126/168 61/124/169 24/123/170
f 26/127/171 63/128/172 62/126/173 25/125/174
f 27/129/175 64/130/176 63/128/177 26/127/178
f 28/131/179 65/132/180 64/130/181 27/129/182
f 29/133/183 66/134/184 65/132/185 28/131/186
f 30/135/187 67/136/188 66/134/189 29/133/190
f 31/137/191 68/138/192 67/136/193 30/135/194
f 32/139/195 69/140/196 68/138/197 31/137/198
f 33/141/199 70/142/200 69/140/201 32/139/202
f 34/143/203 71/144/204 70/142/205 33/141/206
f 35/145/207 72/146/208 71/144/209 34/143/210
f 36/147/211 73/148/212 72/146/213 35/145/214
f 37/149/215 74/150/216 73/148/217 36/147/218
f 1/151/219 38/152/220 74/150/221 37/149/222
