# This file uses centimeters as units for non-parametric coordinates.

mtllib door 9.mtl
g default
v 34.381257 0.008206 1.171408
v -19.676823 0.008206 -33.780125
v -19.676823 64.639755 -33.780125
v -19.602485 89.150368 -33.732061
v -19.119263 93.546181 -33.419633
v -18.699258 95.856247 -33.148076
v -18.157117 97.989624 -32.797550
v -17.217368 100.670456 -32.189951
v -15.985273 103.386208 -31.393335
v -14.474547 106.079002 -30.416568
v -12.698910 108.690941 -29.268521
v -10.672079 111.164131 -27.958060
v -8.407766 113.440689 -26.494059
v -5.919694 115.462723 -24.885383
v -3.221576 117.172348 -23.140898
v -1.068395 118.214714 -21.748748
v 1.189431 119.024361 -20.288940
v 3.546121 119.576866 -18.765209
v 5.995880 119.847801 -17.181305
v 8.532932 119.812752 -15.540960
v 11.151479 119.447296 -13.847926
v 14.401440 118.589432 -11.746646
v 17.401822 117.396027 -9.806735
v 19.626121 116.210678 -8.368602
v 21.697012 114.829422 -7.029657
v 23.617306 113.260628 -5.788081
v 25.389813 111.512657 -4.642057
v 27.017340 109.593887 -3.589770
v 28.852160 106.968002 -2.403459
v 30.470326 104.104668 -1.357225
v 31.877329 101.020256 -0.447519
v 33.078653 97.731094 0.329202
v 33.618710 95.745399 0.678379
v 34.113104 92.989151 0.998032
v 34.521944 88.718903 1.262369
v 34.613925 77.232277 1.321839
v 34.381257 65.932381 1.171408
v 36.252824 0.008206 -1.723268
v -17.805256 0.008206 -36.674800
v -17.805256 64.639755 -36.674800
v -17.730917 89.150368 -36.626737
v -17.247695 93.546181 -36.314309
v -16.827690 95.856247 -36.042752
v -16.285549 97.989624 -35.692225
v -15.345801 100.670456 -35.084627
v -14.113706 103.386208 -34.288011
v -12.602980 106.079002 -33.311244
v -10.827343 108.690941 -32.163193
v -8.800511 111.164131 -30.852735
v -6.536199 113.440689 -29.388735
v -4.048127 115.462723 -27.780056
v -1.350008 117.172348 -26.035574
v 0.803172 118.214714 -24.643424
v 3.060999 119.024361 -23.183616
v 5.417689 119.576866 -21.659884
v 7.867448 119.847801 -20.075981
v 10.404500 119.812752 -18.435636
v 13.023047 119.447296 -16.742602
v 16.273008 118.589432 -14.641322
v 19.273390 117.396027 -12.701410
v 21.497689 116.210678 -11.263278
v 23.568580 114.829422 -9.924331
v 25.488873 113.260628 -8.682756
v 27.261381 111.512657 -7.536732
v 28.888908 109.593887 -6.484446
v 30.723726 106.968002 -5.298135
v 32.341892 104.104668 -4.251901
v 33.748894 101.020256 -3.342195
v 34.950221 97.731094 -2.565474
v 35.490278 95.745399 -2.216297
v 35.984671 92.989151 -1.896643
v 36.393511 88.718903 -1.632307
v 36.485493 77.232277 -1.572837
v 36.252824 65.932381 -1.723268
v 34.381257 0.008206 1.171408
v -19.676823 0.008206 -33.780125
v -19.676823 64.639755 -33.780125
v -19.602485 89.150368 -33.732061
v -19.119263 93.546181 -33.419633
v -18.699258 95.856247 -33.148076
v -18.157117 97.989624 -32.797550
v -17.217368 100.670456 -32.189951
v -15.985273 103.386208 -31.393335
v -14.474547 106.079002 -30.416568
v -12.698910 108.690941 -29.268521
v -10.672079 111.164131 -27.958060
v -8.407766 113.440689 -26.494059
v -5.919694 115.462723 -24.885383
v -3.221576 117.172348 -23.140898
v -1.068395 118.214714 -21.748748
v 1.189431 119.024361 -20.288940
v 3.546121 119.576866 -18.765209
v 5.995880 119.847801 -17.181305
v 8.532932 119.812752 -15.540960
v 11.151479 119.447296 -13.847926
v 14.401440 118.589432 -11.746646
v 17.401822 117.396027 -9.806735
v 19.626121 116.210678 -8.368602
v 21.697012 114.829422 -7.029657
v 23.617306 113.260628 -5.788081
v 25.389813 111.512657 -4.642057
v 27.017340 109.593887 -3.589770
v 28.852160 106.968002 -2.403459
v 30.470326 104.104668 -1.357225
v 31.877329 101.020256 -0.447519
v 33.078653 97.731094 0.329202
v 33.618710 95.745399 0.678379
v 34.113104 92.989151 0.998032
v 34.521944 88.718903 1.262369
v 34.613925 77.232277 1.321839
v 34.381257 65.932381 1.171408
v 36.252824 0.008206 -1.723268
v -17.805256 0.008206 -36.674800
v -17.805256 64.639755 -36.674800
v -17.730917 89.150368 -36.626737
v -17.247695 93.546181 -36.314309
v -16.827690 95.856247 -36.042752
v -16.285549 97.989624 -35.692225
v -15.345801 100.670456 -35.084627
v -14.113706 103.386208 -34.288011
v -12.602980 106.079002 -33.311244
v -10.827343 108.690941 -32.163193
v -8.800511 111.164131 -30.852735
v -6.536199 113.440689 -29.388735
v -4.048127 115.462723 -27.780056
v -1.350008 117.172348 -26.035574
v 0.803172 118.214714 -24.643424
v 3.060999 119.024361 -23.183616
v 5.417689 119.576866 -21.659884
v 7.867448 119.847801 -20.075981
v 10.404500 119.812752 -18.435636
v 13.023047 119.447296 -16.742602
v 16.273008 118.589432 -14.641322
v 19.273390 117.396027 -12.701410
v 21.497689 116.210678 -11.263278
v 23.568580 114.829422 -9.924331
v 25.488873 113.260628 -8.682756
v 27.261381 111.512657 -7.536732
v 28.888908 109.593887 -6.484446
v 30.723726 106.968002 -5.298135
v 32.341892 104.104668 -4.251901
v 33.748894 101.020256 -3.342195
v 34.950221 97.731094 -2.565474
v 35.490278 95.745399 -2.216297
v 35.984671 92.989151 -1.896643
v 36.393511 88.718903 -1.632307
v 36.485493 77.232277 -1.572837
v 36.252824 65.932381 -1.723268
vt 0.730902 0.510870
vt 0.732908 0.592687
vt 0.732115 0.675857
vt 0.728590 0.706776
vt 0.724327 0.726733
vt 0.719671 0.741110
vt 0.709313 0.764925
vt 0.697181 0.787258
vt 0.683229 0.807991
vt 0.667409 0.827003
vt 0.653376 0.840896
vt 0.638094 0.853553
vt 0.621536 0.864912
vt 0.603681 0.874913
vt 0.584503 0.883495
vt 0.558633 0.892136
vt 0.530611 0.898348
vt 0.508034 0.900994
vt 0.486159 0.901248
vt 0.465037 0.899286
vt 0.444717 0.895285
vt 0.425250 0.889423
vt 0.406685 0.881876
vt 0.383421 0.869497
vt 0.361969 0.854856
vt 0.342445 0.838373
vt 0.324970 0.820466
vt 0.309660 0.801554
vt 0.296634 0.782056
vt 0.286011 0.762393
vt 0.277908 0.742982
vt 0.273234 0.727535
vt 0.269612 0.710809
vt 0.265446 0.678981
vt 0.264805 0.501510
vt 0.264805 0.033541
vt 0.730902 0.033541
vt 0.264805 0.033541
vt 0.264805 0.501510
vt 0.265446 0.678981
vt 0.269612 0.710809
vt 0.273234 0.727535
vt 0.277908 0.742982
vt 0.286011 0.762393
vt 0.296634 0.782056
vt 0.309660 0.801554
vt 0.324970 0.820466
vt 0.342445 0.838373
vt 0.361969 0.854856
vt 0.383421 0.869497
vt 0.406685 0.881876
vt 0.425250 0.889423
vt 0.444717 0.895285
vt 0.465037 0.899286
vt 0.486159 0.901248
vt 0.508034 0.900994
vt 0.530611 0.898348
vt 0.558633 0.892136
vt 0.584503 0.883495
vt 0.603681 0.874913
vt 0.621536 0.864912
vt 0.638094 0.853553
vt 0.653376 0.840896
vt 0.667409 0.827003
vt 0.683229 0.807991
vt 0.697181 0.787258
vt 0.709313 0.764925
vt 0.719671 0.741110
vt 0.724327 0.726733
vt 0.728590 0.706776
vt 0.732115 0.675857
vt 0.732908 0.592687
vt 0.730902 0.510870
vt 0.730902 0.033541
vt 0.255234 0.018128
vt 0.255234 0.018128
vt 0.735657 0.018128
vt 0.735657 0.018128
vt 0.382648 0.471476
vt 0.402483 0.471476
vt 0.402483 0.099572
vt 0.382648 0.099572
vt 0.382648 0.612516
vt 0.402483 0.612516
vt 0.382648 0.637811
vt 0.402483 0.637811
vt 0.382648 0.651103
vt 0.402483 0.651103
vt 0.382648 0.663379
vt 0.402483 0.663379
vt 0.382648 0.678805
vt 0.402483 0.678805
vt 0.382648 0.694432
vt 0.402483 0.694432
vt 0.382648 0.709927
vt 0.402483 0.709927
vt 0.382648 0.724957
vt 0.402483 0.724957
vt 0.382648 0.739188
vt 0.402483 0.739188
vt 0.382648 0.752288
vt 0.402483 0.752288
vt 0.382648 0.763923
vt 0.402483 0.763923
vt 0.382648 0.773761
vt 0.402483 0.773761
vt 0.382648 0.779759
vt 0.402483 0.779759
vt 0.382648 0.784418
vt 0.402483 0.784418
vt 0.382648 0.787597
vt 0.402483 0.787597
vt 0.382648 0.789156
vt 0.402483 0.789156
vt 0.382648 0.788954
vt 0.402483 0.788954
vt 0.382648 0.786851
vt 0.402483 0.786851
vt 0.382648 0.781915
vt 0.402483 0.781915
vt 0.382648 0.775048
vt 0.402483 0.775048
vt 0.382648 0.768227
vt 0.402483 0.768227
vt 0.382648 0.760279
vt 0.402483 0.760279
vt 0.382648 0.751252
vt 0.402483 0.751252
vt 0.382648 0.741194
vt 0.402483 0.741194
vt 0.382648 0.730153
vt 0.402483 0.730153
vt 0.382648 0.715043
vt 0.402483 0.715043
vt 0.382648 0.698567
vt 0.402483 0.698567
vt 0.382648 0.680818
vt 0.402483 0.680818
vt 0.382648 0.661892
vt 0.402483 0.661892
vt 0.382648 0.650465
vt 0.402483 0.650465
vt 0.382648 0.634605
vt 0.402483 0.634605
vt 0.382648 0.610033
vt 0.402483 0.610033
vt 0.382648 0.543937
vt 0.402483 0.543937
vt 0.382648 0.478915
vt 0.402483 0.478915
vt 0.382648 0.099572
vt 0.402483 0.099572
vn -0.542953 0.000000 0.839763
vn -0.542953 0.000000 0.839763
vn -0.542953 0.000000 0.839763
vn -0.542953 0.000000 0.839763
vn -0.542953 0.000000 0.839763
vn -0.542953 0.000000 0.839763
vn -0.542953 0.000000 0.839763
vn -0.542953 0.000000 0.839763
vn -0.542953 0.000000 0.839763
vn -0.542953 0.000000 0.839763
vn -0.542953 0.000000 0.839763
vn -0.542953 0.000000 0.839763
vn -0.542953 0.000000 0.839763
vn -0.542953 0.000000 0.839763
vn -0.542953 0.000000 0.839763
vn -0.542953 0.000000 0.839763
vn -0.542953 0.000000 0.839763
vn -0.542953 0.000000 0.839763
vn -0.542953 0.000000 0.839763
vn -0.542953 0.000000 0.839763
vn -0.542953 0.000000 0.839763
vn -0.542953 0.000000 0.839763
vn -0.542953 0.000000 0.839763
vn -0.542953 0.000000 0.839763
vn -0.542953 0.000000 0.839763
vn -0.542953 0.000000 0.839763
vn -0.542953 0.000000 0.839763
vn -0.542953 0.000000 0.839763
vn -0.542953 0.000000 0.839763
vn -0.542953 0.000000 0.839763
vn -0.542953 0.000000 0.839763
vn -0.542953 0.000000 0.839763
vn -0.542953 0.000000 0.839763
vn -0.542953 0.000000 0.839763
vn -0.542953 0.000000 0.839763
vn -0.542953 0.000000 0.839763
vn -0.542953 0.000000 0.839763
vn 0.542953 0.000000 -0.839763
vn 0.542953 0.000000 -0.839763
vn 0.542953 0.000000 -0.839763
vn 0.542953 0.000000 -0.839763
vn 0.542953 0.000000 -0.839763
vn 0.542953 0.000000 -0.839763
vn 0.542953 0.000000 -0.839763
vn 0.542953 0.000000 -0.839763
vn 0.542953 0.000000 -0.839763
vn 0.542953 0.000000 -0.839763
vn 0.542953 0.000000 -0.839763
vn 0.542953 0.000000 -0.839763
vn 0.542953 0.000000 -0.839763
vn 0.542953 0.000000 -0.839763
vn 0.542953 0.000000 -0.839763
vn 0.542953 0.000000 -0.839763
vn 0.542953 0.000000 -0.839763
vn 0.542953 0.000000 -0.839763
vn 0.542953 0.000000 -0.839763
vn 0.542953 0.000000 -0.839763
vn 0.542953 0.000000 -0.839763
vn 0.542953 0.000000 -0.839763
vn 0.542953 0.000000 -0.839763
vn 0.542953 0.000000 -0.839763
vn 0.542953 0.000000 -0.839763
vn 0.542953 0.000000 -0.839763
vn 0.542953 0.000000 -0.839763
vn 0.542953 0.000000 -0.839763
vn 0.542953 0.000000 -0.839763
vn 0.542953 0.000000 -0.839763
vn 0.542953 0.000000 -0.839763
vn 0.542953 0.000000 -0.839763
vn 0.542953 0.000000 -0.839763
vn 0.542953 0.000000 -0.839763
vn 0.542953 0.000000 -0.839763
vn 0.542953 0.000000 -0.839763
vn 0.542953 0.000000 -0.839763
vn 0.000000 -1.000000 0.000000
vn 0.000000 -1.000000 0.000000
vn 0.000000 -1.000000 0.000000
vn 0.000000 -1.000000 0.000000
vn -0.839763 0.000000 -0.542953
vn -0.839763 0.000000 -0.542953
vn -0.839763 0.000000 -0.542953
vn -0.839763 0.000000 -0.542953
vn -0.839758 0.003612 -0.542950
vn -0.839758 0.003612 -0.542950
vn -0.839758 0.003612 -0.542950
vn -0.839758 0.003612 -0.542950
vn -0.832659 0.129796 -0.538360
vn -0.832659 0.129796 -0.538360
vn -0.832659 0.129796 -0.538360
vn -0.832659 0.129796 -0.538360
vn -0.820747 0.211605 -0.530658
vn -0.820747 0.211605 -0.530658
vn -0.820747 0.211605 -0.530658
vn -0.820747 0.211605 -0.530658
vn -0.803767 0.289641 -0.519680
vn -0.803767 0.289641 -0.519680
vn -0.803767 0.289641 -0.519680
vn -0.803767 0.289641 -0.519680
vn -0.774955 0.385217 -0.501052
vn -0.774955 0.385217 -0.501052
vn -0.774955 0.385217 -0.501052
vn -0.774955 0.385217 -0.501052
vn -0.738834 0.475321 -0.477697
vn -0.738834 0.475321 -0.477697
vn -0.738834 0.475321 -0.477697
vn -0.738834 0.475321 -0.477697
vn -0.698270 0.555512 -0.451470
vn -0.698270 0.555512 -0.451470
vn -0.698270 0.555512 -0.451470
vn -0.698270 0.555512 -0.451470
vn -0.652699 0.629202 -0.422005
vn -0.652699 0.629202 -0.422005
vn -0.652699 0.629202 -0.422005
vn -0.652699 0.629202 -0.422005
vn -0.601001 0.698429 -0.388581
vn -0.601001 0.698429 -0.388581
vn -0.601001 0.698429 -0.388581
vn -0.601001 0.698429 -0.388581
vn -0.541746 0.764083 -0.350269
vn -0.541746 0.764083 -0.350269
vn -0.541746 0.764083 -0.350269
vn -0.541746 0.764083 -0.350269
vn -0.473378 0.825977 -0.306065
vn -0.473378 0.825977 -0.306065
vn -0.473378 0.825977 -0.306065
vn -0.473378 0.825977 -0.306065
vn -0.394473 0.882803 -0.255048
vn -0.394473 0.882803 -0.255048
vn -0.394473 0.882803 -0.255048
vn -0.394473 0.882803 -0.255048
vn -0.316255 0.926376 -0.204476
vn -0.316255 0.926376 -0.204476
vn -0.316255 0.926376 -0.204476
vn -0.316255 0.926376 -0.204476
vn -0.242142 0.957526 -0.156558
vn -0.242142 0.957526 -0.156558
vn -0.242142 0.957526 -0.156558
vn -0.242142 0.957526 -0.156558
vn -0.162214 0.981166 -0.104880
vn -0.162214 0.981166 -0.104880
vn -0.162214 0.981166 -0.104880
vn -0.162214 0.981166 -0.104880
vn -0.077660 0.995715 -0.050211
vn -0.077660 0.995715 -0.050211
vn -0.077660 0.995715 -0.050211
vn -0.077660 0.995715 -0.050211
vn 0.009742 0.999933 0.006299
vn 0.009742 0.999933 0.006299
vn 0.009742 0.999933 0.006299
vn 0.009742 0.999933 0.006299
vn 0.097752 0.993202 0.063202
vn 0.097752 0.993202 0.063202
vn 0.097752 0.993202 0.063202
vn 0.097752 0.993202 0.063202
vn 0.181735 0.976302 0.117501
vn 0.181735 0.976302 0.117501
vn 0.181735 0.976302 0.117501
vn 0.181735 0.976302 0.117501
vn 0.266047 0.948488 0.172014
vn 0.266047 0.948488 0.172014
vn 0.266047 0.948488 0.172014
vn 0.266047 0.948488 0.172014
vn 0.343025 0.912768 0.221785
vn 0.343025 0.912768 0.221785
vn 0.343025 0.912768 0.221785
vn 0.343025 0.912768 0.221785
vn 0.410373 0.872465 0.265328
vn 0.410373 0.872465 0.265328
vn 0.410373 0.872465 0.265328
vn 0.410373 0.872465 0.265328
vn 0.475068 0.824600 0.307158
vn 0.475068 0.824600 0.307158
vn 0.475068 0.824600 0.307158
vn 0.475068 0.824600 0.307158
vn 0.535616 0.770187 0.346305
vn 0.535616 0.770187 0.346305
vn 0.535616 0.770187 0.346305
vn 0.535616 0.770187 0.346305
vn 0.590822 0.710638 0.381999
vn 0.590822 0.710638 0.381999
vn 0.590822 0.710638 0.381999
vn 0.590822 0.710638 0.381999
vn 0.645526 0.639610 0.417368
vn 0.645526 0.639610 0.417368
vn 0.645526 0.639610 0.417368
vn 0.645526 0.639610 0.417368
vn 0.696692 0.558315 0.450450
vn 0.696692 0.558315 0.450450
vn 0.696692 0.558315 0.450450
vn 0.696692 0.558315 0.450450
vn 0.737921 0.477329 0.477106
vn 0.737921 0.477329 0.477106
vn 0.737921 0.477329 0.477106
vn 0.737921 0.477329 0.477106
vn 0.770080 0.398840 0.497899
vn 0.770080 0.398840 0.497899
vn 0.770080 0.398840 0.497899
vn 0.770080 0.398840 0.497899
vn 0.798908 0.308114 0.516538
vn 0.798908 0.308114 0.516538
vn 0.798908 0.308114 0.516538
vn 0.798908 0.308114 0.516538
vn 0.821238 0.208885 0.530976
vn 0.821238 0.208885 0.530976
vn 0.821238 0.208885 0.530976
vn 0.821238 0.208885 0.530976
vn 0.834358 0.113278 0.539459
vn 0.834358 0.113278 0.539459
vn 0.834358 0.113278 0.539459
vn 0.834358 0.113278 0.539459
vn 0.839725 0.009534 0.542929
vn 0.839725 0.009534 0.542929
vn 0.839725 0.009534 0.542929
vn 0.839725 0.009534 0.542929
vn 0.839511 -0.024511 0.542790
vn 0.839511 -0.024511 0.542790
vn 0.839511 -0.024511 0.542790
vn 0.839511 -0.024511 0.542790
vn 0.839763 0.000000 0.542953
vn 0.839763 0.000000 0.542953
vn 0.839763 0.000000 0.542953
vn 0.839763 0.000000 0.542953
s off
g door_10:Mesh
usemtl initialShadingGroup
f 111/1/1 110/2/2 109/3/3 108/4/4 107/5/5 106/6/6 105/7/7 104/8/8 103/9/9 102/10/10 101/11/11 100/12/12 99/13/13 98/14/14 97/15/15 96/16/16 95/17/17 94/18/18 93/19/19 92/20/20 91/21/21 90/22/22 89/23/23 88/24/24 87/25/25 86/26/26 85/27/27 84/28/28 83/29/29 82/30/30 81/31/31 80/32/32 79/33/33 78/34/34 77/35/35 76/36/36 75/37/37
f 113/38/38 114/39/39 115/40/40 116/41/41 117/42/42 118/43/43 119/44/44 120/45/45 121/46/46 122/47/47 123/48/48 124/49/49 125/50/50 126/51/51 127/52/52 128/53/53 129/54/54 130/55/55 131/56/56 132/57/57 133/58/58 134/59/59 135/60/60 136/61/61 137/62/62 138/63/63 139/64/64 140/65/65 141/66/66 142/67/67 143/68/68 144/69/69 145/70/70 146/71/71 147/72/72 148/73/73 112/74/74
f 2/75/75 39/76/76 38/77/77 1/78/78
f 3/79/79 40/80/80 39/81/81 2/82/82
f 4/83/83 41/84/84 40/80/85 3/79/86
f 5/85/87 42/86/88 41/84/89 4/83/90
f 6/87/91 43/88/92 42/86/93 5/85/94
f 7/89/95 44/90/96 43/88/97 6/87/98
f 8/91/99 45/92/100 44/90/101 7/89/102
f 9/93/103 46/94/104 45/92/105 8/91/106
f 10/95/107 47/96/108 46/94/109 9/93/110
f 11/97/111 48/98/112 47/96/113 10/95/114
f 12/99/115 49/100/116 48/98/117 11/97/118
f 13/101/119 50/102/120 49/100/121 12/99/122
f 14/103/123 51/104/124 50/102/125 13/101/126
f 15/105/127 52/106/128 51/104/129 14/103/130
f 16/107/131 53/108/132 52/106/133 15/105/134
f 17/109/135 54/110/136 53/108/137 16/107/138
f 18/111/139 55/112/140 54/110/141 17/109/142
f 19/113/143 56/114/144 55/112/145 18/111/146
f 20/115/147 57/116/148 56/114/149 19/113/150
f 21/117/151 58/118/152 57/116/153 20/115/154
f 22/119/155 59/120/156 58/118/157 21/117/158
f 23/121/159 60/122/160 59/120/161 22/119/162
f 24/123/163 61/124/164 60/122/165 23/121/166
f 25/125/167 62/126/168 61/124/169 24/123/170
f 26/127/171 63/128/172 62/126/173 25/125/174
f 27/129/175 64/130/176 63/128/177 26/127/178
f 28/131/179 65/132/180 64/130/181 27/129/182
f 29/133/183 66/134/184 65/132/185 28/131/186
f 30/135/187 67/136/188 66/134/189 29/133/190
f 31/137/191 68/138/192 67/136/193 30/135/194
f 32/139/195 69/140/196 68/138/197 31/137/198
f 33/141/199 70/142/200 69/140/201 32/139/202
f 34/143/203 71/144/204 70/142/205 33/141/206
f 35/145/207 72/146/208 71/144/209 34/143/210
f 36/147/211 73/148/212 72/146/213 35/145/214
f 37/149/215 74/150/216 73/148/217 36/147/218
f 1/151/219 38/152/220 74/150/221 37/149/222
